<svg width="432" height="482" viewBox="0 0 432 482" fill="none" xmlns="http://www.w3.org/2000/svg">
<path d="M411.8 89.8C411.8 89.63 412.58 89.49 413.55 89.49C414.52 89.49 415.3 89.63 415.3 89.8C415.3 89.97 414.52 90.1 413.55 90.1C412.58 90.1 411.8 89.96 411.8 89.8Z" fill="#E0E0E0"/>
<path d="M404.8 89.8C404.8 89.63 405.58 89.49 406.55 89.49C407.52 89.49 408.3 89.63 408.3 89.8C408.3 89.97 407.52 90.1 406.55 90.1C405.58 90.1 404.8 89.96 404.8 89.8Z" fill="#E0E0E0"/>
<path d="M397.8 89.8C397.8 89.63 398.58 89.49 399.55 89.49C400.52 89.49 401.3 89.63 401.3 89.8C401.3 89.97 400.51 90.1 399.55 90.1C398.59 90.1 397.8 89.96 397.8 89.8Z" fill="#E0E0E0"/>
<path d="M390.8 89.8C390.8 89.63 391.58 89.49 392.55 89.49C393.52 89.49 394.3 89.63 394.3 89.8C394.3 89.97 393.51 90.1 392.55 90.1C391.59 90.1 390.8 89.96 390.8 89.8Z" fill="#E0E0E0"/>
<path d="M383.79 89.8C383.79 89.63 384.58 89.49 385.54 89.49C386.5 89.49 387.29 89.63 387.29 89.8C387.29 89.97 386.51 90.1 385.54 90.1C384.57 90.1 383.79 89.96 383.79 89.8Z" fill="#E0E0E0"/>
<path d="M376.79 89.8C376.79 89.63 377.58 89.49 378.54 89.49C379.5 89.49 380.29 89.63 380.29 89.8C380.29 89.97 379.51 90.1 378.54 90.1C377.57 90.1 376.79 89.96 376.79 89.8Z" fill="#E0E0E0"/>
<path d="M369.79 89.8C369.79 89.63 370.57 89.49 371.54 89.49C372.51 89.49 373.29 89.63 373.29 89.8C373.29 89.97 372.51 90.1 371.54 90.1C370.57 90.1 369.79 89.96 369.79 89.8Z" fill="#E0E0E0"/>
<path d="M362.79 89.8C362.79 89.63 363.57 89.49 364.54 89.49C365.51 89.49 366.29 89.63 366.29 89.8C366.29 89.97 365.51 90.1 364.54 90.1C363.57 90.1 362.79 89.96 362.79 89.8Z" fill="#E0E0E0"/>
<path d="M355.79 89.8C355.79 89.63 356.57 89.49 357.54 89.49C358.51 89.49 359.29 89.63 359.29 89.8C359.29 89.97 358.5 90.1 357.54 90.1C356.58 90.1 355.79 89.96 355.79 89.8Z" fill="#E0E0E0"/>
<path d="M348.78 89.8C348.78 89.63 349.57 89.49 350.53 89.49C351.49 89.49 352.28 89.63 352.28 89.8C352.28 89.97 351.5 90.1 350.53 90.1C349.56 90.1 348.78 89.96 348.78 89.8Z" fill="#E0E0E0"/>
<path d="M341.78 89.8C341.78 89.63 342.57 89.49 343.53 89.49C344.49 89.49 345.28 89.63 345.28 89.8C345.28 89.97 344.5 90.1 343.53 90.1C342.56 90.1 341.78 89.96 341.78 89.8Z" fill="#E0E0E0"/>
<path d="M334.78 89.8C334.78 89.63 335.56 89.49 336.53 89.49C337.5 89.49 338.28 89.63 338.28 89.8C338.28 89.97 337.5 90.1 336.53 90.1C335.56 90.1 334.78 89.96 334.78 89.8Z" fill="#E0E0E0"/>
<path d="M329.79 87.78C329.96 87.78 330.09 88.57 330.09 89.53V89.8L329.79 89.5C330.63 89.5 331.28 89.64 331.28 89.8C331.28 89.96 330.63 90.08 329.79 90.1H329.49V89.52C329.49 88.57 329.62 87.78 329.79 87.78Z" fill="#E0E0E0"/>
<path d="M329.79 80.78C329.96 80.78 330.09 81.57 330.09 82.53C330.09 83.49 329.96 84.28 329.79 84.28C329.62 84.28 329.49 83.5 329.49 82.53C329.49 81.56 329.62 80.78 329.79 80.78Z" fill="#E0E0E0"/>
<path d="M329.79 73.78C329.96 73.78 330.09 74.56 330.09 75.53C330.09 76.5 329.96 77.28 329.79 77.28C329.62 77.28 329.49 76.5 329.49 75.53C329.49 74.56 329.62 73.78 329.79 73.78Z" fill="#E0E0E0"/>
<path d="M329.79 66.78C329.96 66.78 330.09 67.56 330.09 68.53C330.09 69.5 329.96 70.28 329.79 70.28C329.62 70.28 329.49 69.5 329.49 68.53C329.49 67.56 329.62 66.78 329.79 66.78Z" fill="#E0E0E0"/>
<path d="M329.79 59.78C329.96 59.78 330.09 60.56 330.09 61.53C330.09 62.5 329.96 63.28 329.79 63.28C329.62 63.28 329.49 62.49 329.49 61.53C329.49 60.57 329.62 59.78 329.79 59.78Z" fill="#E0E0E0"/>
<path d="M329.79 52.77C329.96 52.77 330.09 53.56 330.09 54.53C330.09 55.5 329.96 56.28 329.79 56.28C329.62 56.28 329.49 55.49 329.49 54.53C329.49 53.57 329.62 52.77 329.79 52.77Z" fill="#E0E0E0"/>
<path d="M329.79 45.77C329.96 45.77 330.09 46.56 330.09 47.52C330.09 48.48 329.96 49.27 329.79 49.27C329.62 49.27 329.49 48.49 329.49 47.52C329.49 46.55 329.62 45.77 329.79 45.77Z" fill="#E0E0E0"/>
<path d="M329.79 38.77C329.96 38.77 330.09 39.55 330.09 40.52C330.09 41.49 329.96 42.27 329.79 42.27C329.62 42.27 329.49 41.49 329.49 40.52C329.49 39.55 329.62 38.77 329.79 38.77Z" fill="#E0E0E0"/>
<path d="M329.79 31.77C329.96 31.77 330.09 32.55 330.09 33.52C330.09 34.49 329.96 35.27 329.79 35.27C329.62 35.27 329.49 34.49 329.49 33.52C329.49 32.55 329.62 31.77 329.79 31.77Z" fill="#E0E0E0"/>
<path d="M329.79 24.77C329.96 24.77 330.09 25.55 330.09 26.52C330.09 27.49 329.96 28.27 329.79 28.27C329.62 28.27 329.49 27.48 329.49 26.52C329.49 25.56 329.62 24.77 329.79 24.77Z" fill="#E0E0E0"/>
<path d="M329.79 17.77C329.96 17.77 330.09 18.55 330.09 19.52C330.09 20.49 329.96 21.27 329.79 21.27C329.62 21.27 329.49 20.48 329.49 19.52C329.49 18.56 329.62 17.77 329.79 17.77Z" fill="#E0E0E0"/>
<path d="M329.79 10.76C329.96 10.76 330.09 11.55 330.09 12.51C330.09 13.47 329.96 14.26 329.79 14.26C329.62 14.26 329.49 13.48 329.49 12.51C329.49 11.54 329.62 10.76 329.79 10.76Z" fill="#E0E0E0"/>
<path d="M330.32 4.29C330.32 4.37 330.12 4.45 329.79 4.5L330.01 4.29C330.067 4.69407 330.094 5.1019 330.09 5.51C330.09 6.51 329.96 7.26 329.79 7.26C329.62 7.26 329.49 6.48 329.49 5.51C329.486 5.1019 329.513 4.69407 329.57 4.29V4.04H329.74C330.09 4.12 330.32 4.21 330.32 4.29Z" fill="#E0E0E0"/>
<path d="M337.32 4.29C337.32 4.45 336.53 4.59 335.57 4.59C334.61 4.59 333.82 4.45 333.82 4.29C333.82 4.13 334.6 3.98 335.57 3.98C336.54 3.98 337.32 4.12 337.32 4.29Z" fill="#E0E0E0"/>
<path d="M344.32 4.29C344.32 4.45 343.54 4.59 342.57 4.59C341.6 4.59 340.82 4.45 340.82 4.29C340.82 4.13 341.6 3.98 342.57 3.98C343.54 3.98 344.32 4.12 344.32 4.29Z" fill="#E0E0E0"/>
<path d="M351.32 4.29C351.32 4.45 350.54 4.59 349.57 4.59C348.6 4.59 347.82 4.45 347.82 4.29C347.82 4.13 348.6 3.98 349.57 3.98C350.54 3.98 351.32 4.12 351.32 4.29Z" fill="#E0E0E0"/>
<path d="M358.32 4.29C358.32 4.45 357.54 4.59 356.57 4.59C355.6 4.59 354.82 4.45 354.82 4.29C354.82 4.13 355.61 3.98 356.57 3.98C357.53 3.98 358.32 4.12 358.32 4.29Z" fill="#E0E0E0"/>
<path d="M365.32 4.29C365.32 4.45 364.54 4.59 363.57 4.59C362.6 4.59 361.82 4.45 361.82 4.29C361.82 4.13 362.61 3.98 363.57 3.98C364.53 3.98 365.32 4.12 365.32 4.29Z" fill="#E0E0E0"/>
<path d="M372.33 4.29C372.33 4.45 371.54 4.59 370.58 4.59C369.62 4.59 368.83 4.45 368.83 4.29C368.83 4.13 369.61 3.98 370.58 3.98C371.55 3.98 372.33 4.12 372.33 4.29Z" fill="#E0E0E0"/>
<path d="M379.33 4.29C379.33 4.45 378.54 4.59 377.58 4.59C376.62 4.59 375.83 4.45 375.83 4.29C375.83 4.13 376.61 3.98 377.58 3.98C378.55 3.98 379.33 4.12 379.33 4.29Z" fill="#E0E0E0"/>
<path d="M386.33 4.29C386.33 4.45 385.55 4.59 384.58 4.59C383.61 4.59 382.83 4.45 382.83 4.29C382.83 4.13 383.61 3.98 384.58 3.98C385.55 3.98 386.33 4.12 386.33 4.29Z" fill="#E0E0E0"/>
<path d="M393.33 4.29C393.33 4.45 392.55 4.59 391.58 4.59C390.61 4.59 389.83 4.45 389.83 4.29C389.83 4.13 390.61 3.98 391.58 3.98C392.55 3.98 393.33 4.12 393.33 4.29Z" fill="#E0E0E0"/>
<path d="M400.33 4.29C400.33 4.45 399.55 4.59 398.58 4.59C397.61 4.59 396.83 4.45 396.83 4.29C396.83 4.13 397.62 3.98 398.58 3.98C399.54 3.98 400.33 4.12 400.33 4.29Z" fill="#E0E0E0"/>
<path d="M407.34 4.29C407.34 4.45 406.55 4.59 405.59 4.59C404.63 4.59 403.83 4.45 403.83 4.29C403.83 4.13 404.62 3.98 405.59 3.98C406.56 3.98 407.34 4.12 407.34 4.29Z" fill="#E0E0E0"/>
<path d="M414.34 4.29C414.34 4.45 413.55 4.59 412.59 4.59C411.63 4.59 410.84 4.45 410.84 4.29C410.84 4.13 411.62 3.98 412.59 3.98C413.56 3.98 414.34 4.12 414.34 4.29Z" fill="#E0E0E0"/>
<path d="M415.3 10.32C415.13 10.32 415 9.54 415 8.57C415 7.6 415.13 6.82 415.3 6.82C415.47 6.82 415.61 7.61 415.61 8.57C415.61 9.53 415.47 10.32 415.3 10.32Z" fill="#E0E0E0"/>
<path d="M415.3 17.33C415.13 17.33 415 16.54 415 15.58C415 14.62 415.13 13.83 415.3 13.83C415.47 13.83 415.61 14.61 415.61 15.58C415.61 16.55 415.47 17.33 415.3 17.33Z" fill="#E0E0E0"/>
<path d="M415.3 24.33C415.13 24.33 415 23.54 415 22.58C415 21.62 415.13 20.83 415.3 20.83C415.47 20.83 415.61 21.61 415.61 22.58C415.61 23.55 415.47 24.33 415.3 24.33Z" fill="#E0E0E0"/>
<path d="M415.3 31.33C415.13 31.33 415 30.55 415 29.58C415 28.61 415.13 27.83 415.3 27.83C415.47 27.83 415.61 28.61 415.61 29.58C415.61 30.55 415.47 31.33 415.3 31.33Z" fill="#E0E0E0"/>
<path d="M415.3 38.33C415.13 38.33 415 37.55 415 36.58C415 35.61 415.13 34.83 415.3 34.83C415.47 34.83 415.61 35.61 415.61 36.58C415.61 37.55 415.47 38.33 415.3 38.33Z" fill="#E0E0E0"/>
<path d="M415.3 45.33C415.13 45.33 415 44.55 415 43.58C415 42.61 415.13 41.83 415.3 41.83C415.47 41.83 415.61 42.62 415.61 43.58C415.61 44.54 415.47 45.33 415.3 45.33Z" fill="#E0E0E0"/>
<path d="M415.3 52.34C415.13 52.34 415 51.55 415 50.58C415 49.61 415.13 48.83 415.3 48.83C415.47 48.83 415.61 49.62 415.61 50.58C415.61 51.54 415.47 52.34 415.3 52.34Z" fill="#E0E0E0"/>
<path d="M415.3 59.34C415.13 59.34 415 58.55 415 57.59C415 56.63 415.13 55.84 415.3 55.84C415.47 55.84 415.61 56.62 415.61 57.59C415.61 58.56 415.47 59.34 415.3 59.34Z" fill="#E0E0E0"/>
<path d="M415.3 66.34C415.13 66.34 415 65.56 415 64.59C415 63.62 415.13 62.84 415.3 62.84C415.47 62.84 415.61 63.62 415.61 64.59C415.61 65.56 415.47 66.34 415.3 66.34Z" fill="#E0E0E0"/>
<path d="M415.3 73.34C415.13 73.34 415 72.56 415 71.59C415 70.62 415.13 69.84 415.3 69.84C415.47 69.84 415.61 70.62 415.61 71.59C415.61 72.56 415.47 73.34 415.3 73.34Z" fill="#E0E0E0"/>
<path d="M415.3 80.34C415.13 80.34 415 79.56 415 78.59C415 77.62 415.13 76.84 415.3 76.84C415.47 76.84 415.61 77.63 415.61 78.59C415.61 79.55 415.47 80.34 415.3 80.34Z" fill="#E0E0E0"/>
<path d="M415.3 87.34C415.13 87.34 415 86.56 415 85.59C415 84.62 415.13 83.84 415.3 83.84C415.47 83.84 415.61 84.63 415.61 85.59C415.61 86.55 415.47 87.34 415.3 87.34Z" fill="#E0E0E0"/>
<path d="M418.47 85.76H412.14V92.09H418.47V85.76Z" fill="#E0E0E0"/>
<path d="M332.95 86.63H326.62V92.96H332.95V86.63Z" fill="#E0E0E0"/>
<path d="M418.47 0.5H412.14V6.83H418.47V0.5Z" fill="#E0E0E0"/>
<path d="M332.95 1.12H326.62V7.45H332.95V1.12Z" fill="#E0E0E0"/>
<path d="M82.21 113.21C93.27 103.51 94.28 87.67 92.21 73.76C91.87 71.44 91.86 68.95 90.52 67.03C89.18 65.11 86.45 64.03 84.52 65.2C82.88 66.2 82.34 68.31 81.52 70.08C80.4707 72.4419 78.7756 74.4593 76.63 75.9C75.23 76.84 73.44 77.51 71.89 76.9C69.75 76.01 69.21 73.26 68.97 70.9L67.62 57.9C67.5011 55.5665 67.0082 53.2672 66.16 51.09C65.7285 50.0094 65.0436 49.0484 64.163 48.2879C63.2824 47.5273 62.2319 46.9896 61.1 46.72C58.83 46.35 56.24 47.92 56.02 50.24C56.0371 51.2116 56.124 52.1808 56.28 53.14C56.3473 53.6193 56.2711 54.1077 56.0611 54.5437C55.8511 54.9798 55.5167 55.3438 55.1 55.59C54.627 55.701 54.1333 55.6875 53.6671 55.5508C53.2009 55.4141 52.7781 55.1589 52.44 54.81C49.8805 52.5942 47.6986 49.9767 45.98 47.06C44.2627 44.1639 42.212 41.479 39.87 39.06C37.41 36.74 34.18 35.06 30.87 35.23C27.56 35.4 24.22 37.85 23.74 41.23C23.26 44.61 25.53 47.7 27.9 50.12C31.4142 53.7019 35.4253 56.7599 39.81 59.2C40.6429 59.5555 41.3427 60.1643 41.81 60.94C42.48 62.43 41.18 64.13 39.71 64.8C38.05 65.57 36.15 65.6 34.37 66.01C32.59 66.42 30.71 67.44 30.22 69.22C29.53 71.7 31.79 73.96 33.92 75.37C38.1989 78.2042 42.9352 80.278 47.92 81.5C49.7355 81.7697 51.4871 82.366 53.09 83.26C54.6 84.26 55.66 86.26 55.01 88.03C54.36 89.8 52.28 90.51 50.46 90.38C48.6562 90.0769 46.8826 89.6151 45.16 89C41.84 88.15 37.75 88.82 36.01 91.8C35.4932 92.8158 35.218 93.9372 35.2058 95.0768C35.1937 96.2164 35.445 97.3435 35.94 98.37C36.9506 100.414 38.3619 102.233 40.09 103.72C45.811 109.23 52.8922 113.122 60.61 115C68.28 116.75 75.21 116.69 82.26 113.19" fill="#E0E0E0"/>
<path d="M83.54 123.52C82.1735 117.116 80.1979 110.858 77.64 104.83C74.4825 97.4764 70.9032 90.3112 66.92 83.37L63.82 77.88C62.82 76.09 61.82 74.31 60.69 72.62C58.578 69.3949 56.2877 66.2901 53.83 63.32C51.5 60.47 49.19 57.85 47.01 55.41C44.83 52.97 42.75 50.75 40.77 48.8C37.6701 45.703 34.326 42.8604 30.77 40.3C29.51 39.39 28.51 38.72 27.83 38.3L27.05 37.8C26.9641 37.74 26.8739 37.6865 26.78 37.64L27.03 37.83L27.78 38.37C28.45 38.84 29.43 39.53 30.67 40.46C34.187 43.0711 37.503 45.9425 40.59 49.05C42.59 51.05 44.59 53.24 46.78 55.68C48.97 58.12 51.24 60.75 53.56 63.61C55.9987 66.5759 58.2722 69.6739 60.37 72.89C61.46 74.56 62.46 76.33 63.48 78.13L66.58 83.61C70.5496 90.5394 74.1318 97.6837 77.31 105.01C79.8851 111.013 81.8938 117.243 83.31 123.62" fill="#FAFAFA"/>
<path d="M60.57 72.62C60.6457 72.2919 60.6859 71.9567 60.69 71.62C60.74 70.96 60.78 70.01 60.82 68.84C60.89 66.5 60.88 63.25 60.82 59.68C60.76 56.11 60.82 52.87 60.94 50.53C60.94 49.36 61.04 48.42 61.08 47.76C61.1155 47.4276 61.1155 47.0924 61.08 46.76C60.9862 47.0864 60.9259 47.4214 60.9 47.76C60.8 48.41 60.7 49.35 60.62 50.52C60.43 52.86 60.34 56.11 60.37 59.69C60.4 63.27 60.43 66.41 60.45 68.85C60.45 69.95 60.45 70.85 60.45 71.62C60.4507 71.9569 60.491 72.2925 60.57 72.62Z" fill="#FAFAFA"/>
<path d="M30.14 70.34C30.5392 70.3767 30.9408 70.3767 31.34 70.34C32.12 70.34 33.23 70.34 34.62 70.34C37.38 70.34 41.2 70.46 45.4 70.78C49.6 71.1 53.4 71.57 56.14 71.98C57.51 72.18 58.61 72.37 59.37 72.49C59.7641 72.5807 60.1659 72.6342 60.57 72.65C60.1941 72.5075 59.8058 72.4003 59.41 72.33C58.65 72.15 57.55 71.92 56.18 71.68C53.45 71.19 49.65 70.68 45.43 70.35C41.8312 70.058 38.2198 69.9512 34.61 70.03C33.22 70.03 32.11 70.14 31.33 70.21C30.93 70.2128 30.5312 70.2564 30.14 70.34Z" fill="#FAFAFA"/>
<path d="M77.21 104.32C77.21 104.32 77.28 104.19 77.38 103.94C77.48 103.69 77.61 103.25 77.77 102.8C78.1 101.8 78.55 100.37 79.08 98.58C80.14 95.01 81.45 90.03 82.82 84.51C84.19 78.99 85.46 74 86.45 70.41C86.93 68.66 87.33 67.22 87.63 66.16C87.75 65.69 87.86 65.31 87.94 65C88.02 64.69 88.04 64.59 88.02 64.58C87.952 64.7035 87.8983 64.8343 87.86 64.97C87.75 65.28 87.62 65.65 87.47 66.11C87.13 67.11 86.69 68.53 86.16 70.32C85.09 73.9 83.78 78.88 82.41 84.4C81.04 89.92 79.77 94.91 78.79 98.5C78.3 100.25 77.9 101.68 77.61 102.75C77.48 103.21 77.38 103.6 77.29 103.91C77.2513 104.044 77.2246 104.181 77.21 104.32Z" fill="#FAFAFA"/>
<path d="M36.18 95.92C36.3089 95.9829 36.4475 96.0234 36.59 96.04L37.79 96.3L42.18 97.21C45.89 97.97 51 99.09 56.65 100.33C62.3 101.57 67.43 102.65 71.16 103.33C73.02 103.67 74.53 103.94 75.58 104.1L76.79 104.28C76.9293 104.3 77.0707 104.3 77.21 104.28C77.0769 104.229 76.9398 104.189 76.8 104.16L75.61 103.9L71.21 103C67.5 102.23 62.39 101.11 56.74 99.87C51.09 98.63 45.97 97.55 42.24 96.87C40.37 96.53 38.86 96.26 37.82 96.1L36.61 95.92C36.467 95.9065 36.323 95.9065 36.18 95.92Z" fill="#FAFAFA"/>
<path d="M310.792 393.523C359.432 344.884 359.432 266.023 310.792 217.383C262.152 168.743 183.292 168.743 134.652 217.383C86.0119 266.023 86.0119 344.884 134.652 393.523C183.292 442.163 262.152 442.163 310.792 393.523Z" fill="#E0E0E0"/>
<path d="M222.72 403.75C203.28 403.75 184.277 397.985 168.113 387.185C151.949 376.385 139.351 361.034 131.912 343.074C124.473 325.114 122.526 305.351 126.319 286.285C130.111 267.218 139.472 249.705 153.218 235.958C166.965 222.212 184.478 212.851 203.545 209.059C222.611 205.266 242.374 207.213 260.334 214.652C278.294 222.091 293.645 234.689 304.445 250.853C315.245 267.017 321.01 286.02 321.01 305.46C320.981 331.519 310.616 356.503 292.189 374.929C273.763 393.356 248.779 403.721 222.72 403.75ZM222.72 208.17C203.478 208.17 184.668 213.876 168.669 224.566C152.669 235.257 140.199 250.451 132.836 268.229C125.472 286.006 123.545 305.568 127.299 324.44C131.053 343.313 140.319 360.648 153.926 374.254C167.532 387.861 184.867 397.127 203.74 400.881C222.612 404.635 242.174 402.708 259.951 395.344C277.729 387.981 292.923 375.511 303.614 359.511C314.304 343.512 320.01 324.702 320.01 305.46C319.973 279.672 309.71 254.952 291.471 236.721C273.233 218.49 248.508 208.236 222.72 208.21V208.17Z" fill="#FAFAFA"/>
<path d="M222.72 419.43C200.173 419.43 178.132 412.744 159.385 400.218C140.638 387.691 126.026 369.887 117.398 349.056C108.769 328.225 106.512 305.304 110.911 283.19C115.309 261.076 126.167 240.763 142.11 224.82C158.053 208.877 178.366 198.019 200.48 193.621C222.594 189.222 245.515 191.479 266.346 200.108C287.177 208.736 304.981 223.348 317.508 242.095C330.034 260.842 336.72 282.883 336.72 305.43C336.694 335.657 324.674 364.638 303.301 386.011C281.928 407.384 252.947 419.404 222.72 419.43ZM222.72 192.49C200.371 192.49 178.523 199.117 159.941 211.534C141.358 223.951 126.874 241.599 118.322 262.247C109.769 282.895 107.531 305.615 111.891 327.535C116.251 349.455 127.014 369.59 142.817 385.393C158.62 401.196 178.755 411.959 200.675 416.319C222.595 420.679 245.315 418.441 265.963 409.888C286.611 401.336 304.26 386.852 316.676 368.269C329.093 349.687 335.72 327.839 335.72 305.49C335.694 275.529 323.78 246.802 302.594 225.616C281.408 204.43 252.681 192.517 222.72 192.49Z" fill="#FAFAFA"/>
<path d="M222.72 390.68C205.865 390.68 189.389 385.682 175.374 376.318C161.36 366.954 150.437 353.644 143.987 338.072C137.537 322.5 135.849 305.365 139.137 288.834C142.426 272.303 150.542 257.119 162.46 245.2C174.379 233.282 189.563 225.166 206.094 221.877C222.625 218.589 239.76 220.277 255.332 226.727C270.904 233.177 284.214 244.1 293.578 258.114C302.942 272.129 307.94 288.605 307.94 305.46C307.914 328.054 298.927 349.714 282.95 365.69C266.974 381.667 245.314 390.654 222.72 390.68ZM222.72 221.24C206.063 221.24 189.78 226.179 175.93 235.434C162.08 244.688 151.285 257.841 144.911 273.23C138.536 288.62 136.869 305.553 140.118 321.891C143.368 338.228 151.389 353.234 163.167 365.013C174.946 376.791 189.952 384.812 206.29 388.062C222.627 391.311 239.56 389.644 254.95 383.269C270.339 376.895 283.492 366.1 292.746 352.25C302.001 338.4 306.94 322.117 306.94 305.46C306.921 283.126 298.043 261.712 282.254 245.917C266.464 230.122 245.054 221.236 222.72 221.21V221.24Z" fill="#FAFAFA"/>
<path d="M222.72 377.33C208.505 377.33 194.61 373.115 182.791 365.218C170.972 357.321 161.76 346.096 156.321 332.963C150.881 319.831 149.458 305.38 152.231 291.439C155.004 277.497 161.849 264.691 171.9 254.64C181.951 244.589 194.757 237.744 208.699 234.971C222.64 232.198 237.091 233.621 250.223 239.061C263.356 244.5 274.581 253.712 282.478 265.531C290.375 277.35 294.59 291.245 294.59 305.46C294.556 324.511 286.973 342.771 273.502 356.242C260.031 369.713 241.771 377.296 222.72 377.33ZM222.72 234.59C208.703 234.59 195.001 238.746 183.347 246.534C171.692 254.321 162.609 265.389 157.245 278.339C151.881 291.289 150.477 305.539 153.212 319.286C155.946 333.033 162.696 345.661 172.607 355.573C182.519 365.484 195.147 372.234 208.894 374.968C222.641 377.703 236.891 376.299 249.841 370.935C262.791 365.571 273.859 356.488 281.646 344.833C289.434 333.179 293.59 319.477 293.59 305.46C293.569 286.671 286.095 268.657 272.809 255.371C259.523 242.085 241.509 234.611 222.72 234.59Z" fill="#FAFAFA"/>
<path d="M222.72 363.64C211.213 363.64 199.965 360.228 190.397 353.835C180.829 347.442 173.372 338.356 168.969 327.725C164.565 317.094 163.413 305.395 165.658 294.11C167.903 282.824 173.444 272.457 181.581 264.321C189.717 256.184 200.084 250.643 211.37 248.398C222.655 246.153 234.354 247.305 244.985 251.709C255.616 256.112 264.702 263.569 271.095 273.137C277.488 282.705 280.9 293.953 280.9 305.46C280.881 320.885 274.746 335.672 263.839 346.579C252.932 357.486 238.145 363.621 222.72 363.64ZM222.72 248.28C211.411 248.28 200.356 251.634 190.953 257.917C181.549 264.2 174.22 273.13 169.893 283.578C165.565 294.026 164.432 305.523 166.639 316.615C168.845 327.707 174.291 337.896 182.288 345.892C190.284 353.889 200.473 359.335 211.565 361.541C222.657 363.748 234.154 362.615 244.602 358.287C255.05 353.96 263.98 346.631 270.263 337.228C276.546 327.824 279.9 316.769 279.9 305.46C279.881 290.301 273.851 275.767 263.132 265.048C252.413 254.329 237.879 248.299 222.72 248.28Z" fill="#FAFAFA"/>
<path d="M222.72 351.32C213.65 351.32 204.783 348.63 197.242 343.591C189.7 338.552 183.822 331.39 180.351 323.01C176.88 314.63 175.972 305.409 177.741 296.513C179.511 287.617 183.878 279.446 190.292 273.032C196.706 266.618 204.877 262.251 213.773 260.481C222.669 258.712 231.89 259.62 240.27 263.091C248.65 266.562 255.812 272.44 260.851 279.982C265.89 287.523 268.58 296.39 268.58 305.46C268.564 317.618 263.727 329.273 255.13 337.87C246.533 346.467 234.878 351.304 222.72 351.32ZM222.72 260.6C213.848 260.6 205.174 263.231 197.797 268.16C190.42 273.09 184.67 280.096 181.275 288.293C177.879 296.49 176.991 305.51 178.722 314.212C180.453 322.914 184.725 330.907 190.999 337.181C197.273 343.455 205.266 347.727 213.968 349.458C222.67 351.189 231.69 350.301 239.887 346.905C248.084 343.51 255.09 337.76 260.02 330.383C264.949 323.006 267.58 314.332 267.58 305.46C267.567 293.566 262.836 282.164 254.426 273.754C246.016 265.344 234.614 260.613 222.72 260.6Z" fill="#FAFAFA"/>
<path d="M261.7 5.43H213.37V53.76H261.7V5.43Z" fill="#EBEBEB"/>
<path d="M274.395 259.497L165.645 267.109L174.006 386.549L282.756 378.937L274.395 259.497Z" fill="#263238"/>
<path d="M271.21 317.94L269.61 282.72L174.88 291.61L178.49 328.19L271.21 317.94Z" fill="#455A64"/>
<path d="M291.03 379.04L169.62 387.21C168.613 387.278 167.603 387.147 166.647 386.824C165.691 386.502 164.808 385.994 164.049 385.33C163.289 384.666 162.668 383.859 162.22 382.954C161.772 382.05 161.507 381.067 161.44 380.06C161.371 379.053 161.501 378.042 161.823 377.086C162.145 376.129 162.653 375.246 163.317 374.486C163.981 373.726 164.789 373.105 165.694 372.657C166.599 372.21 167.583 371.946 168.59 371.88L290 363.72C291.007 363.652 292.017 363.783 292.973 364.106C293.929 364.428 294.812 364.936 295.571 365.6C296.331 366.264 296.952 367.071 297.4 367.976C297.848 368.88 298.113 369.863 298.18 370.87C298.314 372.901 297.637 374.903 296.296 376.435C294.955 377.967 293.061 378.904 291.03 379.04Z" fill="#455A64"/>
<path d="M425.91 112.26H21.85V295.3H425.91V112.26Z" fill="#EBEBEB"/>
<path d="M21.85 295.3L32.29 300.74L415.91 300.38L425.92 295.3H21.85Z" fill="#E0E0E0"/>
<path d="M131.46 278.03L130.74 154.77H320.15V279.31L131.46 278.03Z" fill="#455A64"/>
<path d="M170.54 254.57C177.87 254.18 185.33 255.91 192.65 256.75L188.72 255.75C188.411 252.255 188.885 248.735 190.107 245.446C191.328 242.156 193.268 239.181 195.783 236.735C198.299 234.289 201.328 232.434 204.651 231.306C207.973 230.177 211.505 229.803 214.99 230.21C220.2 230.82 225.33 233.16 230.5 232.29C239.98 230.69 244.86 219.4 253.86 216.02C265.37 211.7 278.78 221.8 290.13 217.07C294.73 215.16 298.07 211.07 302.34 208.53C306 206.34 311.34 205.7 314.34 208.23V181.71C311.34 187.58 303.84 190.43 297.11 189.87C289.98 189.28 283.48 185.7 277.28 182.14C271.08 178.58 264.71 174.87 257.6 173.95C247.5 172.66 237.7 177.17 227.9 179.95C219.05 182.45 209.52 183.52 200.69 180.95L199.82 180.65C198.73 181.705 197.485 182.588 196.13 183.27C188.62 186.91 178.59 182.03 171.73 186.79C167.61 189.64 166.18 194.98 163.16 198.97C157.59 206.33 144.16 208.46 136.46 203.3V264.21V272.09H140.46C143.774 267.04 148.217 262.828 153.437 259.788C158.657 256.747 164.512 254.961 170.54 254.57ZM286.54 200.25C286.994 199.895 287.519 199.643 288.08 199.51L288.29 199.43H288.21C289.317 199.106 290.505 199.212 291.537 199.727C292.569 200.242 293.367 201.128 293.773 202.208C294.179 203.287 294.161 204.48 293.724 205.547C293.287 206.615 292.463 207.477 291.417 207.962C290.37 208.447 289.18 208.518 288.083 208.162C286.986 207.805 286.065 207.047 285.503 206.04C284.942 205.033 284.782 203.85 285.056 202.73C285.33 201.61 286.017 200.635 286.98 200L286.54 200.25Z" fill="#FAFAFA"/>
<path d="M314.38 208.21C311.3 205.68 306 206.32 302.38 208.51C298.11 211.08 294.77 215.14 290.17 217.05C278.82 221.78 265.41 211.68 253.9 216C244.9 219.38 240.02 230.67 230.54 232.27C225.37 233.14 220.24 230.8 215.03 230.19C211.546 229.783 208.015 230.157 204.693 231.285C201.372 232.413 198.343 234.267 195.828 236.712C193.312 239.156 191.372 242.131 190.15 245.419C188.927 248.707 188.453 252.226 188.76 255.72L192.69 256.72C198.4 257.38 204.03 257.5 209.45 255.67C225.07 250.39 233.58 230.49 249.96 228.6C259.05 227.55 268.12 232.6 277.13 231.07C284.45 229.83 290.27 224.52 296.31 220.22C302.35 215.92 308.19 211.96 314.93 214.43V208.64C314.73 208.51 314.56 208.35 314.38 208.21Z" fill="#90CAF9"/>
<path d="M296.27 220.21C290.27 224.51 284.41 229.82 277.09 231.06C268.09 232.6 259.01 227.54 249.92 228.59C233.54 230.48 225.03 250.38 209.41 255.66C203.99 257.49 198.41 257.37 192.65 256.71C185.33 255.87 177.87 254.14 170.54 254.53C164.526 254.933 158.687 256.725 153.481 259.765C148.276 262.805 143.846 267.01 140.54 272.05H144.54C148.479 268.054 153.468 265.253 158.93 263.97C162.945 263.021 167.115 262.934 171.166 263.715C175.217 264.496 179.056 266.127 182.43 268.5C183.96 269.6 185.43 270.86 186.86 272.1H216.68C218 271.35 219.32 270.61 220.68 269.93C226.08 267.19 232.25 265.28 238.18 266.54C241.799 267.239 245.042 269.225 247.31 272.13H279.23C279.741 271.065 280.461 270.115 281.348 269.335C282.234 268.555 283.269 267.961 284.39 267.59C286.8 266.85 289.58 267.13 291.63 265.68C294.03 264 294.48 260.68 295.46 257.95C298.17 250.28 306.92 245.32 314.9 246.82V214.46C308.15 211.99 302.21 216.02 296.27 220.21ZM268.09 265.8C263 268.3 256.04 265.49 254.09 260.17C252.58 255.97 254.49 250.98 258.09 248.42L257.29 248.79C258.187 248.096 259.204 247.574 260.29 247.25C260.617 247.124 260.951 247.017 261.29 246.93L261.11 247.01C265.19 246.13 269.89 247.72 272.16 251.29C275.16 256.08 273.14 263.3 268.09 265.8ZM303.5 229.58C302.879 229.927 302.146 230.014 301.462 229.821C300.777 229.628 300.197 229.171 299.85 228.55C299.503 227.929 299.416 227.196 299.609 226.512C299.802 225.827 300.259 225.247 300.88 224.9L300.61 225.03C300.887 224.813 301.208 224.66 301.55 224.58L301.68 224.53H301.63C302.262 224.398 302.92 224.496 303.486 224.807C304.051 225.119 304.486 225.622 304.713 226.227C304.939 226.831 304.941 227.497 304.718 228.103C304.496 228.709 304.064 229.215 303.5 229.53V229.58Z" fill="#90CAF9"/>
<path d="M295.45 258.05C294.45 260.82 294.02 264.1 291.62 265.78C289.62 267.23 286.79 266.95 284.38 267.69C283.259 268.061 282.224 268.655 281.338 269.435C280.451 270.215 279.731 271.165 279.22 272.23H314.89V246.92C306.91 245.42 298.16 250.38 295.45 258.05Z" fill="#90CAF9"/>
<path d="M158.94 264.01C153.478 265.293 148.489 268.094 144.55 272.09L186.87 272.14C185.42 270.9 183.97 269.64 182.44 268.54C179.066 266.167 175.227 264.536 171.176 263.755C167.125 262.974 162.955 263.061 158.94 264.01Z" fill="#90CAF9"/>
<path d="M238.17 266.61C232.24 265.35 226.07 267.26 220.67 270C219.33 270.68 218.01 271.42 216.67 272.17H247.28C245.012 269.28 241.777 267.306 238.17 266.61Z" fill="#90CAF9"/>
<path d="M225.81 168.78C220.48 169.17 214.81 168.26 210.05 170.78C205.8 172.99 203.22 177.49 199.75 180.78C200.04 180.88 200.33 180.99 200.63 181.07C209.46 183.63 218.99 182.55 227.84 180.07C237.64 177.31 247.43 172.79 257.54 174.07C264.64 174.98 271.02 178.69 277.22 182.26C283.42 185.83 289.91 189.39 297.05 189.98C303.77 190.54 311.24 187.69 314.27 181.82V159.91H237.72C237.34 165.15 231.09 168.38 225.81 168.78Z" fill="#90CAF9"/>
<path d="M285.17 205.21C285.457 206.026 285.975 206.74 286.661 207.266C287.347 207.792 288.172 208.107 289.034 208.172C289.896 208.237 290.759 208.049 291.516 207.632C292.273 207.215 292.893 206.586 293.298 205.822C293.704 205.058 293.878 204.193 293.8 203.332C293.722 202.471 293.394 201.651 292.858 200.973C292.321 200.295 291.599 199.788 290.779 199.514C289.959 199.24 289.076 199.211 288.24 199.43H288.32L288.11 199.51C287.549 199.643 287.024 199.895 286.57 200.25L287.01 200.04C286.195 200.595 285.577 201.395 285.246 202.325C284.915 203.254 284.889 204.264 285.17 205.21Z" fill="#90CAF9"/>
<path d="M261.09 247.01L261.27 246.93C260.931 247.017 260.597 247.124 260.27 247.25C259.184 247.574 258.167 248.096 257.27 248.79L258.07 248.42C254.5 250.98 252.59 255.97 254.07 260.17C255.99 265.49 262.95 268.3 268.07 265.8C273.19 263.3 275.17 256.08 272.14 251.29C269.86 247.72 265.16 246.13 261.09 247.01Z" fill="#90CAF9"/>
<g opacity="0.3">
<path d="M261.09 247.01L261.27 246.93C260.931 247.017 260.597 247.124 260.27 247.25C259.184 247.574 258.167 248.096 257.27 248.79L258.07 248.42C254.5 250.98 252.59 255.97 254.07 260.17C255.99 265.49 262.95 268.3 268.07 265.8C273.19 263.3 275.17 256.08 272.14 251.29C269.86 247.72 265.16 246.13 261.09 247.01Z" fill="white"/>
</g>
<path d="M304.56 225.7C304.235 225.228 303.774 224.865 303.238 224.66C302.703 224.455 302.118 224.416 301.56 224.55H301.61L301.48 224.6C301.138 224.68 300.817 224.833 300.54 225.05L300.81 224.92C300.362 225.208 300.009 225.622 299.797 226.11C299.584 226.599 299.521 227.139 299.616 227.663C299.711 228.187 299.959 228.671 300.33 229.054C300.7 229.437 301.176 229.701 301.696 229.813C302.217 229.926 302.759 229.881 303.254 229.685C303.749 229.488 304.175 229.15 304.477 228.711C304.78 228.273 304.945 227.755 304.953 227.222C304.96 226.69 304.81 226.167 304.52 225.72L304.56 225.7Z" fill="#90CAF9"/>
<path d="M163.2 198.97C166.2 194.97 167.65 189.64 171.77 186.79C178.63 182.03 188.66 186.91 196.17 183.27C197.525 182.588 198.77 181.705 199.86 180.65C203.33 177.4 205.86 172.9 210.15 170.65C214.89 168.18 220.59 169.1 225.92 168.7C231.25 168.3 237.34 165.11 237.72 159.83H136.15L136.29 203.13L136.5 203.26C144.22 208.46 157.63 206.33 163.2 198.97Z" fill="#90CAF9"/>
<g opacity="0.3">
<path d="M314.38 208.21C311.3 205.68 306 206.32 302.38 208.51C298.11 211.08 294.77 215.14 290.17 217.05C278.82 221.78 265.41 211.68 253.9 216C244.9 219.38 240.02 230.67 230.54 232.27C225.37 233.14 220.24 230.8 215.03 230.19C211.546 229.783 208.015 230.157 204.693 231.285C201.372 232.413 198.343 234.267 195.828 236.712C193.312 239.156 191.372 242.131 190.15 245.419C188.927 248.707 188.453 252.226 188.76 255.72L192.69 256.72C198.4 257.38 204.03 257.5 209.45 255.67C225.07 250.39 233.58 230.49 249.96 228.6C259.05 227.55 268.12 232.6 277.13 231.07C284.45 229.83 290.27 224.52 296.31 220.22C302.35 215.92 308.19 211.96 314.93 214.43V208.64C314.73 208.51 314.56 208.35 314.38 208.21Z" fill="white"/>
</g>
<g opacity="0.3">
<path d="M209.3 159.87H136.15L136.29 203.17L136.5 203.3C144.22 208.46 157.63 206.3 163.2 198.97C166.2 194.97 167.65 189.64 171.77 186.79C178.63 182.03 188.66 186.91 196.17 183.27C197.525 182.588 198.77 181.705 199.86 180.65C203.33 177.4 205.86 172.9 210.15 170.65C214.89 168.18 220.59 169.1 225.92 168.7C231.25 168.3 237.34 165.11 237.72 159.83" fill="white"/>
</g>
<path d="M265.38 212.35C265.05 211.08 262.69 201.88 258.38 184.98H258.46L180.09 204.97L180.17 204.84C182.59 214.38 184.93 223.62 187.17 232.23L187.05 232.16L265.44 212.35L187.1 232.35H187V232.25C184.81 223.64 182.46 214.4 180 204.86V204.76H180.1L258.46 184.89H258.53V184.96C262.74 201.86 265.09 211.07 265.38 212.35Z" fill="#263238"/>
<path d="M266.051 210.816L264.025 211.331L264.539 213.357L266.565 212.842L266.051 210.816Z" fill="#455A64"/>
<path d="M187.757 230.997L185.731 231.511L186.246 233.537L188.271 233.022L187.757 230.997Z" fill="#455A64"/>
<path d="M259.067 183.323L257.041 183.838L257.555 185.863L259.581 185.349L259.067 183.323Z" fill="#455A64"/>
<path d="M219.563 193.357L217.538 193.872L218.052 195.897L220.078 195.383L219.563 193.357Z" fill="#455A64"/>
<path d="M226.555 220.851L224.529 221.365L225.044 223.391L227.069 222.877L226.555 220.851Z" fill="#455A64"/>
<path d="M184.165 216.848L182.139 217.363L182.653 219.388L184.679 218.874L184.165 216.848Z" fill="#455A64"/>
<path d="M262.533 196.922L260.507 197.437L261.021 199.463L263.047 198.948L262.533 196.922Z" fill="#455A64"/>
<path d="M180.799 203.613L178.773 204.127L179.288 206.153L181.313 205.638L180.799 203.613Z" fill="#455A64"/>
<path d="M199.3 207.21L193.66 208.64L192.98 205.97L207.42 202.3L208.1 204.98L202.46 206.41L206.09 220.79L202.93 221.6L199.3 207.21Z" fill="#263238"/>
<path d="M223.26 210.56L213.09 213.15C213.535 214.037 214.29 214.73 215.211 215.098C216.132 215.467 217.156 215.485 218.09 215.15C218.749 215.011 219.371 214.734 219.916 214.338C220.46 213.941 220.915 213.434 221.25 212.85L223.36 214.31C222.881 215.195 222.212 215.962 221.401 216.557C220.59 217.152 219.658 217.559 218.67 217.75C214.32 218.85 210.79 216.75 209.8 212.91C209.55 212.034 209.482 211.115 209.601 210.211C209.72 209.307 210.023 208.438 210.492 207.656C210.96 206.874 211.585 206.197 212.326 205.666C213.067 205.135 213.909 204.762 214.8 204.57C215.672 204.31 216.589 204.236 217.491 204.352C218.394 204.467 219.262 204.77 220.041 205.241C220.82 205.711 221.491 206.34 222.013 207.085C222.535 207.831 222.895 208.677 223.07 209.57C223.14 209.89 223.21 210.26 223.26 210.56ZM212.53 211.14L219.9 209.27C219.58 208.398 218.939 207.682 218.108 207.267C217.277 206.853 216.319 206.771 215.43 207.04C214.521 207.235 213.718 207.765 213.181 208.525C212.644 209.284 212.411 210.217 212.53 211.14Z" fill="#263238"/>
<path d="M235.53 213.32L231.09 209.67L228.87 215.02L225.52 215.87L228.9 208L222.44 202.83L225.82 201.97L230.09 205.42L232.19 200.35L235.47 199.52L232.22 207.1L238.99 212.45L235.53 213.32Z" fill="#263238"/>
<path d="M248.82 209.21C248.111 210.029 247.151 210.591 246.09 210.81C243.25 211.53 241.23 210.44 240.5 207.57L238.92 201.32L236.78 201.86L236.16 199.43L238.3 198.89L237.55 195.89L240.55 195.12L241.3 198.12L244.78 197.23L245.39 199.66L241.92 200.55L243.49 206.72C243.512 206.983 243.594 207.237 243.729 207.463C243.864 207.689 244.05 207.882 244.27 208.025C244.491 208.169 244.742 208.26 245.004 208.292C245.265 208.324 245.531 208.296 245.78 208.21C246.4 208.068 246.952 207.714 247.34 207.21L248.82 209.21Z" fill="#263238"/>
<path d="M263.8 206.15C263.8 206.2 246.28 210.71 224.65 216.2C203.02 221.69 185.45 226.11 185.44 226.05C185.43 225.99 202.95 221.5 224.59 216.05C246.23 210.6 263.78 206.09 263.8 206.15Z" fill="#263238"/>
<path d="M427.29 206.81C427.868 206.479 428.397 206.068 428.86 205.59C430.118 204.131 430.807 202.266 430.8 200.34C430.846 198.964 430.576 197.595 430.01 196.34C429.312 194.858 428.205 193.605 426.82 192.73C425.101 191.709 423.159 191.123 421.162 191.022C419.165 190.921 417.174 191.308 415.36 192.15C411.2 193.81 407.48 197.15 403.36 200.41C401.256 202.169 398.954 203.676 396.5 204.9C393.837 206.122 390.949 206.776 388.02 206.82C384.877 206.839 381.764 206.199 378.884 204.94C376.004 203.68 373.42 201.831 371.3 199.51C369.044 197.05 367.435 194.067 366.62 190.83C365.694 187.474 366.106 183.888 367.77 180.83C368.642 179.315 369.862 178.029 371.33 177.08C372.777 176.103 374.495 175.606 376.24 175.66C377.965 175.791 379.587 176.536 380.81 177.76C381.976 178.968 382.813 180.456 383.24 182.08C384.156 185.22 383.797 188.594 382.24 191.47C380.628 194.142 378.113 196.15 375.15 197.13C372.366 198.08 369.386 198.307 366.49 197.79C363.789 197.276 361.178 196.37 358.74 195.1C354 192.72 350.04 189.78 346.17 187.53C342.779 185.366 339.015 183.854 335.07 183.07C332.073 182.556 328.993 182.867 326.16 183.97C324.369 184.662 322.751 185.737 321.42 187.12L320.84 187.77C320.69 187.96 320.57 188.13 320.46 188.26L320.14 188.66C320.225 188.511 320.318 188.368 320.42 188.23L320.78 187.72L321.35 187.05C322.661 185.618 324.277 184.5 326.08 183.78C328.933 182.634 332.045 182.288 335.08 182.78C339.088 183.536 342.917 185.039 346.37 187.21C350.26 189.45 354.24 192.37 358.94 194.72C361.345 195.954 363.914 196.837 366.57 197.34C369.391 197.834 372.29 197.606 375 196.68C377.851 195.73 380.269 193.794 381.82 191.22C383.308 188.462 383.649 185.228 382.77 182.22C382.359 180.682 381.568 179.272 380.47 178.12C379.333 176.989 377.829 176.302 376.23 176.18C374.594 176.133 372.985 176.602 371.63 177.52C370.236 178.428 369.075 179.651 368.24 181.09C366.648 184.035 366.254 187.481 367.14 190.71C367.934 193.862 369.502 196.766 371.7 199.16C373.774 201.442 376.305 203.261 379.129 204.498C381.954 205.735 385.007 206.363 388.09 206.34C390.951 206.298 393.773 205.668 396.38 204.49C398.804 203.279 401.082 201.796 403.17 200.07C407.25 196.8 411.02 193.47 415.27 191.8C419.52 190.13 424.02 190.44 427.03 192.48C428.447 193.399 429.577 194.699 430.29 196.23C430.856 197.527 431.116 198.937 431.05 200.35C431.035 202.314 430.299 204.204 428.98 205.66C428.784 205.879 428.562 206.073 428.32 206.24C428.161 206.378 427.982 206.493 427.79 206.58L427.29 206.81Z" fill="#263238"/>
<g opacity="0.3">
<path d="M295.45 258.05C294.45 260.82 294.02 264.1 291.62 265.78C289.62 267.23 286.79 266.95 284.38 267.69C283.259 268.061 282.224 268.655 281.338 269.435C280.451 270.215 279.731 271.165 279.22 272.23H314.89V246.92C306.91 245.42 298.16 250.38 295.45 258.05Z" fill="black"/>
</g>
<g opacity="0.3">
<path d="M304.56 225.7C304.235 225.228 303.774 224.865 303.238 224.66C302.703 224.455 302.118 224.416 301.56 224.55H301.61L301.48 224.6C301.138 224.68 300.817 224.833 300.54 225.05L300.81 224.92C300.362 225.208 300.009 225.622 299.797 226.11C299.584 226.599 299.521 227.139 299.616 227.663C299.711 228.187 299.959 228.671 300.33 229.054C300.7 229.437 301.176 229.701 301.696 229.813C302.217 229.926 302.759 229.881 303.254 229.685C303.749 229.488 304.175 229.15 304.477 228.711C304.78 228.273 304.945 227.755 304.953 227.222C304.96 226.69 304.81 226.167 304.52 225.72L304.56 225.7Z" fill="black"/>
</g>
<g opacity="0.3">
<path d="M158.94 264.01C153.478 265.293 148.489 268.094 144.55 272.09L186.87 272.14C185.42 270.9 183.97 269.64 182.44 268.54C179.066 266.167 175.227 264.536 171.176 263.755C167.125 262.974 162.955 263.061 158.94 264.01Z" fill="black"/>
</g>
<g opacity="0.3">
<path d="M238.17 266.61C232.24 265.35 226.07 267.26 220.67 270C219.33 270.68 218.01 271.42 216.67 272.17H247.28C245.012 269.28 241.777 267.306 238.17 266.61Z" fill="black"/>
</g>
<path d="M182.46 321.09C185.21 316.16 191.55 314.43 197.2 314.62C202.85 314.81 208.41 316.44 214.09 316.21C226.98 315.6 238.16 305.32 251.09 305.69C258.84 305.91 266.41 310.02 274.02 308.59C275.87 308.24 278.02 307.66 279.4 308.96C279.894 309.551 280.174 310.291 280.194 311.061C280.214 311.831 279.973 312.585 279.51 313.2C278.548 314.409 277.296 315.355 275.87 315.95C256.18 325.95 233.38 326.87 211.48 329.62C205.88 330.32 200.18 331.15 194.62 330.17C189.06 329.19 183.54 326.04 181.3 320.86" fill="#90CAF9"/>
<g opacity="0.5">
<path d="M182.46 321.09C185.21 316.16 191.55 314.43 197.2 314.62C202.85 314.81 208.41 316.44 214.09 316.21C226.98 315.6 238.16 305.32 251.09 305.69C258.84 305.91 266.41 310.02 274.02 308.59C275.87 308.24 278.02 307.66 279.4 308.96C279.894 309.551 280.174 310.291 280.194 311.061C280.214 311.831 279.973 312.585 279.51 313.2C278.548 314.409 277.296 315.355 275.87 315.95C256.18 325.95 233.38 326.87 211.48 329.62C205.88 330.32 200.18 331.15 194.62 330.17C189.06 329.19 183.54 326.04 181.3 320.86" fill="black"/>
</g>
<path d="M338.23 289.03L302.53 226.03L299.62 220.4C298.96 219.125 297.988 218.038 296.793 217.243C295.598 216.447 294.221 215.967 292.79 215.85L287.03 215.38C287.03 215.38 287.45 208.7 284.33 209.22C282.33 209.57 275.05 215.81 276.46 217.65C277.87 219.49 282 214.75 282 214.75L283.58 226.43C283.58 226.43 272.63 220.06 270.86 220.43C270.506 220.481 270.178 220.645 269.925 220.898C269.672 221.151 269.509 221.48 269.459 221.834C269.409 222.189 269.476 222.55 269.65 222.863C269.823 223.176 270.093 223.424 270.42 223.57C275.887 226.68 280.273 231.387 282.99 237.06L308.29 293.54L299.64 300.45L309.91 327.3L331.54 312.5C333.569 311.448 335.362 309.993 336.808 308.223C338.254 306.453 339.323 304.407 339.95 302.209C340.576 300.011 340.747 297.708 340.451 295.442C340.155 293.175 339.4 290.994 338.23 289.03Z" fill="#FFBE9D"/>
<path d="M265.837 214.601L264.79 214.055L264.693 214.242L265.74 214.787L265.837 214.601Z" fill="#263238"/>
<path d="M265.7 214.4L270.19 214.53L295.73 228.58C296.174 228.823 296.504 229.232 296.648 229.717C296.792 230.202 296.739 230.724 296.5 231.17C296.258 231.621 295.848 231.957 295.358 232.105C294.869 232.253 294.341 232.201 293.89 231.96L268.55 218.42L265.46 214.91C265.422 214.865 265.397 214.809 265.39 214.75C265.382 214.692 265.391 214.632 265.416 214.578C265.442 214.524 265.482 214.479 265.532 214.447C265.582 214.416 265.641 214.399 265.7 214.4Z" fill="#263238"/>
<path d="M293.18 227.17L291.37 230.65L290.33 230.11L292.15 226.61L293.18 227.17Z" fill="#455A64"/>
<path d="M190.54 228.45C188.74 228.27 181.97 234.31 181.97 234.31L178.62 222.21C178.62 222.21 183.11 222.61 184.32 220.63C185.53 218.65 173.32 218.84 173.07 220.18C172.82 221.52 173.77 225.18 173.77 225.18L169.16 226.07C167.271 226.435 165.548 227.391 164.239 228.801C162.93 230.21 162.104 232 161.88 233.91L161.13 240.35L161.26 240.41L125.58 300.01C122.833 304.598 121.79 310.008 122.633 315.288C123.476 320.569 126.151 325.385 130.19 328.89L165.93 354.28L179.27 325.21L152.85 307.85L183.09 249.47C183.09 249.47 189.91 232.37 191.3 231.53C191.611 231.352 191.855 231.077 191.996 230.747C192.137 230.418 192.167 230.052 192.081 229.704C191.995 229.356 191.798 229.045 191.52 228.819C191.242 228.593 190.898 228.463 190.54 228.45Z" fill="#FFBE9D"/>
<path d="M315.32 328.98L314.9 324.83C314.657 322.398 313.923 320.04 312.742 317.9C311.561 315.76 309.958 313.882 308.03 312.38C305.783 310.621 303.984 308.357 302.778 305.771C301.572 303.185 300.994 300.351 301.09 297.5L301.15 295.78L282.88 307C280.938 308.311 279.117 309.794 277.44 311.43V311.34C277.44 311.34 238.44 311.98 181.77 320.26L160.31 312.5L162.16 313.95C163.16 319.65 161.28 324.69 157.27 328.87C155.584 330.636 154.273 332.725 153.414 335.01C152.554 337.295 152.165 339.731 152.27 342.17L152.45 346.34C152.45 346.34 165.26 354.69 174.58 357.83L174.93 357.93C190.568 364.883 207.6 368.138 224.7 367.44C259.57 366.02 288.23 347.44 291.99 344.92C300.74 340.34 315.32 328.98 315.32 328.98Z" fill="#90CAF9"/>
<path d="M181.72 320.26C181.861 320.341 181.989 320.442 182.1 320.56C182.35 320.77 182.69 321.09 183.1 321.51C184.307 322.711 185.402 324.02 186.37 325.42C187.808 327.514 188.905 329.823 189.62 332.26C190.548 335.247 190.811 338.401 190.39 341.5C190.155 343.104 189.683 344.664 188.99 346.13C188.322 347.475 187.55 348.766 186.68 349.99C185.259 352.101 183.45 353.923 181.35 355.36C179.924 356.307 178.368 357.042 176.73 357.54C176.29 357.68 175.843 357.797 175.39 357.89C175.236 357.942 175.073 357.966 174.91 357.96C174.91 357.91 175.54 357.76 176.66 357.35C178.249 356.789 179.755 356.019 181.14 355.06C183.168 353.605 184.913 351.792 186.29 349.71C187.13 348.501 187.879 347.23 188.53 345.91C189.193 344.486 189.648 342.974 189.88 341.42C190.282 338.403 190.036 335.335 189.16 332.42C188.48 330.018 187.434 327.734 186.06 325.65C185.129 324.238 184.089 322.901 182.95 321.65C182.516 321.208 182.106 320.744 181.72 320.26Z" fill="#263238"/>
<g opacity="0.2">
<path d="M281.34 351.1C284.17 349.1 282.76 344.97 279.63 343.49C276.5 342.01 272.78 342.9 269.48 343.98C258.83 347.46 248.76 352.56 238.12 356.09C227.48 359.62 215.85 361.5 205.12 358.34C197.63 356.15 192.59 351.22 184.84 352.1C181.31 352.5 180.21 356.99 174.98 358.1C182.509 361.39 190.371 363.858 198.43 365.46C208.056 367.385 217.899 368 227.69 367.29C237.74 366.463 247.66 364.47 257.25 361.35C265.568 358.653 273.629 355.223 281.34 351.1Z" fill="black"/>
</g>
<g opacity="0.2">
<path d="M190.17 334.94C190.17 334.94 191.1 325.47 185.38 319.73L181.57 320.31C181.57 320.31 186.59 323.92 190.17 334.94Z" fill="black"/>
</g>
<path d="M208.32 309.77C208.12 310.29 210.25 332.21 210.25 332.21C210.25 332.21 221.36 347.71 238.83 332.62L240.94 308.72L208.32 309.77Z" fill="#FFBE9D"/>
<g opacity="0.2">
<path d="M210.25 332.21C210.25 332.21 205.1 323.66 203.67 317.29L207.9 316.78L208.9 317.97L210.25 332.21Z" fill="black"/>
</g>
<path d="M302.03 338.41C301.899 338.527 301.755 338.628 301.6 338.71C301.31 338.89 300.88 339.15 300.31 339.45C298.702 340.345 296.979 341.018 295.19 341.45C293.945 341.738 292.665 341.839 291.39 341.75C289.929 341.623 288.489 341.321 287.1 340.85C283.909 339.737 281.073 337.79 278.89 335.21C277.748 333.894 276.805 332.419 276.09 330.83C275.452 329.354 274.934 327.829 274.54 326.27C273.804 323.633 273.597 320.877 273.93 318.16C274.178 316.328 274.834 314.575 275.85 313.03C276.123 312.612 276.431 312.217 276.77 311.85C277 311.6 277.12 311.47 277.14 311.49C277.059 311.643 276.962 311.787 276.85 311.92C276.546 312.307 276.268 312.715 276.02 313.14C275.092 314.689 274.503 316.417 274.29 318.21C274.021 320.878 274.261 323.572 275 326.15C275.405 327.678 275.927 329.172 276.56 330.62C277.258 332.16 278.174 333.591 279.28 334.87C283.84 340.19 290.71 342.11 295.12 341.04C296.887 340.649 298.6 340.045 300.22 339.24C301.38 338.72 302.01 338.37 302.03 338.41Z" fill="#263238"/>
<path d="M277.09 332.88L276.9 333.01L276.3 333.34L273.96 334.6C272.96 335.15 271.7 335.81 270.21 336.48C268.72 337.15 267.06 338.02 265.14 338.77C263.22 339.52 261.14 340.44 258.86 341.22C256.58 342 254.11 342.83 251.5 343.63C245.813 345.263 240.024 346.516 234.17 347.38C228.31 348.178 222.404 348.602 216.49 348.65H212.49C211.2 348.65 209.95 348.54 208.74 348.5C206.32 348.41 204.07 348.18 202.02 347.99C199.97 347.8 198.12 347.52 196.5 347.32C194.88 347.12 193.5 346.87 192.35 346.66L189.74 346.18L189.07 346.04C188.99 346.034 188.913 346.014 188.84 345.98H189.09L189.77 346.07L192.39 346.45C193.53 346.63 194.92 346.85 196.54 347.02C198.16 347.19 200.01 347.48 202.06 347.61C204.11 347.74 206.35 347.99 208.77 348.05C209.98 348.05 211.22 348.19 212.51 348.19H216.51C222.405 348.118 228.289 347.681 234.13 346.88C239.962 346.026 245.734 344.8 251.41 343.21C254.01 342.43 256.49 341.7 258.75 340.85C261.01 340 263.13 339.23 265.03 338.47C266.93 337.71 268.62 336.91 270.12 336.26C271.62 335.61 272.88 334.98 273.91 334.46L276.29 333.21L276.91 332.92L277.09 332.88Z" fill="#263238"/>
<g opacity="0.2">
<path d="M220.09 338.34C219.679 339.409 219.537 340.562 219.676 341.698C219.814 342.834 220.229 343.919 220.885 344.858C221.54 345.797 222.416 346.56 223.435 347.082C224.454 347.604 225.585 347.867 226.73 347.85C227.758 347.69 228.806 347.728 229.82 347.96C230.99 348.42 231.64 349.63 232.41 350.62C233.57 352.115 235.162 353.217 236.969 353.778C238.776 354.339 240.712 354.332 242.515 353.757C244.318 353.182 245.901 352.068 247.05 350.564C248.199 349.061 248.859 347.241 248.94 345.35C248.877 344.649 249.046 343.946 249.42 343.35C250.42 342.19 252.22 343.35 253.58 344.02C257.03 345.82 261.67 344.02 263.58 340.63C265.49 337.24 264.89 332.8 262.7 329.58C260.363 326.426 257.03 324.153 253.24 323.13C250.85 322.4 248.24 321.96 246.37 320.3C243.68 317.91 243.43 313.87 243.37 310.3" fill="black"/>
</g>
<path d="M248.51 270.33C250.96 275.69 252.23 278.78 252.6 284.5C253.415 294.308 250.819 304.096 245.25 312.21C245.25 312.14 245.25 312.27 245.25 312.21C241.09 318.55 228.63 326.45 224.94 327.52C221.25 328.59 206.58 319.45 203.61 309.18C200.64 298.91 196.84 292.67 201.89 274.71C207.06 256.31 231.89 255.66 231.89 255.66C231.89 255.66 248.54 255.66 251.59 265.32C254.64 274.98 248.51 270.33 248.51 270.33Z" fill="#263238"/>
<path d="M222.29 290.94C220.234 291.142 218.267 291.877 216.582 293.071C214.896 294.266 213.552 295.879 212.681 297.752C211.809 299.625 211.441 301.692 211.613 303.751C211.785 305.809 212.49 307.787 213.66 309.49C215.71 312.49 219.1 314.49 220.66 317.76C222.12 320.76 221.82 324.29 221.12 327.55C220.42 330.81 219.36 334.03 219.41 337.36C219.46 340.69 220.91 344.27 223.92 345.69C226.93 347.11 231.34 345.11 231.35 341.78C230.35 347.05 236.42 352.23 241.46 350.39C246.5 348.55 247.82 340.67 243.65 337.29C247.34 338.16 251.47 338.15 254.65 336.06C257.83 333.97 259.41 329.32 257.26 326.21C254.71 322.52 248.91 322.85 245.69 319.73C243.04 317.14 242.89 313.01 242.69 309.32C242.41 303.99 241.62 298.53 238.9 293.95C236.18 289.37 231.17 285.82 225.9 286.19" fill="#263238"/>
<path d="M231.86 341.56C231.673 341.501 231.495 341.417 231.33 341.31C231.116 341.209 230.912 341.089 230.72 340.95C230.444 340.779 230.183 340.585 229.94 340.37C228.351 339.036 227.135 337.314 226.41 335.37C225.895 334.033 225.559 332.635 225.41 331.21C225.261 329.573 225.315 327.924 225.57 326.3C226.243 322.618 227.323 319.023 228.79 315.58C230.245 312.173 231.315 308.614 231.98 304.97C232.235 303.386 232.289 301.777 232.14 300.18C231.989 298.785 231.653 297.416 231.14 296.11C230.445 294.186 229.28 292.468 227.75 291.11C226.65 290.19 225.91 289.86 225.94 289.81C226.126 289.862 226.305 289.94 226.47 290.04C226.686 290.143 226.894 290.263 227.09 290.4C227.37 290.562 227.634 290.75 227.88 290.96C229.497 292.283 230.739 294.007 231.48 295.96C232.022 297.288 232.378 298.685 232.54 300.11C232.707 301.745 232.67 303.394 232.43 305.02C231.783 308.706 230.716 312.306 229.25 315.75C227.797 319.158 226.71 322.712 226.01 326.35C225.752 327.936 225.685 329.548 225.81 331.15C225.94 332.541 226.249 333.909 226.73 335.22C227.408 337.132 228.544 338.849 230.04 340.22C231.15 341.21 231.89 341.51 231.86 341.56Z" fill="#FAFAFA"/>
<path d="M246.89 337.56C246.691 337.637 246.482 337.684 246.27 337.7C245.667 337.786 245.058 337.816 244.45 337.79C242.182 337.676 240.008 336.846 238.24 335.42C236.942 334.342 235.912 332.977 235.234 331.432C234.555 329.887 234.246 328.205 234.33 326.52C234.5 324.553 234.972 322.623 235.73 320.8C236.44 318.89 237.27 316.97 237.81 314.92C238.892 311.055 239.057 306.99 238.29 303.05C237.651 299.836 236.245 296.823 234.19 294.27C232.799 292.533 231.105 291.063 229.19 289.93C227.85 289.13 227.03 288.83 227.05 288.78C227.257 288.822 227.459 288.89 227.65 288.98C228.215 289.199 228.763 289.46 229.29 289.76C231.259 290.844 233.004 292.293 234.43 294.03C236.562 296.61 238.031 299.672 238.71 302.95C239.522 306.962 239.368 311.11 238.26 315.05C237.667 317.064 236.963 319.044 236.15 320.98C235.409 322.753 234.94 324.627 234.76 326.54C234.667 328.159 234.95 329.778 235.587 331.27C236.224 332.762 237.197 334.086 238.43 335.14C240.133 336.549 242.227 337.4 244.43 337.58C245.25 337.629 246.071 337.622 246.89 337.56Z" fill="#455A64"/>
<path d="M231.78 287.29C231.232 286.786 230.643 286.328 230.02 285.92C229.268 285.458 228.42 285.174 227.542 285.088C226.663 285.003 225.777 285.119 224.95 285.427C224.123 285.736 223.377 286.229 222.768 286.869C222.16 287.508 221.706 288.278 221.44 289.12C221.235 289.834 221.087 290.563 221 291.3C221 291.3 220.91 291.09 220.88 290.69C220.858 290.122 220.929 289.555 221.09 289.01C221.332 288.087 221.792 287.235 222.432 286.527C223.072 285.819 223.873 285.276 224.767 284.942C225.662 284.609 226.623 284.496 227.57 284.612C228.517 284.728 229.423 285.07 230.21 285.61C230.69 285.918 231.115 286.304 231.47 286.75C231.71 287.07 231.8 287.27 231.78 287.29Z" fill="#90CAF9"/>
<path d="M222.26 328.09C222.26 328.09 222.12 328.01 221.9 327.82C221.571 327.53 221.257 327.223 220.96 326.9C219.876 325.722 218.961 324.399 218.24 322.97C217.143 320.834 216.535 318.48 216.46 316.08C216.429 314.647 216.73 313.227 217.34 311.93C218.074 310.6 218.99 309.378 220.06 308.3C221.093 307.268 221.894 306.027 222.41 304.66C222.761 303.342 222.713 301.95 222.27 300.66C221.53 298.16 220.21 296.04 219.97 293.97C219.622 292.363 219.916 290.683 220.79 289.29C221.058 288.924 221.398 288.618 221.79 288.39C222.06 288.24 222.2 288.17 222.21 288.19C221.745 288.527 221.337 288.935 221 289.4C220.242 290.775 220.021 292.382 220.38 293.91C220.65 295.91 221.98 297.91 222.78 300.52C223.254 301.889 223.313 303.367 222.95 304.77C222.42 306.212 221.585 307.522 220.5 308.61C219.464 309.658 218.569 310.839 217.84 312.12C217.26 313.348 216.969 314.692 216.99 316.05C217.042 318.381 217.598 320.674 218.62 322.77C219.297 324.206 220.154 325.55 221.17 326.77C221.84 327.63 222.29 328.06 222.26 328.09Z" fill="#455A64"/>
<path d="M243.43 317.85C243.403 317.373 243.424 316.894 243.49 316.42C243.56 315.5 243.65 314.18 243.69 312.54C243.884 308.281 243.277 304.024 241.9 299.99C240.466 295.963 237.831 292.472 234.35 289.99C232.871 289.029 231.279 288.253 229.61 287.68C229.61 287.68 229.74 287.68 229.98 287.73C230.319 287.797 230.653 287.887 230.98 288C232.231 288.4 233.422 288.969 234.52 289.69C238.147 292.131 240.895 295.671 242.36 299.79C243.784 303.885 244.372 308.224 244.09 312.55C244 314.2 243.86 315.55 243.72 316.44C243.666 316.918 243.569 317.39 243.43 317.85Z" fill="#455A64"/>
<path d="M234.34 289.65C234.267 288.868 234.267 288.082 234.34 287.3C234.48 285.447 234.196 283.587 233.51 281.86C233.141 281.023 232.591 280.279 231.899 279.681C231.207 279.082 230.391 278.645 229.51 278.4C228.756 278.238 227.99 278.134 227.22 278.09C227.991 277.837 228.819 277.819 229.6 278.04C230.561 278.255 231.459 278.692 232.219 279.318C232.98 279.943 233.583 280.739 233.98 281.64C234.7 283.441 234.948 285.396 234.7 287.32C234.689 288.11 234.568 288.894 234.34 289.65Z" fill="#455A64"/>
<path d="M235.96 271.06C235.487 270.924 235.025 270.751 234.58 270.54C233.49 270.159 232.332 270.009 231.18 270.1C230.028 270.195 228.909 270.536 227.9 271.1C227.499 271.38 227.078 271.631 226.64 271.85C226.59 271.85 226.94 271.33 227.7 270.79C228.714 270.081 229.897 269.653 231.13 269.55C232.36 269.441 233.598 269.655 234.72 270.17C235.57 270.61 236 271.02 235.96 271.06Z" fill="#F5F5F5"/>
<path d="M248.02 271.02C247.23 270.112 246.374 269.263 245.46 268.48C243.207 266.64 240.378 265.652 237.469 265.689C234.56 265.725 231.757 266.784 229.55 268.68C228.652 269.483 227.82 270.355 227.06 271.29C227.167 270.979 227.326 270.688 227.53 270.43C228.04 269.693 228.637 269.022 229.31 268.43C231.54 266.389 234.442 265.239 237.465 265.2C240.488 265.162 243.419 266.237 245.7 268.22C246.386 268.81 246.997 269.482 247.52 270.22C247.725 270.461 247.894 270.73 248.02 271.02Z" fill="#455A64"/>
<path d="M242.38 256.97C242.38 257.07 241.09 257.14 239.12 257.73C236.542 258.489 234.175 259.836 232.205 261.665C230.236 263.494 228.717 265.755 227.77 268.27C227.03 270.2 226.86 271.49 226.77 271.47C226.737 271.165 226.757 270.858 226.83 270.56C226.955 269.741 227.153 268.934 227.42 268.15C228.301 265.529 229.824 263.171 231.85 261.289C233.876 259.408 236.341 258.064 239.02 257.38C239.823 257.168 240.643 257.027 241.47 256.96C241.772 256.914 242.079 256.917 242.38 256.97Z" fill="#F5F5F5"/>
<path d="M226.71 256.86C226.78 256.92 226.16 257.58 225.48 258.86C224.591 260.474 224.133 262.29 224.151 264.133C224.168 265.976 224.661 267.783 225.58 269.38C226.28 270.62 226.91 271.26 226.85 271.32C226.198 270.863 225.658 270.265 225.27 269.57C224.21 267.954 223.637 266.067 223.62 264.135C223.602 262.202 224.14 260.305 225.17 258.67C225.543 257.96 226.069 257.342 226.71 256.86Z" fill="#455A64"/>
<path d="M212.91 260.59C213.106 261.464 213.363 262.322 213.68 263.16C214.608 265.113 216.085 266.753 217.93 267.88C219.807 268.975 221.826 269.807 223.93 270.35C224.82 270.545 225.693 270.813 226.54 271.15C225.626 271.105 224.721 270.957 223.84 270.71C221.661 270.263 219.573 269.455 217.66 268.32C215.726 267.154 214.213 265.403 213.34 263.32C213.09 262.679 212.935 262.005 212.88 261.32C212.84 261.077 212.85 260.829 212.91 260.59Z" fill="#455A64"/>
<path d="M220.53 304.31C220.381 304.29 220.233 304.256 220.09 304.21C219.625 304.075 219.167 303.915 218.72 303.73C217.079 303.046 215.546 302.126 214.17 301C212.108 299.322 210.453 297.199 209.33 294.79C207.936 291.802 207.503 288.455 208.09 285.21C208.657 281.97 210.303 279.017 212.76 276.83C214.802 275.103 217.292 273.991 219.94 273.62C221.709 273.367 223.512 273.49 225.23 273.98C225.695 274.117 226.149 274.288 226.59 274.49C226.745 274.549 226.893 274.627 227.03 274.72C227.03 274.78 226.38 274.47 225.18 274.17C223.479 273.767 221.715 273.706 219.99 273.99C217.435 274.401 215.046 275.516 213.09 277.21C210.736 279.335 209.159 282.186 208.61 285.31C208.026 288.429 208.407 291.652 209.7 294.55C210.774 296.909 212.355 299.002 214.33 300.68C215.67 301.809 217.153 302.757 218.74 303.5C219.88 304.05 220.54 304.26 220.53 304.31Z" fill="#455A64"/>
<path d="M219.2 314.87C218.984 314.787 218.773 314.691 218.57 314.58C218.17 314.38 217.57 314.07 216.85 313.58C214.776 312.338 212.845 310.872 211.09 309.21C206.944 305.217 203.885 300.234 202.2 294.73C201.512 292.54 201.175 290.255 201.2 287.96C201.244 285.643 201.841 283.37 202.94 281.33C203.951 279.429 205.308 277.734 206.94 276.33C209.735 274.007 213.115 272.499 216.71 271.97C219.111 271.602 221.551 271.571 223.96 271.88C224.81 271.99 225.46 272.11 225.9 272.21C226.129 272.241 226.354 272.298 226.57 272.38C226.338 272.38 226.107 272.356 225.88 272.31C225.44 272.25 224.78 272.16 223.94 272.08C221.549 271.85 219.139 271.934 216.77 272.33C213.26 272.898 209.969 274.408 207.25 276.7C205.585 278.075 204.228 279.786 203.27 281.721C202.312 283.656 201.774 285.772 201.69 287.93C201.684 290.175 202.021 292.407 202.69 294.55C204.36 299.97 207.333 304.897 211.35 308.9C213.058 310.589 214.931 312.103 216.94 313.42C218.38 314.39 219.23 314.81 219.2 314.87Z" fill="#455A64"/>
<path d="M243.36 304.14C244.479 302.335 245.375 300.401 246.03 298.38C246.676 296.178 246.95 293.883 246.84 291.59C246.705 288.794 245.954 286.062 244.64 283.59C243.468 281.325 241.86 279.313 239.909 277.671C237.958 276.029 235.702 274.788 233.27 274.02C231.786 273.588 230.221 273.506 228.7 273.78C227.64 274.02 227.09 274.32 227.07 274.28C227.05 274.24 227.2 274.18 227.45 274.04C227.838 273.852 228.244 273.702 228.66 273.59C230.208 273.222 231.824 273.246 233.36 273.66C235.634 274.267 237.758 275.336 239.6 276.8C241.875 278.57 243.75 280.803 245.1 283.35C246.453 285.897 247.212 288.718 247.32 291.6C247.41 293.944 247.092 296.285 246.38 298.52C245.887 300.015 245.215 301.446 244.38 302.78C244.154 303.126 243.91 303.459 243.65 303.78C243.48 304.03 243.38 304.15 243.36 304.14Z" fill="#455A64"/>
<path d="M392.31 33.54H238.33V148.35H392.31V33.54Z" fill="white"/>
<path d="M392.31 148.35C392.31 148.35 392.31 147.63 392.31 146.25C392.31 144.87 392.31 142.82 392.31 140.15C392.31 134.8 392.31 126.96 392.25 116.95C392.25 96.95 392.19 68.27 392.14 33.54L392.35 33.75H238.35L238.61 33.49C238.61 74.74 238.61 113.82 238.61 148.3L238.37 148.07L349.5 148.18L381.08 148.25H389.45H391.61H392.35H391.64H389.51H381.18L349.65 148.31L238.37 148.43H238.09V148.19C238.09 113.71 238.09 74.63 238.09 33.38V33.12H238.37H392.37H392.59V33.34C392.54 68.13 392.5 96.85 392.48 116.89C392.48 126.89 392.43 134.7 392.42 140.03C392.42 142.68 392.42 144.71 392.42 146.09C392.42 147.47 392.31 148.35 392.31 148.35Z" fill="#263238"/>
<path d="M411.36 101.32H317.73V137.72H411.36V101.32Z" fill="#FAFAFA"/>
<path d="M411.36 137.72C411.36 137.72 411.36 137.49 411.36 137.06C411.36 136.63 411.36 135.99 411.36 135.17C411.36 133.51 411.36 131.07 411.31 127.94C411.31 121.66 411.26 112.59 411.22 101.32L411.4 101.5L317.77 101.58L318.03 101.32C318.03 114.04 318.03 126.32 318.03 137.72L317.78 137.47L384.84 137.58L404.34 137.65H409.58H410.93H411.41H410.97H409.64H404.46L385.01 137.72L317.78 137.84H317.53V137.59C317.53 126.21 317.53 113.91 317.53 101.19V100.93H317.79L411.42 101.01H411.6V101.19C411.55 112.5 411.52 121.62 411.5 127.92C411.5 131.04 411.5 133.45 411.45 135.11C411.45 135.92 411.45 136.53 411.45 136.97C411.45 137.41 411.36 137.72 411.36 137.72Z" fill="#263238"/>
<path d="M411.36 101.32H317.73V109.12H411.36V101.32Z" fill="#263238"/>
<path d="M338.04 115.07H328.85V124.26H338.04V115.07Z" fill="#263238"/>
<path d="M343.61 120.63H334.42V129.82H343.61V120.63Z" fill="#263238"/>
<path d="M359.96 115.07H350.77V124.26H359.96V115.07Z" fill="#263238"/>
<path d="M365.53 120.63H356.34V129.82H365.53V120.63Z" fill="#F5F5F5"/>
<path d="M365.53 129.83C365.501 129.594 365.484 129.357 365.48 129.12C365.48 128.6 365.48 127.98 365.42 127.23C365.42 125.61 365.33 123.34 365.31 120.63L365.53 120.86H356.34L356.6 120.6V123.07C356.6 123.88 356.6 124.67 356.6 125.44C356.6 126.98 356.6 128.44 356.6 129.78L356.38 129.55C359.09 129.55 361.38 129.63 362.97 129.67L364.87 129.73C365.104 129.727 365.339 129.744 365.57 129.78C365.367 129.805 365.163 129.805 364.96 129.78L363.12 129.84C361.52 129.84 359.19 129.93 356.38 129.95H356.09V129.72C356.09 128.37 356.09 126.92 356.09 125.38C356.09 124.61 356.09 123.82 356.09 123.01V120.54C355.86 120.77 356.41 120.22 356.35 120.27H365.54H365.77V120.49C365.77 123.3 365.7 125.63 365.65 127.23C365.65 127.96 365.65 128.57 365.6 129.08C365.621 129.332 365.597 129.586 365.53 129.83Z" fill="#263238"/>
<path d="M380.41 115.07H371.22V124.26H380.41V115.07Z" fill="#F5F5F5"/>
<path d="M380.41 124.26C380.381 124.024 380.364 123.787 380.36 123.55C380.36 123.043 380.34 122.413 380.3 121.66C380.3 120.04 380.21 117.77 380.19 115.07L380.41 115.29H371.22C371.16 115.29 371.71 114.79 371.48 115.03V117.48C371.48 118.29 371.48 119.08 371.48 119.85C371.48 121.39 371.48 122.85 371.48 124.19L371.25 123.97C373.96 123.97 376.25 124.04 377.84 124.08L379.74 124.14C379.974 124.137 380.208 124.154 380.44 124.19C380.237 124.215 380.033 124.215 379.83 124.19L377.99 124.25C376.39 124.25 374.06 124.34 371.25 124.37H371.03V124.14C371.03 122.8 371.03 121.34 371.03 119.8C371.03 119.03 371.03 118.24 371.03 117.43V114.98L371.29 114.72H380.48H380.71V114.95C380.71 117.75 380.64 120.08 380.6 121.68C380.6 122.41 380.55 123.02 380.54 123.53C380.539 123.779 380.495 124.026 380.41 124.26Z" fill="#263238"/>
<path d="M385.98 120.63H376.79V129.82H385.98V120.63Z" fill="#F5F5F5"/>
<path d="M385.98 129.83C385.951 129.594 385.934 129.357 385.93 129.12C385.93 128.6 385.93 127.98 385.87 127.23C385.87 125.61 385.78 123.34 385.76 120.63L385.98 120.86H376.79L377.05 120.6V123.07C377.05 123.88 377.05 124.67 377.05 125.44C377.05 126.98 377.05 128.44 377.05 129.78L376.83 129.55C379.54 129.55 381.83 129.63 383.42 129.67L385.32 129.73C385.554 129.727 385.788 129.744 386.02 129.78C385.817 129.805 385.613 129.805 385.41 129.78L383.57 129.84C381.96 129.84 379.64 129.93 376.83 129.95H376.6V129.72C376.6 128.37 376.6 126.92 376.6 125.38C376.6 124.61 376.6 123.82 376.6 123.01V120.54C376.37 120.77 376.92 120.22 376.86 120.27H386.05H386.28V120.49C386.28 123.3 386.21 125.63 386.16 127.23C386.16 127.96 386.16 128.57 386.11 129.08C386.111 129.336 386.067 129.59 385.98 129.83Z" fill="#263238"/>
<path d="M380.42 120.63H376.79V124.26H380.42V120.63Z" fill="#263238"/>
<path d="M399.21 115.07H390.02V124.26H399.21V115.07Z" fill="#263238"/>
<path d="M404.78 120.63H395.59V129.82H404.78V120.63Z" fill="#263238"/>
<path d="M399.22 120.63H395.59V124.26H399.22V120.63Z" fill="#FAFAFA"/>
<path d="M429.87 212.34H339.89V247.32H429.87V212.34Z" fill="#FAFAFA"/>
<path d="M430 247.45H339.77V212.21H430V247.45ZM340 247.2H429.73V212.47H340.02L340 247.2Z" fill="#222221"/>
<path d="M429.87 212.34H339.89V219.84H429.87V212.34Z" fill="#263238"/>
<path d="M353.86 229.19H344.97V238.08H353.86V229.19Z" fill="#F5F5F5"/>
<path d="M353.86 238.08C353.817 237.856 353.797 237.628 353.8 237.4C353.8 236.89 353.8 236.29 353.8 235.57C353.75 234 353.7 231.81 353.68 229.19L353.91 229.42H345.02C344.96 229.48 345.51 228.93 345.28 229.17V233.85C345.28 235.34 345.28 236.74 345.28 238.04L345.06 237.82C347.67 237.82 349.87 237.89 351.43 237.93L353.26 237.99C353.491 237.994 353.721 238.011 353.95 238.04C353.16 238.125 352.365 238.162 351.57 238.15C350.02 238.15 347.77 238.25 345.06 238.27H344.83V238.04C344.83 236.74 344.83 235.34 344.83 233.85V229.21L345.1 228.94H353.99H354.09V229.21C354.09 231.93 354.02 234.21 353.98 235.73C353.94 237.25 353.89 238.12 353.86 238.08Z" fill="#263238"/>
<path d="M344.97 238.08C346.256 236.422 347.681 234.876 349.23 233.46C350.65 231.908 352.199 230.48 353.86 229.19C352.57 230.851 351.142 232.4 349.59 233.82C348.174 235.369 346.628 236.794 344.97 238.08Z" fill="#90CAF9"/>
<path d="M365.42 229.19H356.53V238.08H365.42V229.19Z" fill="#263238"/>
<path d="M376.99 229.19H368.1V238.08H376.99V229.19Z" fill="#455A64"/>
<path d="M388.56 229.19H379.67V238.08H388.56V229.19Z" fill="#90CAF9"/>
<path d="M400.13 229.19H391.24V238.08H400.13V229.19Z" fill="#90CAF9"/>
<g opacity="0.5">
<path d="M400.13 229.19H391.24V238.08H400.13V229.19Z" fill="white"/>
</g>
<path d="M411.7 229.19H402.81V238.08H411.7V229.19Z" fill="#90CAF9"/>
<g opacity="0.3">
<path d="M411.7 229.19H402.81V238.08H411.7V229.19Z" fill="black"/>
</g>
<path d="M423.26 229.19H414.37V238.08H423.26V229.19Z" fill="#90CAF9"/>
<g opacity="0.7">
<path d="M423.26 229.19H414.37V238.08H423.26V229.19Z" fill="black"/>
</g>
<path d="M200.96 33.54H75.14V121.16H200.96V33.54Z" fill="white"/>
<path d="M200.96 121.21C200.96 121.21 200.96 120.66 200.96 119.61C200.96 118.56 200.96 117 200.96 114.97C200.96 110.9 200.96 104.97 200.96 97.32C200.96 82.08 200.89 60.2 200.85 33.59L201.06 33.8H75.25L75.51 33.54C75.51 64.85 75.51 94.59 75.51 121.16L75.28 120.92L165.97 121.04L191.83 121.1H198.71H200.48H201.1H200.51H198.76H191.93L166.12 121.17L75.28 121.28H75.04V121.21C75.04 94.64 75.04 64.9 75.04 33.59V33.33H75.31L201.12 33.38H201.33V33.59C201.09 60.21 201.09 82.13 201.09 97.4C201.09 105 201.04 110.95 201.03 115C201.03 117 201.03 118.55 201.03 119.6C201.03 120.65 200.96 121.21 200.96 121.21Z" fill="#263238"/>
<path d="M200.96 33.54H75.14V44.49H200.96V33.54Z" fill="#263238"/>
<path d="M81.97 39.32C81.9602 39.5787 81.8745 39.8288 81.7237 40.0392C81.5728 40.2496 81.3634 40.411 81.1215 40.5033C80.8796 40.5956 80.6159 40.6147 80.3632 40.5583C80.1105 40.5018 79.88 40.3723 79.7004 40.1859C79.5208 39.9994 79.3999 39.7643 79.3529 39.5097C79.3059 39.2551 79.3348 38.9923 79.436 38.754C79.5372 38.5157 79.7063 38.3124 79.9221 38.1695C80.138 38.0265 80.3911 37.9502 80.65 37.95C81.0063 37.9579 81.345 38.1063 81.5923 38.363C81.8396 38.6196 81.9754 38.9636 81.97 39.32Z" fill="white"/>
<path d="M87.29 39.32C87.2783 39.5762 87.1916 39.8233 87.0407 40.0307C86.8898 40.2381 86.6813 40.3967 86.4411 40.4867C86.201 40.5767 85.9397 40.5942 85.6896 40.5371C85.4396 40.48 85.2118 40.3507 85.0346 40.1653C84.8573 39.98 84.7384 39.7466 84.6925 39.4943C84.6466 39.242 84.6758 38.9817 84.7765 38.7458C84.8772 38.5099 85.0449 38.3087 85.2588 38.1673C85.4728 38.0258 85.7235 37.9503 85.98 37.95C86.3346 37.9605 86.6707 38.1101 86.9159 38.3664C87.161 38.6228 87.2954 38.9653 87.29 39.32Z" fill="white"/>
<path d="M92.61 39.32C92.5983 39.5762 92.5116 39.8233 92.3607 40.0307C92.2098 40.2381 92.0013 40.3967 91.7611 40.4867C91.521 40.5767 91.2597 40.5942 91.0096 40.5371C90.7596 40.48 90.5318 40.3507 90.3546 40.1653C90.1773 39.98 90.0584 39.7466 90.0125 39.4943C89.9666 39.242 89.9958 38.9817 90.0965 38.7458C90.1972 38.5099 90.3649 38.3087 90.5788 38.1673C90.7928 38.0258 91.0435 37.9503 91.3 37.95C91.476 37.9539 91.6495 37.9924 91.8106 38.0634C91.9717 38.1344 92.1172 38.2364 92.2388 38.3636C92.3605 38.4908 92.4559 38.6408 92.5196 38.8049C92.5833 38.969 92.614 39.144 92.61 39.32Z" fill="white"/>
<path d="M105.03 55.22H87.1V98.24H105.03V55.22Z" fill="#90CAF9"/>
<path d="M132.68 55.22H114.75V98.24H132.68V55.22Z" fill="#EBEBEB"/>
<path d="M160.33 55.22H142.4V98.24H160.33V55.22Z" fill="#FAFAFA"/>
<path d="M187.98 55.55H170.05V98.57H187.98V55.55Z" fill="#E0E0E0"/>
<path d="M193.7 102.98H85.02V112.81H193.7V102.98Z" fill="#90CAF9"/>
<path d="M185.44 110.8L187.78 122.64L189.7 119.33L193.83 125.23L195.89 123.9L191.76 118L195.56 117.45L185.44 110.8Z" fill="#263238"/>
<path d="M152.74 131.57H97.36V226.56H152.74V131.57Z" fill="#FAFAFA"/>
<path d="M152.74 226.56C152.74 226.56 152.74 226.4 152.74 226.09C152.74 225.78 152.74 225.32 152.74 224.73C152.74 223.53 152.74 221.73 152.74 219.5C152.74 214.92 152.74 208.27 152.67 199.87C152.67 183.09 152.6 159.38 152.55 131.57L152.8 131.81H97.42L97.68 131.55C97.68 167.79 97.68 201.02 97.62 226.55L97.42 226.35L137.79 226.46L148.88 226.51H151.79H148.92L137.87 226.56L97.38 226.67H97.17V226.47C97.17 200.95 97.17 167.72 97.11 131.47V131.21H97.38H152.76H153V131.45C153 159.32 152.91 183.09 152.88 199.91C152.88 208.28 152.83 214.91 152.81 219.48C152.81 221.74 152.81 223.48 152.81 224.67C152.81 225.25 152.81 225.67 152.81 226C152.81 226.33 152.74 226.56 152.74 226.56Z" fill="#222221"/>
<path d="M152.74 131.57H97.36V139.57H152.74V131.57Z" fill="#263238"/>
<path d="M110.66 149.56L111.33 158.43L113.81 155.2L117.95 155.03L110.66 149.56Z" fill="#263238"/>
<path d="M134.6 149.56L135.12 149.93L136.64 151.01C137.94 151.95 139.82 153.3 141.98 154.91L142.31 155.16H141.89L137.89 155.33H137.74L137.86 155.26L135.38 158.49L135.14 158.8V158.41C134.95 155.79 134.83 153.53 134.74 151.97C134.74 151.27 134.67 150.67 134.64 150.15C134.629 149.943 134.629 149.737 134.64 149.53C134.64 149.53 134.64 149.79 134.71 150.23C134.78 150.67 134.82 151.38 134.89 152.09C135.04 153.67 135.26 155.85 135.46 158.39L135.19 158.31C135.96 157.31 136.8 156.21 137.66 155.07H137.71H137.92L141.92 154.91L141.84 155.18C139.76 153.61 137.99 152.23 136.71 151.23L135.2 150.05C134.81 149.74 134.61 149.58 134.6 149.56Z" fill="#263238"/>
<path d="M109.09 188.15C109.03 188.09 111.79 185.15 115.25 181.59C118.71 178.03 121.58 175.18 121.64 175.24C121.7 175.3 118.94 178.24 115.48 181.81C112.02 185.38 109.09 188.21 109.09 188.15Z" fill="#263238"/>
<path d="M147.5 181.61C147.446 180.937 147.345 180.269 147.2 179.61C146.755 177.845 145.739 176.277 144.31 175.15C143.477 174.492 142.517 174.012 141.491 173.74C140.465 173.468 139.394 173.409 138.344 173.568C137.294 173.726 136.288 174.098 135.387 174.661C134.487 175.224 133.712 175.966 133.11 176.84C132.135 178.23 131.611 179.887 131.611 181.585C131.611 183.283 132.135 184.94 133.11 186.33C133.967 187.569 135.164 188.534 136.557 189.108C137.949 189.683 139.478 189.844 140.96 189.57C142.182 189.328 143.33 188.8 144.31 188.03C145.74 186.899 146.756 185.328 147.2 183.56C147.345 182.901 147.445 182.233 147.5 181.56C147.541 182.232 147.48 182.906 147.32 183.56C146.909 185.376 145.898 187 144.45 188.17C143.376 189.044 142.091 189.621 140.724 189.842C139.356 190.063 137.955 189.921 136.66 189.43C135.116 188.844 133.789 187.796 132.86 186.43C131.844 184.989 131.299 183.268 131.299 181.505C131.299 179.742 131.844 178.021 132.86 176.58C133.8 175.235 135.124 174.207 136.66 173.63C138.049 173.109 139.555 172.984 141.01 173.27C142.268 173.533 143.446 174.088 144.45 174.89C145.896 176.062 146.907 177.685 147.32 179.5C147.49 180.19 147.551 180.902 147.5 181.61Z" fill="#263238"/>
<path d="M140.33 202.71L140.53 202.85C140.69 203 140.88 203.15 141.1 203.33L143.28 205.2L143.35 205.27L143.29 205.34L133.99 216.03H133.94L132.82 216.2L130.82 216.5H130.6V216.28C130.86 215.01 131.1 213.78 131.33 212.61C133.85 209.61 136.05 207.11 137.65 205.35C138.434 204.36 139.33 203.464 140.32 202.68L140.13 202.86C140.02 202.98 139.84 203.15 139.63 203.39C139.19 203.87 138.57 204.58 137.79 205.48C136.23 207.27 134.06 209.82 131.56 212.8V212.73C131.34 213.9 131.1 215.13 130.85 216.4L130.67 216.22L132.67 215.91L133.79 215.74L133.69 215.79L143.09 205.18V205.31L141.09 203.43L140.54 202.91L140.33 202.71Z" fill="#263238"/>
<path d="M120.09 215.66C120.09 215.66 120.09 215.57 120.09 215.4V214.67C120.09 213.97 120.09 213.06 120.09 211.94C120.09 209.54 120.09 206.23 120.03 202.3L120.16 202.44H107.16C107.16 202.44 107.45 202.14 107.31 202.29V209.29C107.31 211.53 107.31 213.64 107.31 215.58L107.18 215.45L116.55 215.52H119.2H119.91H120.09C120.09 215.52 120.02 215.52 119.87 215.52H119.19H116.57L107.11 215.59H106.97V215.45C106.97 213.51 106.97 211.4 106.97 209.16C106.97 208.04 106.97 206.88 106.97 205.7V202.12C106.83 202.25 107.16 201.92 107.13 201.96H120.13H120.27V202.09C120.27 206.09 120.21 209.39 120.2 211.82C120.2 212.93 120.2 213.82 120.2 214.52V215.22C120.09 215.59 120.09 215.67 120.09 215.66Z" fill="#263238"/>
<path d="M109.09 202.3C108.162 202.46 107.22 202.514 106.28 202.46C105.337 202.514 104.391 202.46 103.46 202.3C104.392 202.152 105.337 202.102 106.28 202.15C107.219 202.102 108.161 202.153 109.09 202.3Z" fill="#263238"/>
<path d="M107.09 204.87C106.877 202.762 106.877 200.638 107.09 198.53C107.29 200.639 107.29 202.761 107.09 204.87Z" fill="#263238"/>
<path d="M85.04 159.87H11.71V233.2H85.04V159.87Z" fill="#F5F5F5"/>
<path d="M111.773 271.763C117.138 266.397 117.138 257.697 111.773 252.332C106.407 246.966 97.707 246.966 92.3412 252.332C86.9754 257.697 86.9754 266.397 92.3412 271.763C97.707 277.129 106.407 277.129 111.773 271.763Z" fill="#E0E0E0"/>
<path d="M111.905 265.05C116.599 260.356 116.599 252.745 111.905 248.051C107.211 243.357 99.6 243.357 94.9059 248.051C90.2118 252.745 90.2118 260.356 94.9059 265.05C99.6 269.744 107.211 269.744 111.905 265.05Z" fill="#FAFAFA"/>
<path d="M103.4 268.13C109.795 268.13 114.98 262.945 114.98 256.55C114.98 250.155 109.795 244.97 103.4 244.97C97.0046 244.97 91.82 250.155 91.82 256.55C91.82 262.945 97.0046 268.13 103.4 268.13Z" fill="#90CAF9"/>
<path d="M103.4 265.42C101.646 265.42 99.9308 264.9 98.4721 263.925C97.0134 262.95 95.8766 261.565 95.2052 259.944C94.5339 258.324 94.3582 256.54 94.7005 254.82C95.0427 253.099 95.8875 251.518 97.128 250.278C98.3685 249.037 99.949 248.193 101.67 247.85C103.39 247.508 105.174 247.684 106.794 248.355C108.415 249.027 109.801 250.163 110.775 251.622C111.75 253.081 112.27 254.796 112.27 256.55C112.267 258.902 111.332 261.156 109.669 262.819C108.006 264.482 105.752 265.417 103.4 265.42ZM103.4 247.73C101.656 247.73 99.9503 248.247 98.4999 249.216C97.0494 250.186 95.919 251.563 95.2514 253.175C94.5838 254.786 94.4092 256.56 94.7495 258.271C95.0898 259.982 95.9298 261.553 97.1633 262.787C98.3968 264.02 99.9684 264.86 101.679 265.201C103.39 265.541 105.164 265.366 106.775 264.699C108.387 264.031 109.764 262.901 110.734 261.45C111.703 260 112.22 258.294 112.22 256.55C112.217 254.212 111.287 251.97 109.634 250.316C107.98 248.663 105.738 247.733 103.4 247.73Z" fill="#263238"/>
<g opacity="0.2">
<path d="M104.34 248.45C103.204 248.183 102.013 248.269 100.927 248.697C99.8406 249.124 98.9106 249.873 98.2607 250.842C97.6107 251.812 97.2719 252.956 97.2892 254.123C97.3065 255.291 97.6793 256.425 98.3577 257.374C99.0362 258.324 99.9881 259.045 101.086 259.44C102.185 259.835 103.378 259.885 104.505 259.585C105.633 259.285 106.643 258.647 107.4 257.759C108.156 256.87 108.624 255.771 108.74 254.61C108.865 253.421 108.579 252.224 107.93 251.22C106.93 249.73 106.11 248.84 104.34 248.45Z" fill="black"/>
</g>
<path d="M101.23 264.03L101.89 264.93L105.42 264.82L106.1 264.03H101.23Z" fill="#263238"/>
<path d="M337.81 271C341.864 271 345.15 267.714 345.15 263.66C345.15 259.606 341.864 256.32 337.81 256.32C333.756 256.32 330.47 259.606 330.47 263.66C330.47 267.714 333.756 271 337.81 271Z" fill="#263238"/>
<path d="M340.49 263.66C340.49 264.19 340.333 264.708 340.038 265.149C339.744 265.59 339.325 265.933 338.836 266.136C338.346 266.339 337.807 266.392 337.287 266.288C336.767 266.185 336.29 265.93 335.915 265.555C335.54 265.18 335.285 264.703 335.182 264.183C335.078 263.663 335.131 263.124 335.334 262.634C335.537 262.145 335.88 261.726 336.321 261.432C336.762 261.137 337.28 260.98 337.81 260.98C338.521 260.98 339.202 261.262 339.705 261.765C340.208 262.268 340.49 262.949 340.49 263.66Z" fill="#455A64"/>
<path d="M69.09 243.55C69.09 243.42 69.73 243.31 70.52 243.31C71.31 243.31 71.94 243.42 71.94 243.55C71.94 243.68 71.3 243.8 70.52 243.8C69.74 243.8 69.09 243.69 69.09 243.55Z" fill="#263238"/>
<path d="M63.43 243.55C63.43 243.42 64.07 243.31 64.85 243.31C65.63 243.31 66.27 243.42 66.27 243.55C66.27 243.68 65.64 243.8 64.85 243.8C64.06 243.8 63.43 243.69 63.43 243.55Z" fill="#263238"/>
<path d="M57.75 243.55C57.75 243.42 58.39 243.31 59.17 243.31C59.95 243.31 60.59 243.42 60.59 243.55C60.59 243.68 59.96 243.8 59.17 243.8C58.38 243.8 57.75 243.69 57.75 243.55Z" fill="#263238"/>
<path d="M52.09 243.55C52.09 243.42 52.73 243.31 53.51 243.31C54.29 243.31 54.93 243.42 54.93 243.55C54.93 243.68 54.29 243.8 53.51 243.8C52.73 243.8 52.09 243.69 52.09 243.55Z" fill="#263238"/>
<path d="M46.39 243.55C46.39 243.42 47.02 243.31 47.81 243.31C48.6 243.31 49.23 243.42 49.23 243.55C49.23 243.68 48.59 243.8 47.81 243.8C47.03 243.8 46.39 243.69 46.39 243.55Z" fill="#263238"/>
<path d="M40.71 243.55C40.71 243.42 41.34 243.31 42.13 243.31C42.92 243.31 43.55 243.42 43.55 243.55C43.55 243.68 42.91 243.8 42.13 243.8C41.35 243.8 40.71 243.69 40.71 243.55Z" fill="#263238"/>
<path d="M35.02 243.55C35.02 243.42 35.66 243.31 36.44 243.31C37.22 243.31 37.87 243.42 37.87 243.55C37.87 243.68 37.23 243.8 36.44 243.8C35.65 243.8 35.02 243.69 35.02 243.55Z" fill="#263238"/>
<path d="M29.34 243.55C29.34 243.42 29.98 243.31 30.76 243.31C31.54 243.31 32.18 243.42 32.18 243.55C32.18 243.68 31.55 243.8 30.76 243.8C29.97 243.8 29.34 243.69 29.34 243.55Z" fill="#263238"/>
<path d="M23.66 243.55C23.66 243.42 24.3 243.31 25.08 243.31C25.86 243.31 26.5 243.42 26.5 243.55C26.5 243.68 25.87 243.8 25.08 243.8C24.29 243.8 23.66 243.69 23.66 243.55Z" fill="#263238"/>
<path d="M17.98 243.55C17.98 243.42 18.62 243.31 19.4 243.31C20.18 243.31 20.82 243.42 20.82 243.55C20.82 243.68 20.18 243.8 19.4 243.8C18.62 243.8 17.98 243.69 17.98 243.55Z" fill="#263238"/>
<path d="M12.3 243.55C12.3 243.42 12.93 243.31 13.72 243.31C14.51 243.31 15.14 243.42 15.14 243.55C15.14 243.68 14.5 243.8 13.72 243.8C12.94 243.8 12.3 243.69 12.3 243.55Z" fill="#263238"/>
<path d="M6.62 243.55C6.62 243.42 7.25 243.31 8.04 243.31C8.83 243.31 9.46 243.42 9.46 243.55C9.46 243.68 8.82 243.8 8.04 243.8C7.26 243.8 6.62 243.69 6.62 243.55Z" fill="#263238"/>
<path d="M2.57 241.92C2.7 241.92 2.81 242.56 2.81 243.34V243.55L2.57 243.31C3.25 243.31 3.77 243.43 3.77 243.55C3.77 243.67 3.25 243.78 2.57 243.8H2.33V243.34C2.32 242.56 2.43 241.92 2.57 241.92Z" fill="#263238"/>
<path d="M2.57 236.21C2.7 236.21 2.81 236.85 2.81 237.63C2.81 238.41 2.7 239.05 2.57 239.05C2.44 239.05 2.32 238.41 2.32 237.63C2.32 236.85 2.43 236.21 2.57 236.21Z" fill="#263238"/>
<path d="M2.57 230.56C2.7 230.56 2.81 231.19 2.81 231.98C2.81 232.77 2.7 233.4 2.57 233.4C2.44 233.4 2.32 232.76 2.32 231.98C2.32 231.2 2.43 230.56 2.57 230.56Z" fill="#263238"/>
<path d="M2.57 224.88C2.7 224.88 2.81 225.51 2.81 226.3C2.81 227.09 2.7 227.72 2.57 227.72C2.44 227.72 2.32 227.08 2.32 226.3C2.32 225.52 2.43 224.88 2.57 224.88Z" fill="#263238"/>
<path d="M2.57 219.21C2.7 219.21 2.81 219.85 2.81 220.63C2.81 221.41 2.7 222.06 2.57 222.06C2.44 222.06 2.32 221.42 2.32 220.63C2.32 219.84 2.43 219.21 2.57 219.21Z" fill="#263238"/>
<path d="M2.57 213.51C2.7 213.51 2.81 214.15 2.81 214.93C2.81 215.71 2.7 216.35 2.57 216.35C2.44 216.35 2.32 215.72 2.32 214.93C2.32 214.14 2.43 213.51 2.57 213.51Z" fill="#263238"/>
<path d="M2.57 207.83C2.7 207.83 2.81 208.47 2.81 209.25C2.81 210.03 2.7 210.67 2.57 210.67C2.44 210.67 2.32 210.04 2.32 209.25C2.32 208.46 2.43 207.83 2.57 207.83Z" fill="#263238"/>
<path d="M2.57 202.15C2.7 202.15 2.81 202.79 2.81 203.57C2.81 204.35 2.7 204.99 2.57 204.99C2.44 204.99 2.32 204.35 2.32 203.57C2.32 202.79 2.43 202.15 2.57 202.15Z" fill="#263238"/>
<path d="M2.57 196.47C2.7 196.47 2.81 197.1 2.81 197.89C2.81 198.68 2.7 199.31 2.57 199.31C2.44 199.31 2.32 198.67 2.32 197.89C2.32 197.11 2.43 196.47 2.57 196.47Z" fill="#263238"/>
<path d="M2.57 190.79C2.7 190.79 2.81 191.42 2.81 192.21C2.81 193 2.7 193.63 2.57 193.63C2.44 193.63 2.32 192.99 2.32 192.21C2.32 191.43 2.43 190.79 2.57 190.79Z" fill="#263238"/>
<path d="M2.57 185.1C2.7 185.1 2.81 185.74 2.81 186.52C2.81 187.3 2.7 187.94 2.57 187.94C2.44 187.94 2.32 187.31 2.32 186.52C2.32 185.73 2.43 185.1 2.57 185.1Z" fill="#263238"/>
<path d="M2.57 179.42C2.7 179.42 2.81 180.06 2.81 180.84C2.81 181.62 2.7 182.26 2.57 182.26C2.44 182.26 2.32 181.63 2.32 180.84C2.32 180.05 2.43 179.42 2.57 179.42Z" fill="#263238"/>
<path d="M2.99 174.21C2.99 174.27 2.83 174.34 2.57 174.38L2.74 174.21C2.794 174.54 2.81744 174.875 2.81 175.21C2.81 176 2.7 176.63 2.57 176.63C2.44 176.63 2.32 176 2.32 175.21C2.31771 174.875 2.34112 174.541 2.39 174.21V174.01H2.53C2.83 174.04 2.99 174.1 2.99 174.21Z" fill="#263238"/>
<path d="M8.67 174.21C8.67 174.34 8.04 174.45 7.25 174.45C6.46 174.45 5.83 174.34 5.83 174.21C5.83 174.08 6.47 173.96 7.25 173.96C8.03 173.96 8.67 174.03 8.67 174.21Z" fill="#263238"/>
<path d="M14.36 174.21C14.36 174.34 13.72 174.45 12.94 174.45C12.16 174.45 11.52 174.34 11.52 174.21C11.52 174.08 12.15 173.96 12.94 173.96C13.73 173.96 14.36 174.03 14.36 174.21Z" fill="#263238"/>
<path d="M20.09 174.21C20.09 174.34 19.45 174.45 18.67 174.45C17.89 174.45 17.25 174.34 17.25 174.21C17.25 174.08 17.88 173.96 18.67 173.96C19.46 173.96 20.09 174.03 20.09 174.21Z" fill="#263238"/>
<path d="M25.72 174.21C25.72 174.34 25.08 174.45 24.3 174.45C23.52 174.45 22.88 174.34 22.88 174.21C22.88 174.08 23.51 173.96 24.3 173.96C25.09 173.96 25.72 174.03 25.72 174.21Z" fill="#263238"/>
<path d="M31.4 174.21C31.4 174.34 30.77 174.45 29.98 174.45C29.19 174.45 28.56 174.34 28.56 174.21C28.56 174.08 29.2 173.96 29.98 173.96C30.76 173.96 31.4 174.03 31.4 174.21Z" fill="#263238"/>
<path d="M37.09 174.21C37.09 174.34 36.46 174.45 35.67 174.45C34.88 174.45 34.25 174.34 34.25 174.21C34.25 174.08 34.89 173.96 35.67 173.96C36.45 173.96 37.09 174.03 37.09 174.21Z" fill="#263238"/>
<path d="M42.76 174.21C42.76 174.34 42.13 174.45 41.34 174.45C40.55 174.45 39.92 174.34 39.92 174.21C39.92 174.08 40.56 173.96 41.34 173.96C42.12 173.96 42.76 174.03 42.76 174.21Z" fill="#263238"/>
<path d="M48.45 174.21C48.45 174.34 47.81 174.45 47.03 174.45C46.25 174.45 45.61 174.34 45.61 174.21C45.61 174.08 46.24 173.96 47.03 173.96C47.82 173.96 48.45 174.03 48.45 174.21Z" fill="#263238"/>
<path d="M54.09 174.21C54.09 174.34 53.45 174.45 52.67 174.45C51.89 174.45 51.25 174.34 51.25 174.21C51.25 174.08 51.88 173.96 52.67 173.96C53.46 173.96 54.09 174.03 54.09 174.21Z" fill="#263238"/>
<path d="M59.81 174.21C59.81 174.34 59.17 174.45 58.39 174.45C57.61 174.45 56.97 174.34 56.97 174.21C56.97 174.08 57.6 173.96 58.39 173.96C59.18 173.96 59.81 174.03 59.81 174.21Z" fill="#263238"/>
<path d="M65.49 174.21C65.49 174.34 64.86 174.45 64.07 174.45C63.28 174.45 62.65 174.34 62.65 174.21C62.65 174.08 63.29 173.96 64.07 173.96C64.85 173.96 65.49 174.03 65.49 174.21Z" fill="#263238"/>
<path d="M71.17 174.21C71.17 174.34 70.54 174.45 69.75 174.45C68.96 174.45 68.33 174.34 68.33 174.21C68.33 174.08 68.97 173.96 69.75 173.96C70.53 173.96 71.17 174.03 71.17 174.21Z" fill="#263238"/>
<path d="M71.96 179.07C71.82 179.07 71.71 178.43 71.71 177.65C71.71 176.87 71.82 176.22 71.96 176.22C72.1 176.22 72.2 176.86 72.2 177.65C72.2 178.44 72.09 179.07 71.96 179.07Z" fill="#263238"/>
<path d="M71.96 184.75C71.82 184.75 71.71 184.11 71.71 183.33C71.71 182.55 71.82 181.91 71.96 181.91C72.1 181.91 72.2 182.54 72.2 183.33C72.2 184.12 72.09 184.75 71.96 184.75Z" fill="#263238"/>
<path d="M71.96 190.43C71.82 190.43 71.71 189.79 71.71 189.01C71.71 188.23 71.82 187.59 71.96 187.59C72.1 187.59 72.2 188.22 72.2 189.01C72.2 189.8 72.09 190.43 71.96 190.43Z" fill="#263238"/>
<path d="M71.96 196.11C71.82 196.11 71.71 195.47 71.71 194.69C71.71 193.91 71.82 193.27 71.96 193.27C72.1 193.27 72.2 193.91 72.2 194.69C72.2 195.47 72.09 196.11 71.96 196.11Z" fill="#263238"/>
<path d="M71.96 201.79C71.82 201.79 71.71 201.16 71.71 200.37C71.71 199.58 71.82 198.95 71.96 198.95C72.1 198.95 72.2 199.59 72.2 200.37C72.2 201.15 72.09 201.79 71.96 201.79Z" fill="#263238"/>
<path d="M71.96 207.47C71.82 207.47 71.71 206.84 71.71 206.05C71.71 205.26 71.82 204.63 71.96 204.63C72.1 204.63 72.2 205.27 72.2 206.05C72.2 206.83 72.09 207.47 71.96 207.47Z" fill="#263238"/>
<path d="M71.96 213.21C71.82 213.21 71.71 212.57 71.71 211.79C71.71 211.01 71.82 210.37 71.96 210.37C72.1 210.37 72.2 211 72.2 211.79C72.2 212.58 72.09 213.21 71.96 213.21Z" fill="#263238"/>
<path d="M71.96 218.84C71.82 218.84 71.71 218.2 71.71 217.42C71.71 216.64 71.82 216 71.96 216C72.1 216 72.2 216.63 72.2 217.42C72.2 218.21 72.09 218.84 71.96 218.84Z" fill="#263238"/>
<path d="M71.96 224.52C71.82 224.52 71.71 223.88 71.71 223.1C71.71 222.32 71.82 221.68 71.96 221.68C72.1 221.68 72.2 222.31 72.2 223.1C72.2 223.89 72.09 224.52 71.96 224.52Z" fill="#263238"/>
<path d="M71.96 230.21C71.82 230.21 71.71 229.58 71.71 228.79C71.71 228 71.82 227.37 71.96 227.37C72.1 227.37 72.2 228.01 72.2 228.79C72.2 229.57 72.09 230.21 71.96 230.21Z" fill="#263238"/>
<path d="M71.96 235.88C71.82 235.88 71.71 235.25 71.71 234.46C71.71 233.67 71.82 233.04 71.96 233.04C72.1 233.04 72.2 233.68 72.2 234.46C72.2 235.24 72.09 235.88 71.96 235.88Z" fill="#263238"/>
<path d="M71.96 241.56C71.82 241.56 71.71 240.93 71.71 240.14C71.71 239.35 71.82 238.72 71.96 238.72C72.1 238.72 72.2 239.36 72.2 240.14C72.2 240.92 72.09 241.56 71.96 241.56Z" fill="#263238"/>
<path d="M74.53 240.28H69.39V245.42H74.53V240.28Z" fill="#263238"/>
<path d="M5.14 240.99H0V246.13H5.14V240.99Z" fill="#263238"/>
<path d="M74.53 171.1H69.39V176.24H74.53V171.1Z" fill="#263238"/>
<path d="M5.14 171.6H0V176.74H5.14V171.6Z" fill="#263238"/>
</svg>
