<svg width="1088" height="857" viewBox="0 0 1088 857" fill="none" xmlns="http://www.w3.org/2000/svg">
<path d="M1087.51 758.354H0V758.897H1087.51V758.354Z" fill="#E0E0E0"/>
<path d="M734.501 785.759H711.707V786.302H734.501V785.759Z" fill="#E0E0E0"/>
<path d="M180.047 771.49H141.223V772.034H180.047V771.49Z" fill="#E0E0E0"/>
<path d="M391.263 785.498H324.577V786.041H391.263V785.498Z" fill="#E0E0E0"/>
<path d="M577.117 773.078H478.698V773.622H577.117V773.078Z" fill="#E0E0E0"/>
<path d="M968.728 776.537H851.386V777.08H968.728V776.537Z" fill="#E0E0E0"/>
<path d="M267.418 771.49H190.553V772.034H267.418V771.49Z" fill="#E0E0E0"/>
<path d="M1013.97 776.798H981.409V777.341H1013.97V776.798Z" fill="#E0E0E0"/>
<path d="M515.478 661.348H95.5047C92.2147 661.342 89.0614 660.031 86.737 657.703C84.4126 655.374 83.1072 652.219 83.1072 648.929V58.5653C83.1358 55.2942 84.4539 52.1664 86.7752 49.8614C89.0965 47.5564 92.2335 46.2604 95.5047 46.2548H515.478C518.771 46.2548 521.93 47.5632 524.259 49.8923C526.589 52.2214 527.897 55.3803 527.897 58.6741V648.929C527.897 652.222 526.589 655.381 524.259 657.71C521.93 660.039 518.771 661.348 515.478 661.348ZM95.5047 46.6898C92.3589 46.6955 89.3439 47.9492 87.1215 50.1757C84.8991 52.4022 83.6509 55.4195 83.6509 58.5653V648.929C83.6509 652.074 84.8991 655.092 87.1215 657.318C89.3439 659.545 92.3589 660.798 95.5047 660.804H515.478C518.625 660.798 521.643 659.545 523.869 657.32C526.094 655.094 527.347 652.076 527.353 648.929V58.5653C527.347 55.4175 526.094 52.4002 523.869 50.1744C521.643 47.9485 518.625 46.6955 515.478 46.6898H95.5047Z" fill="#E0E0E0"/>
<path d="M985.954 661.348H565.96C562.668 661.342 559.512 660.032 557.184 657.704C554.856 655.376 553.546 652.221 553.54 648.929V58.5653C553.575 55.2922 554.898 52.1644 557.222 49.86C559.547 47.5557 562.686 46.2603 565.96 46.2548H985.954C989.222 46.2661 992.353 47.5647 994.67 49.869C996.986 52.1734 998.302 55.2979 998.33 58.5653V648.929C998.33 652.215 997.028 655.367 994.708 657.695C992.388 660.023 989.241 661.336 985.954 661.348ZM565.96 46.6898C562.812 46.6955 559.795 47.9485 557.569 50.1744C555.343 52.4002 554.09 55.4175 554.084 58.5653V648.929C554.09 652.076 555.343 655.094 557.569 657.32C559.795 659.545 562.812 660.798 565.96 660.804H985.954C989.102 660.798 992.119 659.545 994.345 657.32C996.571 655.094 997.824 652.076 997.83 648.929V58.5653C997.824 55.4175 996.571 52.4002 994.345 50.1744C992.119 47.9485 989.102 46.6955 985.954 46.6898H565.96Z" fill="#E0E0E0"/>
<path d="M305.437 181.105C305.431 198.368 301.233 215.37 293.203 230.651C285.173 245.931 273.551 259.032 259.337 268.828C245.124 278.623 228.743 284.819 211.605 286.883C194.467 288.948 177.084 286.818 160.951 280.677C181.101 272.968 198.437 259.325 210.667 241.552C222.896 223.779 229.444 202.712 229.444 181.138C229.444 159.564 222.896 138.497 210.667 120.724C198.437 102.951 181.101 89.3078 160.951 81.5987C177.079 75.4603 194.456 73.33 211.589 75.3908C228.722 77.4516 245.098 83.642 259.311 93.4299C273.523 103.218 285.146 116.31 293.18 131.582C301.215 146.854 305.421 163.849 305.437 181.105Z" fill="#F5F5F5"/>
<path d="M232.726 111.962C234.038 114.287 234.818 116.874 235.01 119.537C235.202 122.2 234.801 124.872 233.835 127.361C232.88 122.722 231.192 118.265 228.833 114.159C226.519 110.011 223.586 106.241 220.133 102.979C222.765 103.454 225.259 104.506 227.436 106.059C229.614 107.612 231.42 109.628 232.726 111.962Z" fill="#E6E6E6"/>
<path d="M285.296 158.746C284.606 161.324 283.355 163.717 281.633 165.754C279.911 167.792 277.761 169.425 275.335 170.535C277.89 166.507 279.798 162.104 280.99 157.485C282.227 152.909 282.762 148.171 282.577 143.434C284.142 145.623 285.198 148.134 285.668 150.783C286.138 153.432 286.011 156.153 285.296 158.746Z" fill="#E6E6E6"/>
<path d="M278.706 228.956C276.855 230.874 274.601 232.358 272.108 233.302C269.615 234.246 266.943 234.626 264.286 234.415C268.447 232.155 272.233 229.264 275.509 225.845C278.812 222.45 281.577 218.57 283.708 214.34C284.002 216.994 283.706 219.68 282.841 222.207C281.976 224.733 280.564 227.038 278.706 228.956Z" fill="#E6E6E6"/>
<path d="M230.007 264.626C228.157 266.547 225.905 268.035 223.411 268.982C220.918 269.93 218.246 270.314 215.587 270.107C223.941 265.521 230.712 258.515 235.01 250.01C235.311 252.665 235.018 255.353 234.153 257.881C233.288 260.409 231.872 262.712 230.007 264.626Z" fill="#E6E6E6"/>
<path d="M255.716 193.677C255.153 196.283 254.021 198.733 252.4 200.85C250.78 202.967 248.711 204.699 246.342 205.922C251.024 197.628 253.1 188.117 252.301 178.626C253.956 180.722 255.121 183.161 255.712 185.765C256.303 188.369 256.304 191.072 255.716 193.677Z" fill="#E6E6E6"/>
<path d="M822.633 254.077C822.002 254.077 821.385 253.894 820.856 253.55C820.327 253.207 819.909 252.717 819.653 252.141C813.476 238.178 848.32 213.992 885.926 197.331C923.532 180.67 964.857 171.079 971.055 185.042C971.228 185.435 971.322 185.858 971.331 186.287C971.341 186.716 971.266 187.142 971.11 187.542C970.955 187.942 970.722 188.308 970.425 188.618C970.128 188.927 969.773 189.176 969.381 189.349C968.988 189.522 968.565 189.615 968.136 189.625C967.707 189.634 967.281 189.559 966.881 189.403C966.481 189.248 966.115 189.015 965.805 188.718C965.496 188.422 965.247 188.067 965.074 187.674C962.312 181.453 931.144 184.411 888.579 203.291C846.014 222.17 822.85 243.246 825.504 249.488C825.688 249.881 825.791 250.307 825.807 250.741C825.823 251.174 825.752 251.607 825.598 252.013C825.444 252.418 825.21 252.789 824.91 253.103C824.609 253.416 824.249 253.666 823.851 253.838C823.464 253.997 823.051 254.078 822.633 254.077Z" fill="#F5F5F5"/>
<path d="M895.343 274.587C926.275 274.587 951.35 249.512 951.35 218.581C951.35 187.649 926.275 162.574 895.343 162.574C864.412 162.574 839.337 187.649 839.337 218.581C839.337 249.512 864.412 274.587 895.343 274.587Z" fill="#E6E6E6"/>
<path d="M836.031 258.927C827.157 258.927 821.654 256.752 819.653 252.141C819.476 251.746 819.378 251.319 819.367 250.886C819.355 250.453 819.429 250.022 819.585 249.618C819.741 249.213 819.975 248.844 820.274 248.53C820.573 248.217 820.931 247.966 821.328 247.791C821.721 247.607 822.147 247.504 822.581 247.488C823.014 247.472 823.447 247.543 823.853 247.697C824.258 247.851 824.629 248.085 824.943 248.386C825.256 248.686 825.506 249.046 825.678 249.444C826.548 251.402 832.464 253.925 849.19 251.054C867.471 247.414 885.261 241.64 902.195 233.85C944.694 215.036 967.88 193.916 965.074 187.631C964.725 186.837 964.706 185.938 965.02 185.13C965.334 184.323 965.956 183.673 966.749 183.324C967.542 182.975 968.442 182.955 969.249 183.269C970.057 183.584 970.707 184.206 971.056 184.999C977.233 198.962 942.389 223.148 904.783 239.809C887.352 247.812 869.044 253.746 850.234 257.492C845.548 258.368 840.797 258.848 836.031 258.927Z" fill="#F5F5F5"/>
<path d="M808.865 85.2745L810.714 88.9937C810.82 89.2074 810.976 89.3922 811.169 89.5323C811.363 89.6725 811.587 89.7638 811.823 89.7985L815.934 90.4075C816.207 90.4461 816.465 90.5606 816.677 90.7381C816.889 90.9156 817.047 91.1489 817.133 91.4116C817.219 91.6743 817.23 91.9558 817.164 92.2243C817.098 92.4928 816.958 92.7374 816.76 92.9305L813.78 95.845C813.608 96.0109 813.48 96.2172 813.408 96.4451C813.336 96.673 813.322 96.9153 813.367 97.15L814.063 101.239C814.116 101.516 814.088 101.801 813.984 102.063C813.879 102.324 813.703 102.55 813.474 102.714C813.246 102.879 812.975 102.975 812.694 102.991C812.413 103.007 812.134 102.942 811.888 102.805L808.212 100.869C807.996 100.762 807.758 100.706 807.516 100.706C807.275 100.706 807.037 100.762 806.82 100.869L803.145 102.805C802.899 102.942 802.619 103.007 802.338 102.991C802.058 102.975 801.787 102.879 801.559 102.714C801.33 102.55 801.154 102.324 801.049 102.063C800.945 101.801 800.917 101.516 800.97 101.239L801.666 97.15C801.712 96.9135 801.697 96.6688 801.621 96.44C801.544 96.2113 801.41 96.0062 801.231 95.845L798.229 92.9305C798.031 92.7374 797.892 92.4928 797.826 92.2243C797.76 91.9558 797.771 91.6743 797.857 91.4116C797.943 91.1489 798.101 90.9156 798.313 90.7381C798.525 90.5606 798.782 90.4461 799.056 90.4075L803.166 89.7985C803.402 89.7638 803.627 89.6725 803.82 89.5323C804.013 89.3922 804.169 89.2074 804.276 88.9937L806.124 85.2745C806.235 85.0019 806.425 84.7685 806.669 84.6042C806.913 84.4399 807.2 84.3521 807.495 84.3521C807.789 84.3521 808.076 84.4399 808.321 84.6042C808.565 84.7685 808.754 85.0019 808.865 85.2745Z" fill="#F5F5F5"/>
<path d="M130.783 451.22L132.676 454.939C132.784 455.154 132.94 455.34 133.133 455.484C133.325 455.627 133.549 455.724 133.785 455.766L137.896 456.353C138.169 456.396 138.426 456.514 138.636 456.694C138.847 456.874 139.004 457.109 139.089 457.372C139.175 457.636 139.186 457.918 139.121 458.187C139.056 458.456 138.918 458.702 138.722 458.898L135.742 461.791C135.572 461.958 135.445 462.164 135.373 462.392C135.301 462.619 135.286 462.861 135.329 463.096L136.025 467.207C136.078 467.483 136.05 467.769 135.946 468.03C135.841 468.291 135.665 468.517 135.436 468.682C135.208 468.846 134.937 468.942 134.656 468.958C134.375 468.974 134.096 468.91 133.85 468.773L130.174 466.837C129.961 466.719 129.722 466.657 129.478 466.657C129.235 466.657 128.995 466.719 128.782 466.837L125.107 468.773C124.861 468.91 124.581 468.974 124.3 468.958C124.02 468.942 123.749 468.846 123.521 468.682C123.292 468.517 123.116 468.291 123.011 468.03C122.907 467.769 122.879 467.483 122.932 467.207L123.628 463.096C123.671 462.861 123.656 462.619 123.584 462.392C123.512 462.164 123.385 461.958 123.214 461.791L120.235 458.898C120.039 458.702 119.9 458.456 119.836 458.187C119.771 457.918 119.782 457.636 119.867 457.372C119.953 457.109 120.11 456.874 120.32 456.694C120.531 456.514 120.787 456.396 121.061 456.353L125.172 455.766C125.408 455.724 125.632 455.627 125.824 455.484C126.017 455.34 126.173 455.154 126.281 454.939L128.13 451.22C128.252 450.972 128.441 450.764 128.675 450.618C128.91 450.472 129.181 450.395 129.457 450.395C129.733 450.395 130.003 450.472 130.238 450.618C130.472 450.764 130.661 450.972 130.783 451.22Z" fill="#E6E6E6"/>
<path d="M660.268 613.498L662.095 617.217C662.202 617.435 662.361 617.622 662.559 617.763C662.756 617.903 662.986 617.992 663.226 618.022L667.337 618.631C667.609 618.673 667.864 618.79 668.073 618.968C668.282 619.147 668.437 619.381 668.521 619.643C668.604 619.905 668.613 620.185 668.546 620.452C668.479 620.719 668.339 620.962 668.142 621.154L665.184 624.068C665.009 624.233 664.878 624.438 664.803 624.666C664.727 624.894 664.708 625.137 664.749 625.373L665.445 629.484C665.497 629.76 665.469 630.046 665.365 630.307C665.261 630.569 665.084 630.795 664.856 630.959C664.627 631.124 664.357 631.22 664.076 631.236C663.795 631.252 663.515 631.187 663.27 631.05L659.594 629.114C659.385 628.996 659.149 628.934 658.909 628.934C658.669 628.934 658.433 628.996 658.224 629.114L654.526 631.05C654.28 631.178 654.002 631.236 653.725 631.216C653.448 631.196 653.182 631.099 652.957 630.937C652.731 630.774 652.555 630.552 652.448 630.296C652.341 630.04 652.308 629.758 652.351 629.484L653.069 625.373C653.104 625.137 653.083 624.895 653.007 624.669C652.932 624.442 652.804 624.236 652.634 624.068L649.654 621.154C649.456 620.961 649.317 620.716 649.251 620.448C649.185 620.179 649.196 619.897 649.282 619.635C649.368 619.372 649.526 619.139 649.738 618.961C649.949 618.784 650.207 618.669 650.481 618.631L654.591 618.022C654.831 617.989 655.059 617.898 655.256 617.758C655.452 617.618 655.613 617.432 655.722 617.217L657.549 613.498C657.67 613.239 657.862 613.021 658.103 612.867C658.344 612.714 658.623 612.633 658.909 612.633C659.194 612.633 659.474 612.714 659.714 612.867C659.955 613.021 660.147 613.239 660.268 613.498Z" fill="#E6E6E6"/>
<path d="M633.885 0.427296L634.995 2.60231C635.056 2.72896 635.148 2.83868 635.262 2.92203C635.376 3.00539 635.508 3.05988 635.647 3.08081L638.105 3.42881C638.27 3.4516 638.426 3.5204 638.554 3.62737C638.683 3.73434 638.778 3.87519 638.83 4.03386C638.883 4.19254 638.889 4.36267 638.849 4.52487C638.809 4.68708 638.725 4.83483 638.605 4.95131L636.822 6.69133C636.721 6.79219 636.646 6.91638 636.604 7.05293C636.562 7.18948 636.555 7.3342 636.582 7.47433L636.996 9.91035C637.03 10.0746 637.017 10.2453 636.957 10.402C636.897 10.5587 636.793 10.6947 636.657 10.7936C636.521 10.8924 636.36 10.9499 636.192 10.9592C636.025 10.9684 635.858 10.929 635.712 10.8456L633.537 9.69284C633.409 9.62788 633.268 9.59402 633.124 9.59402C632.98 9.59402 632.839 9.62788 632.711 9.69284L630.536 10.8456C630.389 10.9197 630.225 10.9519 630.061 10.9387C629.898 10.9254 629.741 10.8672 629.608 10.7705C629.475 10.6738 629.372 10.5423 629.309 10.3905C629.247 10.2387 629.227 10.0726 629.253 9.91035L629.688 7.47433C629.707 7.33254 629.693 7.18823 629.648 7.05248C629.603 6.91674 629.527 6.79318 629.427 6.69133L627.643 4.95131C627.523 4.83483 627.439 4.68708 627.399 4.52487C627.359 4.36267 627.366 4.19254 627.418 4.03386C627.47 3.87519 627.566 3.73434 627.694 3.62737C627.822 3.5204 627.978 3.4516 628.143 3.42881L630.601 3.08081C630.74 3.05988 630.873 3.00539 630.986 2.92203C631.1 2.83868 631.192 2.72896 631.254 2.60231L632.363 0.427296C632.442 0.296794 632.554 0.188953 632.688 0.114125C632.821 0.0392978 632.971 0 633.124 0C633.277 0 633.427 0.0392978 633.561 0.114125C633.694 0.188953 633.806 0.296794 633.885 0.427296Z" fill="#E6E6E6"/>
<path d="M247.125 385.122L248.234 387.297C248.296 387.423 248.388 387.533 248.501 387.616C248.615 387.7 248.747 387.754 248.887 387.775L251.344 388.145C251.51 388.163 251.667 388.228 251.797 388.332C251.926 388.437 252.023 388.577 252.076 388.735C252.129 388.893 252.135 389.063 252.094 389.224C252.053 389.386 251.966 389.532 251.845 389.646L250.061 391.386C249.96 391.486 249.885 391.611 249.844 391.747C249.802 391.884 249.794 392.028 249.822 392.169L250.235 394.626C250.261 394.789 250.241 394.955 250.178 395.107C250.116 395.258 250.012 395.39 249.879 395.487C249.747 395.583 249.59 395.641 249.426 395.655C249.263 395.668 249.098 395.636 248.952 395.562L246.777 394.409C246.652 394.334 246.509 394.295 246.364 394.295C246.218 394.295 246.075 394.334 245.95 394.409L243.775 395.562C243.628 395.642 243.461 395.679 243.294 395.668C243.127 395.658 242.966 395.601 242.829 395.503C242.693 395.406 242.587 395.272 242.524 395.116C242.46 394.961 242.442 394.792 242.47 394.626L242.905 392.169C242.925 392.027 242.911 391.883 242.866 391.747C242.821 391.611 242.745 391.487 242.644 391.386L240.861 389.646C240.739 389.532 240.652 389.386 240.611 389.224C240.57 389.063 240.577 388.893 240.629 388.735C240.682 388.577 240.779 388.437 240.909 388.332C241.038 388.228 241.195 388.163 241.361 388.145L243.819 387.775C243.958 387.754 244.09 387.7 244.204 387.616C244.318 387.533 244.409 387.423 244.471 387.297L245.581 385.122C245.654 384.98 245.765 384.862 245.901 384.779C246.037 384.696 246.193 384.652 246.353 384.652C246.512 384.652 246.668 384.696 246.804 384.779C246.941 384.862 247.051 384.98 247.125 385.122Z" fill="#F5F5F5"/>
<path d="M136.047 592.857L137.134 595.032C137.197 595.164 137.291 595.279 137.409 595.366C137.527 595.454 137.664 595.51 137.809 595.532L140.266 595.88C140.43 595.906 140.583 595.977 140.709 596.086C140.834 596.194 140.927 596.335 140.977 596.493C141.026 596.651 141.031 596.82 140.99 596.981C140.949 597.141 140.864 597.287 140.745 597.403L138.983 599.143C138.877 599.24 138.797 599.363 138.751 599.5C138.705 599.637 138.695 599.784 138.722 599.926L139.201 602.405C139.235 602.569 139.222 602.74 139.162 602.897C139.102 603.053 138.998 603.189 138.862 603.288C138.726 603.387 138.565 603.445 138.397 603.454C138.23 603.463 138.063 603.424 137.917 603.34L135.742 602.188C135.614 602.123 135.473 602.089 135.329 602.089C135.186 602.089 135.044 602.123 134.916 602.188L132.741 603.34C132.595 603.424 132.429 603.463 132.261 603.454C132.093 603.445 131.932 603.387 131.796 603.288C131.661 603.189 131.557 603.053 131.497 602.897C131.436 602.74 131.423 602.569 131.458 602.405L131.871 599.969C131.898 599.827 131.888 599.681 131.842 599.544C131.796 599.407 131.716 599.284 131.61 599.186L129.826 597.446C129.707 597.33 129.622 597.182 129.582 597.02C129.542 596.857 129.549 596.687 129.601 596.529C129.653 596.37 129.749 596.229 129.877 596.122C130.005 596.015 130.161 595.946 130.327 595.924L132.784 595.576C132.928 595.55 133.064 595.492 133.181 595.405C133.298 595.318 133.393 595.205 133.459 595.075L134.546 592.9C134.627 592.777 134.736 592.674 134.865 592.602C134.993 592.53 135.138 592.49 135.285 592.486C135.433 592.481 135.579 592.513 135.712 592.578C135.844 592.642 135.959 592.738 136.047 592.857Z" fill="#F5F5F5"/>
<path d="M910.851 593.183L911.96 595.358C912.024 595.488 912.119 595.599 912.237 595.683C912.355 595.766 912.491 595.819 912.635 595.837L915.092 596.185C915.256 596.211 915.409 596.282 915.535 596.39C915.66 596.499 915.753 596.64 915.803 596.798C915.852 596.956 915.857 597.125 915.816 597.286C915.775 597.446 915.69 597.592 915.571 597.707L913.809 599.447C913.704 599.546 913.626 599.669 913.58 599.806C913.534 599.942 913.523 600.088 913.548 600.23L913.961 602.666C913.996 602.83 913.983 603.001 913.923 603.158C913.862 603.315 913.758 603.451 913.623 603.549C913.487 603.648 913.326 603.706 913.158 603.715C912.991 603.724 912.824 603.685 912.678 603.601L910.503 602.449C910.375 602.384 910.234 602.35 910.09 602.35C909.946 602.35 909.805 602.384 909.677 602.449L907.502 603.601C907.354 603.682 907.188 603.719 907.02 603.708C906.853 603.698 906.692 603.641 906.556 603.543C906.42 603.445 906.314 603.311 906.25 603.156C906.187 603.001 906.168 602.831 906.197 602.666L906.632 600.23C906.656 600.088 906.645 599.942 906.6 599.806C906.554 599.669 906.476 599.546 906.371 599.447L904.587 597.707C904.467 597.591 904.383 597.443 904.343 597.281C904.303 597.119 904.31 596.948 904.362 596.79C904.414 596.631 904.51 596.49 904.638 596.383C904.766 596.276 904.922 596.207 905.087 596.185L907.545 595.837C907.687 595.816 907.822 595.761 907.94 595.678C908.057 595.595 908.153 595.485 908.219 595.358L909.307 593.183C909.385 593.048 909.498 592.935 909.633 592.857C909.769 592.779 909.923 592.738 910.079 592.738C910.236 592.738 910.389 592.779 910.525 592.857C910.66 592.935 910.773 593.048 910.851 593.183Z" fill="#E6E6E6"/>
<path d="M374.08 70.4844C375.678 70.4844 376.973 69.1892 376.973 67.5916C376.973 65.994 375.678 64.6989 374.08 64.6989C372.483 64.6989 371.187 65.994 371.187 67.5916C371.187 69.1892 372.483 70.4844 374.08 70.4844Z" fill="#E6E6E6"/>
<path d="M674.645 102.979C674.649 103.552 674.483 104.113 674.168 104.592C673.853 105.071 673.403 105.445 672.874 105.667C672.346 105.889 671.764 105.95 671.201 105.841C670.639 105.731 670.121 105.458 669.715 105.054C669.308 104.65 669.03 104.135 668.917 103.573C668.803 103.011 668.859 102.429 669.078 101.899C669.296 101.369 669.667 100.916 670.143 100.597C670.619 100.278 671.179 100.108 671.752 100.108C672.516 100.108 673.248 100.41 673.79 100.948C674.332 101.485 674.639 102.216 674.645 102.979Z" fill="#F5F5F5"/>
<path d="M359.268 332.617C360.866 332.617 362.161 331.322 362.161 329.724C362.161 328.126 360.866 326.831 359.268 326.831C357.671 326.831 356.376 328.126 356.376 329.724C356.376 331.322 357.671 332.617 359.268 332.617Z" fill="#F5F5F5"/>
<path d="M267.157 547.073C267.161 547.647 266.994 548.209 266.678 548.688C266.362 549.167 265.91 549.541 265.381 549.763C264.852 549.984 264.268 550.044 263.705 549.933C263.142 549.822 262.624 549.546 262.218 549.14C261.813 548.734 261.537 548.217 261.426 547.653C261.315 547.09 261.374 546.507 261.596 545.977C261.817 545.448 262.191 544.996 262.67 544.68C263.149 544.364 263.712 544.197 264.286 544.202C265.047 544.202 265.777 544.504 266.316 545.043C266.854 545.581 267.157 546.311 267.157 547.073Z" fill="#F5F5F5"/>
<path d="M870.722 376.117C872.32 376.117 873.615 374.822 873.615 373.224C873.615 371.627 872.32 370.331 870.722 370.331C869.125 370.331 867.83 371.627 867.83 373.224C867.83 374.822 869.125 376.117 870.722 376.117Z" fill="#E6E6E6"/>
<path d="M543.753 856.577C776.658 856.577 965.466 845.554 965.466 831.956C965.466 818.358 776.658 807.335 543.753 807.335C310.847 807.335 122.04 818.358 122.04 831.956C122.04 845.554 310.847 856.577 543.753 856.577Z" fill="#F5F5F5"/>
<path d="M355.527 187.043C355.003 187.041 354.485 186.925 354.01 186.703C353.535 186.48 353.114 186.157 352.777 185.755C352.439 185.354 352.193 184.883 352.056 184.377C351.919 183.871 351.894 183.341 351.982 182.824L353.178 175.929C353.213 175.701 353.193 175.468 353.121 175.249C353.049 175.03 352.927 174.831 352.765 174.667L347.741 169.774C347.257 169.306 346.915 168.712 346.753 168.059C346.591 167.406 346.616 166.721 346.825 166.082C347.033 165.442 347.417 164.874 347.933 164.443C348.449 164.011 349.076 163.733 349.742 163.64L356.68 162.64C356.907 162.602 357.122 162.512 357.307 162.376C357.492 162.24 357.643 162.062 357.746 161.857L360.834 155.571C361.127 154.953 361.589 154.432 362.167 154.066C362.744 153.701 363.413 153.507 364.097 153.507C364.78 153.507 365.45 153.701 366.027 154.066C366.605 154.432 367.067 154.953 367.359 155.571L370.448 161.857C370.553 162.065 370.707 162.244 370.896 162.381C371.086 162.517 371.305 162.606 371.535 162.64L378.452 163.705C379.118 163.798 379.745 164.076 380.261 164.508C380.776 164.939 381.161 165.507 381.369 166.147C381.578 166.786 381.602 167.471 381.441 168.124C381.279 168.777 380.936 169.371 380.453 169.839L375.363 174.58C375.2 174.743 375.08 174.943 375.011 175.163C374.943 175.383 374.93 175.616 374.972 175.842L376.146 182.737C376.262 183.399 376.189 184.08 375.936 184.702C375.684 185.324 375.261 185.864 374.717 186.258C374.173 186.652 373.53 186.886 372.86 186.933C372.189 186.979 371.52 186.837 370.926 186.521L364.728 183.259C364.525 183.146 364.296 183.087 364.064 183.087C363.832 183.087 363.604 183.146 363.401 183.259L357.202 186.5C356.698 186.818 356.122 187.005 355.527 187.043ZM364.075 155.745C363.808 155.736 363.545 155.806 363.317 155.945C363.089 156.084 362.906 156.286 362.792 156.528L359.682 162.814C359.427 163.338 359.048 163.792 358.578 164.137C358.108 164.482 357.561 164.707 356.985 164.793L350.046 165.793C349.785 165.831 349.539 165.941 349.337 166.111C349.135 166.282 348.984 166.505 348.903 166.757C348.821 167.008 348.812 167.277 348.876 167.534C348.939 167.79 349.074 168.024 349.263 168.208L354.288 173.101C354.704 173.512 355.015 174.017 355.193 174.574C355.371 175.131 355.411 175.723 355.31 176.299L354.135 183.193C354.089 183.453 354.117 183.721 354.215 183.966C354.313 184.211 354.478 184.424 354.691 184.58C354.904 184.736 355.156 184.829 355.419 184.85C355.682 184.87 355.946 184.816 356.18 184.694L362.4 181.432C362.914 181.163 363.485 181.023 364.064 181.023C364.644 181.023 365.215 181.163 365.728 181.432L371.949 184.694C372.178 184.84 372.445 184.916 372.717 184.914C372.989 184.912 373.254 184.831 373.481 184.682C373.708 184.533 373.888 184.321 373.998 184.073C374.108 183.824 374.144 183.549 374.102 183.28L372.927 176.386C372.832 175.81 372.874 175.22 373.052 174.664C373.23 174.108 373.538 173.602 373.95 173.188L378.974 168.295C379.169 168.113 379.307 167.879 379.372 167.62C379.438 167.362 379.428 167.09 379.344 166.837C379.261 166.586 379.108 166.363 378.905 166.194C378.701 166.024 378.453 165.916 378.191 165.88L371.253 164.88C370.676 164.794 370.129 164.569 369.659 164.224C369.19 163.879 368.811 163.425 368.556 162.901L365.402 156.528C365.285 156.279 365.096 156.072 364.859 155.932C364.622 155.793 364.349 155.727 364.075 155.745Z" fill="#FFC100"/>
<path opacity="0.5" d="M355.527 187.043C355.003 187.041 354.485 186.925 354.01 186.703C353.535 186.48 353.114 186.157 352.777 185.755C352.439 185.354 352.193 184.883 352.056 184.377C351.919 183.871 351.894 183.341 351.982 182.824L353.178 175.929C353.213 175.701 353.193 175.468 353.121 175.249C353.049 175.03 352.927 174.831 352.765 174.667L347.741 169.774C347.257 169.306 346.915 168.712 346.753 168.059C346.591 167.406 346.616 166.721 346.825 166.082C347.033 165.442 347.417 164.874 347.933 164.443C348.449 164.011 349.076 163.733 349.742 163.64L356.68 162.64C356.907 162.602 357.122 162.512 357.307 162.376C357.492 162.24 357.643 162.062 357.746 161.857L360.834 155.571C361.127 154.953 361.589 154.432 362.167 154.066C362.744 153.701 363.413 153.507 364.097 153.507C364.78 153.507 365.45 153.701 366.027 154.066C366.605 154.432 367.067 154.953 367.359 155.571L370.448 161.857C370.553 162.065 370.707 162.244 370.896 162.381C371.086 162.517 371.305 162.606 371.535 162.64L378.452 163.705C379.118 163.798 379.745 164.076 380.261 164.508C380.776 164.939 381.161 165.507 381.369 166.147C381.578 166.786 381.602 167.471 381.441 168.124C381.279 168.777 380.936 169.371 380.453 169.839L375.363 174.58C375.2 174.743 375.08 174.943 375.011 175.163C374.943 175.383 374.93 175.616 374.972 175.842L376.146 182.737C376.262 183.399 376.189 184.08 375.936 184.702C375.684 185.324 375.261 185.864 374.717 186.258C374.173 186.652 373.53 186.886 372.86 186.933C372.189 186.979 371.52 186.837 370.926 186.521L364.728 183.259C364.525 183.146 364.296 183.087 364.064 183.087C363.832 183.087 363.604 183.146 363.401 183.259L357.202 186.5C356.698 186.818 356.122 187.005 355.527 187.043ZM364.075 155.745C363.808 155.736 363.545 155.806 363.317 155.945C363.089 156.084 362.906 156.286 362.792 156.528L359.682 162.814C359.427 163.338 359.048 163.792 358.578 164.137C358.108 164.482 357.561 164.707 356.985 164.793L350.046 165.793C349.785 165.831 349.539 165.941 349.337 166.111C349.135 166.282 348.984 166.505 348.903 166.757C348.821 167.008 348.812 167.277 348.876 167.534C348.939 167.79 349.074 168.024 349.263 168.208L354.288 173.101C354.704 173.512 355.015 174.017 355.193 174.574C355.371 175.131 355.411 175.723 355.31 176.299L354.135 183.193C354.089 183.453 354.117 183.721 354.215 183.966C354.313 184.211 354.478 184.424 354.691 184.58C354.904 184.736 355.156 184.829 355.419 184.85C355.682 184.87 355.946 184.816 356.18 184.694L362.4 181.432C362.914 181.163 363.485 181.023 364.064 181.023C364.644 181.023 365.215 181.163 365.728 181.432L371.949 184.694C372.178 184.84 372.445 184.916 372.717 184.914C372.989 184.912 373.254 184.831 373.481 184.682C373.708 184.533 373.888 184.321 373.998 184.073C374.108 183.824 374.144 183.549 374.102 183.28L372.927 176.386C372.832 175.81 372.874 175.22 373.052 174.664C373.23 174.108 373.538 173.602 373.95 173.188L378.974 168.295C379.169 168.113 379.307 167.879 379.372 167.62C379.438 167.362 379.428 167.09 379.344 166.837C379.261 166.586 379.108 166.363 378.905 166.194C378.701 166.024 378.453 165.916 378.191 165.88L371.253 164.88C370.676 164.794 370.129 164.569 369.659 164.224C369.19 163.879 368.811 163.425 368.556 162.901L365.402 156.528C365.285 156.279 365.096 156.072 364.859 155.932C364.622 155.793 364.349 155.727 364.075 155.745Z" fill="white"/>
<path d="M479.916 123.446L480.547 136.866C480.571 137.635 480.782 138.388 481.161 139.058C481.54 139.729 482.075 140.297 482.722 140.716L494.119 147.806C494.878 148.281 495.489 148.958 495.883 149.762C496.278 150.565 496.44 151.463 496.352 152.354C496.264 153.245 495.929 154.093 495.384 154.804C494.84 155.514 494.108 156.059 493.271 156.376L480.721 161.117C479.993 161.387 479.343 161.832 478.827 162.412C478.311 162.992 477.946 163.69 477.763 164.445L474.544 177.495C474.331 178.367 473.879 179.161 473.238 179.789C472.597 180.417 471.793 180.853 470.917 181.048C470.041 181.242 469.128 181.188 468.282 180.891C467.435 180.593 466.689 180.065 466.127 179.365L457.731 168.882C457.251 168.269 456.626 167.785 455.912 167.474C455.198 167.163 454.418 167.034 453.642 167.098L440.266 168.055C439.375 168.115 438.486 167.925 437.697 167.508C436.908 167.09 436.251 166.461 435.799 165.691C435.347 164.921 435.119 164.041 435.14 163.148C435.16 162.256 435.429 161.387 435.916 160.639L443.289 149.416C443.705 148.779 443.962 148.051 444.038 147.294C444.114 146.537 444.006 145.772 443.724 145.066L438.678 132.624C438.322 131.792 438.208 130.877 438.349 129.983C438.49 129.089 438.881 128.253 439.476 127.571C440.072 126.889 440.848 126.389 441.714 126.129C442.581 125.869 443.504 125.858 444.377 126.099L457.318 129.645C458.066 129.848 458.853 129.867 459.61 129.7C460.368 129.534 461.074 129.186 461.668 128.688L471.934 119.988C472.618 119.385 473.46 118.989 474.361 118.846C475.263 118.704 476.186 118.821 477.023 119.183C477.86 119.546 478.576 120.14 479.089 120.894C479.601 121.649 479.888 122.534 479.916 123.446Z" fill="#FFC100"/>
<path opacity="0.2" d="M479.916 123.446L480.547 136.866C480.571 137.635 480.782 138.388 481.161 139.058C481.54 139.729 482.075 140.297 482.722 140.716L494.119 147.806C494.878 148.281 495.489 148.958 495.883 149.762C496.278 150.565 496.44 151.463 496.352 152.354C496.264 153.245 495.929 154.093 495.384 154.804C494.84 155.514 494.108 156.059 493.271 156.376L480.721 161.117C479.993 161.387 479.343 161.832 478.827 162.412C478.311 162.992 477.946 163.69 477.763 164.445L474.544 177.495C474.331 178.367 473.879 179.161 473.238 179.789C472.597 180.417 471.793 180.853 470.917 181.048C470.041 181.242 469.128 181.188 468.282 180.891C467.435 180.593 466.689 180.065 466.127 179.365L457.731 168.882C457.251 168.269 456.626 167.785 455.912 167.474C455.198 167.163 454.418 167.034 453.642 167.098L440.266 168.055C439.375 168.115 438.486 167.925 437.697 167.508C436.908 167.09 436.251 166.461 435.799 165.691C435.347 164.921 435.119 164.041 435.14 163.148C435.16 162.256 435.429 161.387 435.916 160.639L443.289 149.416C443.705 148.779 443.962 148.051 444.038 147.294C444.114 146.537 444.006 145.772 443.724 145.066L438.678 132.624C438.322 131.792 438.208 130.877 438.349 129.983C438.49 129.089 438.881 128.253 439.476 127.571C440.072 126.889 440.848 126.389 441.714 126.129C442.581 125.869 443.504 125.858 444.377 126.099L457.318 129.645C458.066 129.848 458.853 129.867 459.61 129.7C460.368 129.534 461.074 129.186 461.668 128.688L471.934 119.988C472.618 119.385 473.46 118.989 474.361 118.846C475.263 118.704 476.186 118.821 477.023 119.183C477.86 119.546 478.576 120.14 479.089 120.894C479.601 121.649 479.888 122.534 479.916 123.446Z" fill="black"/>
<path d="M757.187 354.845C756.381 354.835 755.586 354.661 754.85 354.335C754.113 354.009 753.451 353.537 752.902 352.947C752.353 352.358 751.929 351.663 751.656 350.905C751.383 350.147 751.267 349.342 751.314 348.538L752.228 335.14C752.269 334.541 752.164 333.94 751.922 333.391C751.679 332.841 751.306 332.359 750.836 331.986L740.33 323.634C739.469 322.954 738.815 322.047 738.442 321.015C738.068 319.983 737.99 318.868 738.216 317.794C738.442 316.721 738.963 315.731 739.721 314.938C740.479 314.144 741.443 313.578 742.505 313.303L755.555 310.04C756.142 309.901 756.684 309.616 757.132 309.214C757.58 308.811 757.92 308.303 758.122 307.735L762.82 295.163C763.206 294.136 763.872 293.237 764.741 292.567C765.611 291.898 766.65 291.484 767.742 291.373C768.834 291.263 769.935 291.459 770.922 291.94C771.908 292.421 772.74 293.168 773.325 294.097L780.459 305.473C780.776 305.984 781.213 306.411 781.732 306.714C782.252 307.017 782.838 307.189 783.439 307.213L796.859 307.8C797.962 307.834 799.033 308.178 799.951 308.792C800.868 309.405 801.595 310.264 802.048 311.27C802.502 312.277 802.663 313.39 802.515 314.484C802.367 315.578 801.914 316.608 801.209 317.457L792.509 327.745C792.101 328.206 791.813 328.762 791.673 329.361C791.532 329.961 791.543 330.587 791.704 331.181L795.293 344.123C795.591 345.179 795.586 346.298 795.278 347.352C794.971 348.406 794.373 349.352 793.553 350.082C792.733 350.816 791.724 351.306 790.641 351.499C789.557 351.691 788.442 351.577 787.419 351.17L774.978 346.145C774.42 345.921 773.816 345.836 773.217 345.896C772.619 345.957 772.044 346.162 771.542 346.493L760.362 353.91C759.413 354.514 758.312 354.839 757.187 354.845ZM768.388 293.51H767.996C767.303 293.569 766.642 293.826 766.09 294.25C765.539 294.674 765.121 295.248 764.886 295.903L760.188 308.474C759.86 309.373 759.315 310.177 758.602 310.814C757.889 311.452 757.029 311.903 756.099 312.128L743.049 315.391C742.374 315.558 741.76 315.911 741.276 316.41C740.792 316.909 740.457 317.533 740.31 318.213C740.163 318.892 740.209 319.599 740.443 320.254C740.677 320.908 741.09 321.484 741.635 321.916L752.141 330.268C752.882 330.862 753.468 331.628 753.847 332.5C754.226 333.372 754.387 334.322 754.316 335.27L753.402 348.668C753.345 349.359 753.487 350.052 753.81 350.664C754.134 351.277 754.626 351.785 755.229 352.127C755.816 352.493 756.495 352.687 757.187 352.687C757.879 352.687 758.557 352.493 759.144 352.127L770.345 344.71C771.139 344.183 772.048 343.857 772.995 343.759C773.942 343.66 774.898 343.792 775.783 344.144L788.246 349.169C788.88 349.415 789.569 349.482 790.239 349.364C790.909 349.246 791.533 348.946 792.044 348.497C792.556 348.049 792.934 347.469 793.139 346.82C793.343 346.172 793.366 345.479 793.205 344.819L789.616 331.877C789.359 330.959 789.33 329.992 789.531 329.059C789.732 328.127 790.157 327.258 790.769 326.527L799.469 316.239C799.909 315.704 800.191 315.057 800.285 314.371C800.379 313.685 800.281 312.986 800.002 312.353C799.722 311.719 799.272 311.176 798.702 310.783C798.132 310.39 797.463 310.163 796.772 310.127L783.374 309.562C782.419 309.518 781.489 309.245 780.663 308.763C779.838 308.282 779.141 307.609 778.632 306.799L771.52 295.424C771.213 294.857 770.762 294.381 770.212 294.045C769.662 293.709 769.032 293.524 768.388 293.51Z" fill="#FFC100"/>
<path opacity="0.5" d="M757.187 354.845C756.381 354.835 755.586 354.661 754.85 354.335C754.113 354.009 753.451 353.537 752.902 352.947C752.353 352.358 751.929 351.663 751.656 350.905C751.383 350.147 751.267 349.342 751.314 348.538L752.228 335.14C752.269 334.541 752.164 333.94 751.922 333.391C751.679 332.841 751.306 332.359 750.836 331.986L740.33 323.634C739.469 322.954 738.815 322.047 738.442 321.015C738.068 319.983 737.99 318.868 738.216 317.794C738.442 316.721 738.963 315.731 739.721 314.938C740.479 314.144 741.443 313.578 742.505 313.303L755.555 310.04C756.142 309.901 756.684 309.616 757.132 309.214C757.58 308.811 757.92 308.303 758.122 307.735L762.82 295.163C763.206 294.136 763.872 293.237 764.741 292.567C765.611 291.898 766.65 291.484 767.742 291.373C768.834 291.263 769.935 291.459 770.922 291.94C771.908 292.421 772.74 293.168 773.325 294.097L780.459 305.473C780.776 305.984 781.213 306.411 781.732 306.714C782.252 307.017 782.838 307.189 783.439 307.213L796.859 307.8C797.962 307.834 799.033 308.178 799.951 308.792C800.868 309.405 801.595 310.264 802.048 311.27C802.502 312.277 802.663 313.39 802.515 314.484C802.367 315.578 801.914 316.608 801.209 317.457L792.509 327.745C792.101 328.206 791.813 328.762 791.673 329.361C791.532 329.961 791.543 330.587 791.704 331.181L795.293 344.123C795.591 345.179 795.586 346.298 795.278 347.352C794.971 348.406 794.373 349.352 793.553 350.082C792.733 350.816 791.724 351.306 790.641 351.499C789.557 351.691 788.442 351.577 787.419 351.17L774.978 346.145C774.42 345.921 773.816 345.836 773.217 345.896C772.619 345.957 772.044 346.162 771.542 346.493L760.362 353.91C759.413 354.514 758.312 354.839 757.187 354.845ZM768.388 293.51H767.996C767.303 293.569 766.642 293.826 766.09 294.25C765.539 294.674 765.121 295.248 764.886 295.903L760.188 308.474C759.86 309.373 759.315 310.177 758.602 310.814C757.889 311.452 757.029 311.903 756.099 312.128L743.049 315.391C742.374 315.558 741.76 315.911 741.276 316.41C740.792 316.909 740.457 317.533 740.31 318.213C740.163 318.892 740.209 319.599 740.443 320.254C740.677 320.908 741.09 321.484 741.635 321.916L752.141 330.268C752.882 330.862 753.468 331.628 753.847 332.5C754.226 333.372 754.387 334.322 754.316 335.27L753.402 348.668C753.345 349.359 753.487 350.052 753.81 350.664C754.134 351.277 754.626 351.785 755.229 352.127C755.816 352.493 756.495 352.687 757.187 352.687C757.879 352.687 758.557 352.493 759.144 352.127L770.345 344.71C771.139 344.183 772.048 343.857 772.995 343.759C773.942 343.66 774.898 343.792 775.783 344.144L788.246 349.169C788.88 349.415 789.569 349.482 790.239 349.364C790.909 349.246 791.533 348.946 792.044 348.497C792.556 348.049 792.934 347.469 793.139 346.82C793.343 346.172 793.366 345.479 793.205 344.819L789.616 331.877C789.359 330.959 789.33 329.992 789.531 329.059C789.732 328.127 790.157 327.258 790.769 326.527L799.469 316.239C799.909 315.704 800.191 315.057 800.285 314.371C800.379 313.685 800.281 312.986 800.002 312.353C799.722 311.719 799.272 311.176 798.702 310.783C798.132 310.39 797.463 310.163 796.772 310.127L783.374 309.562C782.419 309.518 781.489 309.245 780.663 308.763C779.838 308.282 779.141 307.609 778.632 306.799L771.52 295.424C771.213 294.857 770.762 294.381 770.212 294.045C769.662 293.709 769.032 293.524 768.388 293.51Z" fill="white"/>
<path d="M767.322 443.325L765.539 450.024C765.444 450.402 765.442 450.797 765.533 451.175C765.624 451.554 765.805 451.905 766.061 452.199L770.563 457.462C770.865 457.815 771.061 458.244 771.131 458.703C771.2 459.161 771.14 459.63 770.957 460.056C770.773 460.482 770.474 460.848 770.093 461.112C769.712 461.376 769.264 461.529 768.801 461.551L761.885 461.921C761.483 461.948 761.094 462.071 760.75 462.279C760.406 462.487 760.116 462.775 759.905 463.117L756.295 469.033C756.042 469.4 755.696 469.693 755.292 469.881C754.889 470.07 754.442 470.147 753.999 470.105C753.555 470.062 753.131 469.903 752.77 469.642C752.409 469.381 752.124 469.028 751.945 468.62L749.465 462.095C749.316 461.722 749.081 461.389 748.778 461.125C748.476 460.86 748.115 460.671 747.725 460.573L740.983 458.963C740.529 458.859 740.113 458.63 739.783 458.3C739.454 457.971 739.223 457.556 739.119 457.102C739.015 456.648 739.04 456.173 739.193 455.733C739.346 455.293 739.619 454.905 739.982 454.613L745.376 450.263C745.693 450.003 745.941 449.668 746.096 449.288C746.252 448.908 746.311 448.496 746.268 448.088L745.724 441.172C745.71 440.721 745.818 440.275 746.038 439.881C746.258 439.487 746.581 439.161 746.972 438.938C747.364 438.714 747.809 438.601 748.26 438.611C748.71 438.622 749.15 438.755 749.531 438.997L755.36 442.759C755.699 442.975 756.085 443.108 756.486 443.145C756.887 443.183 757.291 443.125 757.665 442.977L764.06 440.302C764.492 440.145 764.959 440.11 765.409 440.201C765.859 440.292 766.276 440.506 766.613 440.818C766.95 441.13 767.195 441.53 767.32 441.972C767.445 442.414 767.446 442.882 767.322 443.325Z" fill="#FFC100"/>
<path opacity="0.2" d="M767.322 443.325L765.539 450.024C765.444 450.402 765.442 450.797 765.533 451.175C765.624 451.554 765.805 451.905 766.061 452.199L770.563 457.462C770.865 457.815 771.061 458.244 771.131 458.703C771.2 459.161 771.14 459.63 770.957 460.056C770.773 460.482 770.474 460.848 770.093 461.112C769.712 461.376 769.264 461.529 768.801 461.551L761.885 461.921C761.483 461.948 761.094 462.071 760.75 462.279C760.406 462.487 760.116 462.775 759.905 463.117L756.295 469.033C756.042 469.4 755.696 469.693 755.292 469.881C754.889 470.07 754.442 470.147 753.999 470.105C753.555 470.062 753.131 469.903 752.77 469.642C752.409 469.381 752.124 469.028 751.945 468.62L749.465 462.095C749.316 461.722 749.081 461.389 748.778 461.125C748.476 460.86 748.115 460.671 747.725 460.573L740.983 458.963C740.529 458.859 740.113 458.63 739.783 458.3C739.454 457.971 739.223 457.556 739.119 457.102C739.015 456.648 739.04 456.173 739.193 455.733C739.346 455.293 739.619 454.905 739.982 454.613L745.376 450.263C745.693 450.003 745.941 449.668 746.096 449.288C746.252 448.908 746.311 448.496 746.268 448.088L745.724 441.172C745.71 440.721 745.818 440.275 746.038 439.881C746.258 439.487 746.581 439.161 746.972 438.938C747.364 438.714 747.809 438.601 748.26 438.611C748.71 438.622 749.15 438.755 749.531 438.997L755.36 442.759C755.699 442.975 756.085 443.108 756.486 443.145C756.887 443.183 757.291 443.125 757.665 442.977L764.06 440.302C764.492 440.145 764.959 440.11 765.409 440.201C765.859 440.292 766.276 440.506 766.613 440.818C766.95 441.13 767.195 441.53 767.32 441.972C767.445 442.414 767.446 442.882 767.322 443.325Z" fill="black"/>
<path d="M361.465 452.09L360.247 456.636C360.182 456.899 360.18 457.174 360.241 457.438C360.301 457.703 360.422 457.949 360.595 458.158L363.662 461.682C363.864 461.923 363.995 462.215 364.041 462.525C364.087 462.836 364.045 463.154 363.921 463.442C363.797 463.731 363.595 463.98 363.338 464.16C363.081 464.341 362.779 464.447 362.466 464.466L357.768 464.727C357.497 464.74 357.234 464.821 357.002 464.961C356.771 465.102 356.578 465.298 356.441 465.532L353.983 469.534C353.822 469.803 353.588 470.022 353.308 470.165C353.028 470.308 352.714 470.37 352.401 470.343C352.088 470.315 351.788 470.201 351.537 470.011C351.287 469.822 351.094 469.566 350.982 469.273L349.285 464.923C349.19 464.666 349.033 464.436 348.828 464.254C348.623 464.072 348.377 463.943 348.111 463.879L343.543 462.791C343.237 462.721 342.957 462.565 342.735 462.343C342.512 462.121 342.357 461.84 342.287 461.534C342.217 461.228 342.234 460.908 342.337 460.611C342.44 460.314 342.624 460.052 342.869 459.855L346.501 456.897C346.715 456.727 346.885 456.508 346.995 456.258C347.105 456.007 347.152 455.734 347.132 455.461L346.74 450.763C346.719 450.449 346.785 450.136 346.931 449.857C347.077 449.579 347.298 449.346 347.569 449.186C347.84 449.026 348.15 448.944 348.464 448.95C348.779 448.956 349.086 449.049 349.35 449.219L353.287 451.764C353.516 451.916 353.778 452.009 354.051 452.035C354.324 452.062 354.6 452.021 354.853 451.916L359.203 450.111C359.492 449.99 359.809 449.953 360.117 450.004C360.426 450.054 360.715 450.19 360.95 450.396C361.186 450.602 361.359 450.87 361.45 451.17C361.541 451.469 361.546 451.788 361.465 452.09Z" fill="#FFC100"/>
<path opacity="0.2" d="M361.465 452.09L360.247 456.636C360.182 456.899 360.18 457.174 360.241 457.438C360.301 457.703 360.422 457.949 360.595 458.158L363.662 461.682C363.864 461.923 363.995 462.215 364.041 462.525C364.087 462.836 364.045 463.154 363.921 463.442C363.797 463.731 363.595 463.98 363.338 464.16C363.081 464.341 362.779 464.447 362.466 464.466L357.768 464.727C357.497 464.74 357.234 464.821 357.002 464.961C356.771 465.102 356.578 465.298 356.441 465.532L353.983 469.534C353.822 469.803 353.588 470.022 353.308 470.165C353.028 470.308 352.714 470.37 352.401 470.343C352.088 470.315 351.788 470.201 351.537 470.011C351.287 469.822 351.094 469.566 350.982 469.273L349.285 464.923C349.19 464.666 349.033 464.436 348.828 464.254C348.623 464.072 348.377 463.943 348.111 463.879L343.543 462.791C343.237 462.721 342.957 462.565 342.735 462.343C342.512 462.121 342.357 461.84 342.287 461.534C342.217 461.228 342.234 460.908 342.337 460.611C342.44 460.314 342.624 460.052 342.869 459.855L346.501 456.897C346.715 456.727 346.885 456.508 346.995 456.258C347.105 456.007 347.152 455.734 347.132 455.461L346.74 450.763C346.719 450.449 346.785 450.136 346.931 449.857C347.077 449.579 347.298 449.346 347.569 449.186C347.84 449.026 348.15 448.944 348.464 448.95C348.779 448.956 349.086 449.049 349.35 449.219L353.287 451.764C353.516 451.916 353.778 452.009 354.051 452.035C354.324 452.062 354.6 452.021 354.853 451.916L359.203 450.111C359.492 449.99 359.809 449.953 360.117 450.004C360.426 450.054 360.715 450.19 360.95 450.396C361.186 450.602 361.359 450.87 361.45 451.17C361.541 451.469 361.546 451.788 361.465 452.09Z" fill="black"/>
<path d="M771.824 551.314C717.253 551.314 659.616 528.999 623.576 490.871C587.21 452.373 577.465 403.696 596.149 353.845L604.283 356.89C586.883 403.5 595.931 448.958 629.905 484.911C675.776 533.457 758.231 555.186 821.632 535.437C891.842 513.686 919.073 461.878 945.412 411.852C974.905 355.824 1002.68 302.906 1087.51 302.906V311.606C1008.03 311.606 982.583 359.935 953.112 415.898C927.207 465.075 897.866 520.82 824.221 543.723C807.237 548.875 789.572 551.434 771.824 551.314Z" fill="#FFC100"/>
<path opacity="0.5" d="M771.824 551.314C717.253 551.314 659.616 528.999 623.576 490.871C587.21 452.373 577.465 403.696 596.149 353.845L604.283 356.89C586.883 403.5 595.931 448.958 629.905 484.911C675.776 533.457 758.231 555.186 821.632 535.437C891.842 513.686 919.073 461.878 945.412 411.852C974.905 355.824 1002.68 302.906 1087.51 302.906V311.606C1008.03 311.606 982.583 359.935 953.112 415.898C927.207 465.075 897.866 520.82 824.221 543.723C807.237 548.875 789.572 551.434 771.824 551.314Z" fill="white"/>
<path d="M581.163 295.228L578.227 296.381L575.508 297.403L570.07 299.252C566.438 300.448 562.784 301.427 559.195 302.493C551.695 304.486 544.084 306.032 536.401 307.126C528.203 308.337 519.91 308.789 511.628 308.474C506.968 308.243 502.334 307.632 497.773 306.647C493.137 305.6 488.602 304.144 484.223 302.297C467.236 294.793 455.012 282.94 445.355 270.564C440.62 264.387 436.387 257.841 432.697 250.989C430.892 247.596 429.173 244.224 427.629 240.744C426.846 239.004 426.106 237.243 425.454 235.481C424.801 233.719 424.149 231.979 423.388 229.869L442.702 220.321L445.638 224.018C446.682 225.302 447.704 226.585 448.792 227.846C450.967 230.391 453.142 232.892 455.317 235.307C459.613 240.09 464.181 244.621 468.998 248.879C473.492 252.92 478.331 256.559 483.462 259.754C485.825 261.209 488.265 262.538 490.77 263.734C493.107 264.792 495.521 265.672 497.991 266.366C502.511 267.731 507.265 268.146 511.954 267.584C517.768 267.133 523.54 266.254 529.224 264.952C535.27 263.647 541.469 262.038 547.646 260.211C550.756 259.362 553.845 258.384 556.933 257.427L562.371 255.447L581.163 295.228Z" fill="#FFC100"/>
<path opacity="0.6" d="M581.163 295.228L578.227 296.381L575.508 297.403L570.07 299.252C566.438 300.448 562.784 301.427 559.195 302.493C551.695 304.486 544.084 306.032 536.401 307.126C528.203 308.337 519.91 308.789 511.628 308.474C506.968 308.243 502.334 307.632 497.773 306.647C493.137 305.6 488.602 304.144 484.223 302.297C467.236 294.793 455.012 282.94 445.355 270.564C440.62 264.387 436.387 257.841 432.697 250.989C430.892 247.596 429.173 244.224 427.629 240.744C426.846 239.004 426.106 237.243 425.454 235.481C424.801 233.719 424.149 231.979 423.388 229.869L442.702 220.321L445.638 224.018C446.682 225.302 447.704 226.585 448.792 227.846C450.967 230.391 453.142 232.892 455.317 235.307C459.613 240.09 464.181 244.621 468.998 248.879C473.492 252.92 478.331 256.559 483.462 259.754C485.825 261.209 488.265 262.538 490.77 263.734C493.107 264.792 495.521 265.672 497.991 266.366C502.511 267.731 507.265 268.146 511.954 267.584C517.768 267.133 523.54 266.254 529.224 264.952C535.27 263.647 541.469 262.038 547.646 260.211C550.756 259.362 553.845 258.384 556.933 257.427L562.371 255.447L581.163 295.228Z" fill="white"/>
<path d="M562.153 255.447C562.153 255.447 523.482 293.445 508.953 386.949L601.695 423.576C607.263 411.287 621.27 348.494 658.245 294.88C649.473 287.966 639.943 282.07 629.84 277.306C616.966 271.456 603.805 266.258 590.407 261.733C581.144 258.994 571.704 256.894 562.153 255.447Z" fill="#FFC100"/>
<path opacity="0.6" d="M562.153 255.447C562.153 255.447 523.482 293.445 508.953 386.949L601.695 423.576C607.263 411.287 621.27 348.494 658.245 294.88C649.473 287.966 639.943 282.07 629.84 277.306C616.966 271.456 603.805 266.258 590.407 261.733C581.144 258.994 571.704 256.894 562.153 255.447Z" fill="white"/>
<path d="M636.561 234.763C630.036 245.073 619.682 264.648 624.554 275.196C624.554 275.196 621.879 279.829 603.022 272.325C587.623 266.192 589.863 261.45 589.863 261.45C603.479 263.386 606.806 254.034 608.068 244.485L636.561 234.763Z" fill="#E4897B"/>
<path d="M624.946 238.765L608.09 244.529C607.814 246.738 607.356 248.921 606.719 251.054C611.744 252.228 620.335 249.597 622.814 244.812C623.879 242.939 624.601 240.891 624.946 238.765Z" fill="#CE6F64"/>
<path d="M626.403 181.105C617.703 179.844 600.303 199.637 606.35 209.381C612.396 219.125 642.825 183.585 626.403 181.105Z" fill="#263238"/>
<path d="M645 222.844C634.842 235.59 629.557 243.55 618.051 245.66C600.651 248.857 588.58 231.239 594.713 215.732C600.238 201.768 615.92 183.28 632.667 187.13C636.361 187.96 639.781 189.72 642.603 192.244C645.425 194.767 647.555 197.97 648.79 201.549C650.026 205.127 650.326 208.962 649.663 212.689C648.999 216.416 647.394 219.912 645 222.844Z" fill="#E4897B"/>
<path d="M634.929 235.241C625.881 233.197 631.645 198.962 655.026 205.27C683.345 212.904 649.567 238.526 634.929 235.241Z" fill="#263238"/>
<path d="M655.701 214.231C644.826 210.207 615.006 195.004 620.465 176.625C623.141 167.686 640.215 169.099 652.068 175.429C632.819 176.125 642.477 185.281 655.07 189.24C675.558 195.678 670.251 219.668 655.701 214.231Z" fill="#263238"/>
<path d="M658.506 209.598C658.506 209.598 670.077 208.076 667.663 218.581C667.03 216.427 665.856 214.471 664.253 212.898C662.651 211.326 660.672 210.19 658.506 209.598Z" fill="#263238"/>
<path d="M659.028 208.641C659.028 208.641 666.097 217.907 671.861 208.815C669.884 209.88 667.668 210.423 665.422 210.392C663.177 210.362 660.976 209.759 659.028 208.641Z" fill="#263238"/>
<path d="M640.715 241.723C638.843 242.499 636.836 242.898 634.81 242.898C632.783 242.898 630.777 242.499 628.905 241.723C623.88 239.548 624.729 234.35 628.905 231.37C632.689 228.695 639.78 226.563 643.521 230.369C647.262 234.176 645.326 239.831 640.715 241.723Z" fill="#E4897B"/>
<path d="M508.953 386.949C508.953 386.949 436.133 441.781 413.426 486.39C389.871 532.827 367.686 626.983 367.686 626.983L402.203 639.511C402.203 639.511 431.065 559.579 457.296 515.687C485.897 467.837 533.291 456.853 569.983 410.939L508.953 386.949Z" fill="#FFC100"/>
<path opacity="0.6" d="M508.953 386.949C508.953 386.949 436.133 441.781 413.426 486.39C389.871 532.827 367.686 626.983 367.686 626.983L402.203 639.511C402.203 639.511 431.065 559.579 457.296 515.687C485.897 467.837 533.291 456.853 569.983 410.939L508.953 386.949Z" fill="white"/>
<path d="M541.926 399.933C541.926 399.933 494.076 477.929 487.551 525.888C480.482 578.393 497.273 677.182 497.273 677.182L531.638 668.939C531.638 668.939 523.416 597.316 535.379 547.269C548.429 492.893 586.579 461.812 601.695 423.576L541.926 399.933Z" fill="#FFC100"/>
<path opacity="0.6" d="M541.926 399.933C541.926 399.933 494.076 477.929 487.551 525.888C480.482 578.393 497.273 677.182 497.273 677.182L531.638 668.939C531.638 668.939 523.416 597.316 535.379 547.269C548.429 492.893 586.579 461.812 601.695 423.576L541.926 399.933Z" fill="white"/>
<path d="M622.205 212.404C621.444 213.491 620.248 213.97 619.552 213.47C618.856 212.969 618.878 211.708 619.552 210.62C620.226 209.533 621.509 209.054 622.205 209.555C622.901 210.055 622.967 211.338 622.205 212.404Z" fill="#263238"/>
<path d="M609.96 203.813C609.199 204.9 608.003 205.379 607.307 204.878C606.611 204.378 606.632 203.117 607.307 202.029C607.981 200.942 609.264 200.463 609.96 200.963C610.656 201.464 610.721 202.856 609.96 203.813Z" fill="#263238"/>
<path d="M613.484 207.206C609.868 209.611 605.937 211.506 601.804 212.839C602.456 215.971 606.284 217.45 606.284 217.45L613.484 207.206Z" fill="#DE5753"/>
<path d="M614.071 224.736C611.658 224.731 609.308 223.97 607.35 222.561C607.303 222.534 607.261 222.497 607.229 222.452C607.197 222.408 607.174 222.357 607.163 222.304C607.151 222.25 607.151 222.195 607.162 222.141C607.174 222.087 607.196 222.037 607.228 221.992C607.261 221.948 607.302 221.911 607.349 221.883C607.397 221.856 607.449 221.839 607.504 221.833C607.558 221.827 607.614 221.833 607.666 221.849C607.718 221.866 607.766 221.894 607.807 221.93C609.134 222.906 610.673 223.554 612.298 223.823C613.923 224.091 615.589 223.972 617.159 223.475C617.255 223.444 617.358 223.449 617.451 223.489C617.543 223.529 617.617 223.601 617.66 223.692C617.696 223.787 617.693 223.893 617.652 223.986C617.612 224.08 617.536 224.154 617.442 224.192C616.361 224.576 615.218 224.76 614.071 224.736Z" fill="#263238"/>
<path d="M629.122 211.186C628.922 211.186 628.729 211.11 628.583 210.972C628.438 210.835 628.35 210.646 628.339 210.446C628.332 209.471 628.093 208.511 627.643 207.645C627.193 206.779 626.545 206.032 625.751 205.466C625.572 205.359 625.443 205.185 625.392 204.984C625.341 204.782 625.372 204.568 625.479 204.389C625.586 204.21 625.759 204.081 625.961 204.03C626.163 203.979 626.377 204.01 626.556 204.117C627.568 204.822 628.398 205.758 628.976 206.847C629.555 207.936 629.866 209.148 629.883 210.381C629.892 210.484 629.88 210.587 629.847 210.684C629.814 210.782 629.761 210.871 629.691 210.947C629.622 211.023 629.537 211.083 629.443 211.124C629.348 211.165 629.247 211.186 629.144 211.186H629.122Z" fill="#263238"/>
<path d="M608.003 196.004C607.861 196.003 607.721 195.964 607.599 195.892C607.477 195.819 607.376 195.715 607.307 195.591C607.212 195.412 607.191 195.202 607.248 195.008C607.305 194.813 607.435 194.648 607.611 194.547C608.677 193.923 609.876 193.561 611.109 193.493C612.342 193.425 613.574 193.652 614.702 194.156C614.794 194.204 614.875 194.269 614.941 194.349C615.007 194.429 615.057 194.521 615.088 194.62C615.118 194.719 615.128 194.824 615.118 194.927C615.108 195.03 615.077 195.13 615.028 195.221C614.931 195.401 614.767 195.536 614.572 195.597C614.377 195.658 614.166 195.64 613.984 195.548C613.088 195.156 612.112 194.983 611.136 195.043C610.16 195.104 609.213 195.396 608.372 195.896C608.261 195.964 608.133 196.001 608.003 196.004Z" fill="#263238"/>
<path d="M658.332 294.88L659.768 296.294L661.399 298.469L664.509 302.819C666.489 305.734 668.424 308.67 670.251 311.671C672.078 314.673 673.84 317.74 675.537 320.872C677.233 324.004 678.799 327.179 680.343 330.42C683.47 337.063 686.13 343.917 688.304 350.93C688.87 352.692 689.37 354.541 689.827 356.411L690.544 359.195L690.718 359.891L690.936 360.892L691.371 362.871C692.234 367.546 692.519 372.308 692.219 377.052C691.649 384.828 690.19 392.512 687.869 399.955C685.808 406.735 683.331 413.381 680.452 419.856C677.668 426.207 674.58 432.298 671.295 438.257C668.011 444.217 664.531 449.893 660.42 455.657L641.106 446.087C644.412 434.146 647.849 421.77 650.437 409.873C651.655 403.892 652.851 397.998 653.526 392.321C653.874 389.45 654.113 386.709 654.309 384.056C654.452 381.6 654.452 379.138 654.309 376.682C654.161 374.93 653.811 373.2 653.265 371.528L653.112 371.158V370.962L652.917 370.527L652.134 368.678C651.612 367.46 651.09 366.221 650.459 364.981C648.065 359.849 645.415 354.84 642.52 349.973C641.085 347.45 639.584 344.949 637.996 342.448C636.408 339.947 634.886 337.445 633.233 334.966C631.58 332.486 629.97 330.007 628.317 327.549L623.576 320.545L658.332 294.88Z" fill="#FFC100"/>
<path opacity="0.6" d="M658.332 294.88L659.768 296.294L661.399 298.469L664.509 302.819C666.489 305.734 668.424 308.67 670.251 311.671C672.078 314.673 673.84 317.74 675.537 320.872C677.233 324.004 678.799 327.179 680.343 330.42C683.47 337.063 686.13 343.917 688.304 350.93C688.87 352.692 689.37 354.541 689.827 356.411L690.544 359.195L690.718 359.891L690.936 360.892L691.371 362.871C692.234 367.546 692.519 372.308 692.219 377.052C691.649 384.828 690.19 392.512 687.869 399.955C685.808 406.735 683.331 413.381 680.452 419.856C677.668 426.207 674.58 432.298 671.295 438.257C668.011 444.217 664.531 449.893 660.42 455.657L641.106 446.087C644.412 434.146 647.849 421.77 650.437 409.873C651.655 403.892 652.851 397.998 653.526 392.321C653.874 389.45 654.113 386.709 654.309 384.056C654.452 381.6 654.452 379.138 654.309 376.682C654.161 374.93 653.811 373.2 653.265 371.528L653.112 371.158V370.962L652.917 370.527L652.134 368.678C651.612 367.46 651.09 366.221 650.459 364.981C648.065 359.849 645.415 354.84 642.52 349.973C641.085 347.45 639.584 344.949 637.996 342.448C636.408 339.947 634.886 337.445 633.233 334.966C631.58 332.486 629.97 330.007 628.317 327.549L623.576 320.545L658.332 294.88Z" fill="white"/>
<path opacity="0.1" d="M650.403 275.632C681.94 262.096 696.532 225.557 682.996 194.02C669.46 162.483 632.921 147.891 601.384 161.427C569.847 174.963 555.255 211.502 568.791 243.039C582.328 274.576 618.866 289.168 650.403 275.632Z" fill="#FFC100"/>
<path d="M625.925 282.874C616.534 282.858 607.259 280.795 598.747 276.829C590.236 272.862 582.691 267.087 576.639 259.906C576.456 259.686 576.318 259.432 576.234 259.159C576.149 258.886 576.119 258.599 576.145 258.314C576.171 258.029 576.254 257.753 576.387 257.5C576.52 257.247 576.702 257.022 576.922 256.839C577.142 256.657 577.395 256.519 577.669 256.434C577.942 256.349 578.229 256.319 578.514 256.346C578.798 256.372 579.075 256.454 579.328 256.587C579.581 256.72 579.806 256.902 579.988 257.122C586.643 265.026 595.223 271.081 604.901 274.7C614.578 278.32 625.026 279.382 635.234 277.785C635.811 277.695 636.399 277.839 636.87 278.183C637.342 278.528 637.656 279.046 637.746 279.623C637.835 280.199 637.692 280.788 637.347 281.259C637.003 281.73 636.485 282.045 635.908 282.135C632.605 282.642 629.267 282.889 625.925 282.874Z" fill="#263238"/>
<path d="M536.227 675.964L494.097 686.774L490.987 645.405L532.029 640.25L536.227 675.964Z" fill="#FFC100"/>
<path opacity="0.2" d="M536.227 675.964L494.097 686.774L490.987 645.405L532.029 640.25L536.227 675.964Z" fill="black"/>
<path d="M496.272 678.074L532.29 670.026C532.813 669.935 533.35 670.022 533.816 670.275C534.282 670.528 534.649 670.931 534.857 671.418L544.297 693.821C544.52 694.368 544.617 694.959 544.581 695.549C544.545 696.139 544.377 696.713 544.089 697.229C543.8 697.745 543.4 698.19 542.916 698.53C542.432 698.87 541.878 699.097 541.295 699.193C530.964 700.89 525.852 701.194 512.889 703.543C504.907 705 488.594 708.828 477.589 710.829C466.583 712.83 463.451 702.825 467.475 700.389C482.243 691.385 486.898 687.448 492.314 680.445C493.301 679.199 494.708 678.356 496.272 678.074Z" fill="#FFC100"/>
<path opacity="0.2" d="M496.272 678.074L532.29 670.026C532.813 669.935 533.35 670.022 533.816 670.275C534.282 670.528 534.649 670.931 534.857 671.418L544.297 693.821C544.52 694.368 544.617 694.959 544.581 695.549C544.545 696.139 544.377 696.713 544.089 697.229C543.8 697.745 543.4 698.19 542.916 698.53C542.432 698.87 541.878 699.097 541.295 699.193C530.964 700.89 525.852 701.194 512.889 703.543C504.907 705 488.594 708.828 477.589 710.829C466.583 712.83 463.451 702.825 467.475 700.389C482.243 691.385 486.898 687.448 492.314 680.445C493.301 679.199 494.708 678.356 496.272 678.074Z" fill="black"/>
<path d="M401.551 645.971L359.268 635.705L373.275 597.903L414.622 612.475L401.551 645.971Z" fill="#FFC100"/>
<path opacity="0.2" d="M401.551 645.971L359.268 635.705L373.275 597.903L414.622 612.475L401.551 645.971Z" fill="black"/>
<path d="M365.402 629.158L400.963 639.011C401.468 639.168 401.903 639.493 402.196 639.933C402.488 640.372 402.622 640.899 402.573 641.425L400.398 665.633C400.341 666.222 400.152 666.792 399.844 667.298C399.535 667.804 399.116 668.233 398.618 668.554C398.119 668.874 397.555 669.077 396.966 669.148C396.378 669.218 395.781 669.154 395.221 668.96C385.303 665.611 380.649 663.479 368.077 659.456C360.356 656.998 344.152 652.713 333.516 649.298C322.88 645.884 324.816 635.596 329.492 635.335C346.762 634.334 352.722 633.051 360.791 629.419C362.245 628.773 363.884 628.68 365.402 629.158Z" fill="#FFC100"/>
<path opacity="0.2" d="M365.402 629.158L400.963 639.011C401.468 639.168 401.903 639.493 402.196 639.933C402.488 640.372 402.622 640.899 402.573 641.425L400.398 665.633C400.341 666.222 400.152 666.792 399.844 667.298C399.535 667.804 399.116 668.233 398.618 668.554C398.119 668.874 397.555 669.077 396.966 669.148C396.378 669.218 395.781 669.154 395.221 668.96C385.303 665.611 380.649 663.479 368.077 659.456C360.356 656.998 344.152 652.713 333.516 649.298C322.88 645.884 324.816 635.596 329.492 635.335C346.762 634.334 352.722 633.051 360.791 629.419C362.245 628.773 363.884 628.68 365.402 629.158Z" fill="black"/>
<path d="M602.478 430.231C540.36 413.766 503.754 391.081 502.232 390.146L509.148 379.075C509.496 379.314 545.754 401.695 605.828 417.616L602.478 430.231Z" fill="#FFC100"/>
<path opacity="0.2" d="M602.478 430.231C540.36 413.766 503.754 391.081 502.232 390.146L509.148 379.075C509.496 379.314 545.754 401.695 605.828 417.616L602.478 430.231Z" fill="black"/>
<path d="M416.406 509.88C415.178 509.89 413.964 509.614 412.861 509.075C409.707 507.466 407.815 503.834 407.554 498.831C407.579 493.283 408.906 487.818 411.43 482.876C413.954 477.935 417.602 473.655 422.083 470.382C426.259 467.663 430.326 467.054 433.48 468.664C436.634 470.273 438.548 473.906 438.809 478.886C438.898 484.471 437.566 489.988 434.937 494.916C432.488 499.989 428.735 504.321 424.062 507.466C421.781 508.96 419.131 509.796 416.406 509.88ZM429.695 468.207C427.067 468.328 424.53 469.204 422.387 470.73C417.975 473.966 414.383 478.193 411.901 483.069C409.419 487.946 408.117 493.337 408.097 498.809C408.337 503.594 410.12 507.074 413.122 508.597C416.123 510.119 419.647 509.38 423.714 506.9C428.33 503.81 432.038 499.546 434.458 494.546C437.043 489.713 438.353 484.301 438.265 478.821C438.004 474.036 436.22 470.556 433.24 469.033C432.14 468.483 430.926 468.199 429.695 468.207Z" fill="#FFC100"/>
<path opacity="0.2" d="M416.406 509.88C415.178 509.89 413.964 509.614 412.861 509.075C409.707 507.466 407.815 503.834 407.554 498.831C407.579 493.283 408.906 487.818 411.43 482.876C413.954 477.935 417.602 473.655 422.083 470.382C426.259 467.663 430.326 467.054 433.48 468.664C436.634 470.273 438.548 473.906 438.809 478.886C438.898 484.471 437.566 489.988 434.937 494.916C432.488 499.989 428.735 504.321 424.062 507.466C421.781 508.96 419.131 509.796 416.406 509.88ZM429.695 468.207C427.067 468.328 424.53 469.204 422.387 470.73C417.975 473.966 414.383 478.193 411.901 483.069C409.419 487.946 408.117 493.337 408.097 498.809C408.337 503.594 410.12 507.074 413.122 508.597C416.123 510.119 419.647 509.38 423.714 506.9C428.33 503.81 432.038 499.546 434.458 494.546C437.043 489.713 438.353 484.301 438.265 478.821C438.004 474.036 436.22 470.556 433.24 469.033C432.14 468.483 430.926 468.199 429.695 468.207Z" fill="black"/>
<path d="M495.663 553.946H495.141C487.877 553.359 482.766 542.723 483.766 530.238C484.723 518.08 491.074 508.488 498.099 508.488H498.708C505.973 509.054 511.062 519.689 510.084 532.174C508.953 545.485 501.906 553.946 495.663 553.946ZM498.078 509.119C491.335 509.119 485.223 518.406 484.288 530.282C483.353 542.157 488.203 552.837 495.163 553.402C501.166 553.881 508.518 545.311 509.54 532.261C510.497 520.081 505.625 509.706 498.665 509.162L498.078 509.119Z" fill="#FFC100"/>
<path opacity="0.2" d="M495.663 553.946H495.141C487.877 553.359 482.766 542.723 483.766 530.238C484.723 518.08 491.074 508.488 498.099 508.488H498.708C505.973 509.054 511.062 519.689 510.084 532.174C508.953 545.485 501.906 553.946 495.663 553.946ZM498.078 509.119C491.335 509.119 485.223 518.406 484.288 530.282C483.353 542.157 488.203 552.837 495.163 553.402C501.166 553.881 508.518 545.311 509.54 532.261C510.497 520.081 505.625 509.706 498.665 509.162L498.078 509.119Z" fill="black"/>
<path d="M573.594 345.928C570.966 345.936 568.363 345.418 565.938 344.405C553.801 339.338 549.016 323.068 555.237 308.104C558.023 301.125 563.111 295.308 569.657 291.618C572.469 289.891 575.651 288.858 578.94 288.604C582.23 288.35 585.533 288.882 588.576 290.157C591.619 291.432 594.315 293.413 596.442 295.936C598.568 298.46 600.063 301.453 600.803 304.668C602.77 311.883 602.225 319.553 599.259 326.418C596.473 333.397 591.385 339.214 584.839 342.905C581.404 344.84 577.537 345.88 573.594 345.928ZM580.88 289.16C577.067 289.218 573.329 290.227 570.005 292.096C563.566 295.729 558.562 301.454 555.824 308.322C549.712 323.003 554.389 338.968 566.242 343.905C569.223 345.074 572.43 345.551 575.621 345.298C578.813 345.046 581.905 344.071 584.665 342.448C591.104 338.815 596.108 333.09 598.846 326.222C601.782 319.448 602.319 311.875 600.368 304.755C599.58 301.65 598.095 298.765 596.027 296.319C593.958 293.874 591.359 291.931 588.428 290.639C586.034 289.652 583.469 289.149 580.88 289.16Z" fill="#FFC100"/>
<path opacity="0.2" d="M573.594 345.928C570.966 345.936 568.363 345.418 565.938 344.405C553.801 339.338 549.016 323.068 555.237 308.104C558.023 301.125 563.111 295.308 569.657 291.618C572.469 289.891 575.651 288.858 578.94 288.604C582.23 288.35 585.533 288.882 588.576 290.157C591.619 291.432 594.315 293.413 596.442 295.936C598.568 298.46 600.063 301.453 600.803 304.668C602.77 311.883 602.225 319.553 599.259 326.418C596.473 333.397 591.385 339.214 584.839 342.905C581.404 344.84 577.537 345.88 573.594 345.928ZM580.88 289.16C577.067 289.218 573.329 290.227 570.005 292.096C563.566 295.729 558.562 301.454 555.824 308.322C549.712 323.003 554.389 338.968 566.242 343.905C569.223 345.074 572.43 345.551 575.621 345.298C578.813 345.046 581.905 344.071 584.665 342.448C591.104 338.815 596.108 333.09 598.846 326.222C601.782 319.448 602.319 311.875 600.368 304.755C599.58 301.65 598.095 298.765 596.027 296.319C593.958 293.874 591.359 291.931 588.428 290.639C586.034 289.652 583.469 289.149 580.88 289.16Z" fill="black"/>
<path d="M425.062 240.092L450.358 227.672C450.358 227.672 436.634 193.982 422.3 196.961C407.488 200.028 411.751 214.557 425.062 240.092Z" fill="#FFC100"/>
<path opacity="0.2" d="M425.062 240.092L450.358 227.672C450.358 227.672 436.634 193.982 422.3 196.961C407.488 200.028 411.751 214.557 425.062 240.092Z" fill="black"/>
<path d="M437.177 218.624L448.487 225.149C448.487 225.149 449.314 201.442 443.746 200.354C438.178 199.267 435.916 205.879 437.177 218.624Z" fill="#FFC100"/>
<path opacity="0.2" d="M437.177 218.624L448.487 225.149C448.487 225.149 449.314 201.442 443.746 200.354C438.178 199.267 435.916 205.879 437.177 218.624Z" fill="black"/>
<path d="M669.207 444.652L643.956 432.102C643.956 432.102 625.555 463.509 636.648 473.079C648.153 482.975 657.027 470.752 669.207 444.652Z" fill="#FFC100"/>
<path opacity="0.2" d="M669.207 444.652L643.956 432.102C643.956 432.102 625.555 463.509 636.648 473.079C648.153 482.975 657.027 470.752 669.207 444.652Z" fill="black"/>
<path d="M644.826 448.132L643.194 435.082C643.194 435.082 623.858 448.849 626.403 453.917C628.948 458.985 635.43 456.832 644.826 448.132Z" fill="#FFC100"/>
<path opacity="0.2" d="M644.826 448.132L643.194 435.082C643.194 435.082 623.858 448.849 626.403 453.917C628.948 458.985 635.43 456.832 644.826 448.132Z" fill="black"/>
<path d="M674.945 328.53L655.513 338.35L661.811 350.812L681.243 340.993L674.945 328.53Z" fill="#FFC100"/>
<path opacity="0.2" d="M674.945 328.53L655.513 338.35L661.811 350.812L681.243 340.993L674.945 328.53Z" fill="black"/>
<path d="M601.695 395.279C601.407 395.248 601.136 395.129 600.919 394.937C600.703 394.745 600.551 394.49 600.486 394.208C600.421 393.926 600.445 393.63 600.556 393.363C600.666 393.095 600.858 392.869 601.103 392.715C601.348 392.561 601.635 392.488 601.924 392.505C602.213 392.522 602.49 392.629 602.715 392.81C602.941 392.992 603.104 393.239 603.182 393.518C603.261 393.797 603.25 394.093 603.152 394.365C603.075 394.677 602.88 394.946 602.608 395.116C602.336 395.286 602.009 395.345 601.695 395.279Z" fill="#FFC100"/>
<path d="M599.759 400.651C599.5 400.479 599.305 400.225 599.207 399.929C599.109 399.634 599.113 399.314 599.218 399.02C599.324 398.727 599.524 398.478 599.788 398.312C600.051 398.146 600.363 398.074 600.673 398.106C600.933 398.278 601.127 398.533 601.225 398.828C601.323 399.124 601.319 399.444 601.214 399.737C601.109 400.03 600.908 400.279 600.644 400.445C600.381 400.611 600.069 400.683 599.759 400.651Z" fill="#FFC100"/>
<path d="M597.824 406.002C597.534 405.975 597.26 405.859 597.041 405.669C596.821 405.48 596.666 405.226 596.597 404.944C596.529 404.661 596.55 404.365 596.659 404.095C596.767 403.826 596.957 403.597 597.202 403.441C597.448 403.285 597.735 403.21 598.025 403.225C598.315 403.241 598.593 403.347 598.82 403.529C599.047 403.711 599.211 403.958 599.29 404.238C599.368 404.518 599.358 404.815 599.259 405.088C599.186 405.398 598.996 405.666 598.727 405.837C598.459 406.008 598.135 406.067 597.824 406.002Z" fill="#FFC100"/>
<path d="M603.631 399.02C603.342 398.994 603.068 398.877 602.848 398.688C602.628 398.498 602.473 398.244 602.404 397.962C602.336 397.679 602.357 397.383 602.466 397.113C602.575 396.844 602.765 396.615 603.01 396.459C603.255 396.303 603.543 396.228 603.833 396.244C604.123 396.259 604.401 396.366 604.627 396.547C604.854 396.729 605.018 396.977 605.097 397.256C605.176 397.536 605.165 397.833 605.066 398.106C604.994 398.416 604.803 398.685 604.535 398.855C604.266 399.026 603.942 399.085 603.631 399.02Z" fill="#FFC100"/>
<path d="M601.695 404.37C601.406 404.344 601.132 404.228 600.912 404.038C600.692 403.848 600.537 403.594 600.469 403.312C600.4 403.03 600.422 402.733 600.53 402.464C600.639 402.194 600.829 401.966 601.074 401.81C601.319 401.654 601.607 401.578 601.897 401.594C602.187 401.61 602.465 401.716 602.692 401.898C602.918 402.079 603.083 402.327 603.161 402.607C603.24 402.886 603.229 403.184 603.131 403.457C603.058 403.766 602.867 404.035 602.599 404.206C602.331 404.376 602.006 404.436 601.695 404.37Z" fill="#FFC100"/>
<path d="M599.759 409.743C599.475 409.594 599.261 409.34 599.163 409.034C599.065 408.729 599.092 408.397 599.237 408.111C599.256 407.952 599.31 407.799 599.396 407.664C599.482 407.529 599.597 407.415 599.733 407.33C599.869 407.245 600.022 407.193 600.182 407.175C600.341 407.158 600.502 407.177 600.653 407.231C600.804 407.284 600.941 407.371 601.053 407.485C601.166 407.599 601.252 407.737 601.304 407.889C601.356 408.04 601.373 408.201 601.354 408.36C601.335 408.52 601.281 408.672 601.195 408.807C601.127 409.121 600.938 409.395 600.669 409.57C600.401 409.745 600.074 409.807 599.759 409.743Z" fill="#FFC100"/>
<g opacity="0.2">
<path d="M601.695 395.279C601.407 395.248 601.136 395.129 600.919 394.937C600.703 394.745 600.551 394.49 600.486 394.208C600.421 393.926 600.445 393.63 600.556 393.363C600.666 393.095 600.858 392.869 601.103 392.715C601.348 392.561 601.635 392.488 601.924 392.505C602.213 392.522 602.49 392.629 602.715 392.81C602.941 392.992 603.104 393.239 603.182 393.518C603.261 393.797 603.25 394.093 603.152 394.365C603.075 394.677 602.88 394.946 602.608 395.116C602.336 395.286 602.009 395.345 601.695 395.279Z" fill="black"/>
<path d="M599.759 400.651C599.5 400.479 599.305 400.225 599.207 399.929C599.109 399.634 599.113 399.314 599.218 399.021C599.324 398.727 599.524 398.478 599.788 398.312C600.051 398.147 600.363 398.074 600.673 398.106C600.933 398.278 601.127 398.533 601.225 398.828C601.323 399.124 601.319 399.444 601.214 399.737C601.109 400.03 600.908 400.279 600.644 400.445C600.381 400.611 600.069 400.683 599.759 400.651Z" fill="black"/>
<path d="M597.824 406.002C597.534 405.975 597.26 405.859 597.041 405.669C596.821 405.48 596.666 405.226 596.597 404.944C596.529 404.661 596.55 404.365 596.659 404.095C596.767 403.826 596.957 403.597 597.202 403.441C597.448 403.285 597.735 403.21 598.025 403.225C598.315 403.241 598.593 403.347 598.82 403.529C599.047 403.711 599.211 403.958 599.29 404.238C599.368 404.518 599.358 404.815 599.259 405.088C599.186 405.398 598.996 405.666 598.727 405.837C598.459 406.008 598.135 406.067 597.824 406.002Z" fill="black"/>
<path d="M603.631 399.02C603.342 398.994 603.068 398.877 602.848 398.688C602.628 398.498 602.473 398.244 602.404 397.962C602.336 397.679 602.357 397.383 602.466 397.113C602.575 396.844 602.765 396.615 603.01 396.459C603.255 396.303 603.543 396.228 603.833 396.244C604.123 396.259 604.401 396.366 604.627 396.547C604.854 396.729 605.018 396.977 605.097 397.256C605.176 397.536 605.165 397.833 605.066 398.106C604.994 398.416 604.803 398.685 604.535 398.855C604.266 399.026 603.942 399.085 603.631 399.02Z" fill="black"/>
<path d="M601.695 404.37C601.406 404.344 601.132 404.228 600.912 404.038C600.692 403.848 600.537 403.594 600.469 403.312C600.4 403.03 600.422 402.733 600.53 402.464C600.639 402.194 600.829 401.966 601.074 401.81C601.319 401.654 601.607 401.578 601.897 401.594C602.187 401.61 602.465 401.716 602.692 401.898C602.918 402.079 603.083 402.327 603.161 402.607C603.24 402.886 603.229 403.184 603.131 403.457C603.058 403.766 602.867 404.035 602.599 404.206C602.331 404.376 602.006 404.436 601.695 404.37Z" fill="black"/>
<path d="M599.759 409.743C599.475 409.594 599.261 409.34 599.163 409.034C599.066 408.729 599.092 408.397 599.237 408.111C599.256 407.952 599.31 407.799 599.396 407.664C599.482 407.529 599.597 407.415 599.733 407.33C599.869 407.245 600.022 407.193 600.182 407.175C600.341 407.158 600.502 407.177 600.653 407.231C600.804 407.284 600.941 407.371 601.054 407.485C601.166 407.599 601.252 407.737 601.304 407.889C601.356 408.04 601.373 408.201 601.354 408.36C601.335 408.52 601.281 408.672 601.195 408.807C601.127 409.121 600.938 409.395 600.669 409.57C600.401 409.745 600.074 409.807 599.759 409.743Z" fill="black"/>
</g>
</svg>
