<svg width="2553" height="2593" viewBox="0 0 2553 2593" fill="none" xmlns="http://www.w3.org/2000/svg">
<path d="M2269.81 1793.13H2431.84V1724.66H2269.81V1793.13Z" fill="#EBEBEB"/>
<path d="M2360.25 1879.47L2441.93 1877.75L2482.2 1877.08C2495.6 1876.77 2508.94 1877.08 2522.27 1876.71L2519.52 1879.47V1811L2522.58 1814.06L2441.57 1813.69C2414.58 1813.69 2387.54 1812.95 2360.55 1812.65L2362.2 1811C2362.2 1822.19 2361.71 1833.45 2361.41 1844.83L2360.25 1879.47ZM2360.25 1879.47L2359.14 1845.87C2358.84 1834.49 2358.41 1822.93 2358.35 1811.3V1809.16H2360.06C2387.05 1808.79 2414.09 1808.18 2441.08 1808.12L2522.09 1807.75H2525.15V1810.81L2524.78 1879.28V1882.04H2522.09C2508.45 1882.04 2494.74 1882.04 2481.09 1881.73L2440.34 1881.06L2360.25 1879.47Z" fill="#EBEBEB"/>
<path d="M1166.81 1206.94L1248.56 1205.22L1288.76 1204.55C1302.16 1204.25 1315.5 1204.55 1328.84 1204.25L1326.09 1206.94L1325.78 1138.47L1328.84 1141.53L1247.83 1141.16C1220.84 1141.16 1193.8 1140.49 1166.81 1140.12L1168.47 1138.47C1168.47 1149.66 1167.98 1160.92 1167.67 1172.37L1166.81 1206.94ZM1166.81 1206.94L1165.96 1172.79C1165.65 1161.41 1165.28 1149.85 1165.16 1138.22V1136.57H1166.88C1193.86 1136.26 1220.91 1135.59 1247.89 1135.53L1328.9 1135.16H1331.96V1138.22L1331.66 1206.69V1209.51H1328.97C1315.32 1209.51 1301.61 1209.51 1288.03 1209.14L1247.22 1208.47L1166.81 1206.94Z" fill="#EBEBEB"/>
<path d="M1257.19 1293.28H1419.22V1224.8H1257.19V1293.28Z" fill="#EBEBEB"/>
<path d="M1075.03 1293.28L1156.78 1291.56L1197.04 1290.89C1210.44 1290.58 1223.72 1290.89 1237.06 1290.58L1234.37 1293.28L1234 1224.8L1237.06 1227.86L1156.05 1227.5C1129.06 1227.5 1102.08 1226.82 1075.03 1226.46L1076.74 1224.8C1076.74 1236 1076.19 1247.26 1075.95 1258.7L1075.03 1293.28ZM1075.03 1293.28L1074.17 1259.38C1074.17 1248 1073.5 1236.43 1073.38 1224.8V1223.15H1075.03C1102.08 1223.15 1129.06 1222.17 1156.05 1222.11L1237.06 1221.75H1240.18V1224.8L1239.87 1293.28V1296.03H1237.12C1223.48 1296.03 1209.77 1296.03 1196.19 1295.66L1155.43 1294.99L1075.03 1293.28Z" fill="#EBEBEB"/>
<path d="M1416.28 426.043H1578.31V357.572H1416.28V426.043Z" fill="#EBEBEB"/>
<path d="M29.9216 1879.47L111.67 1877.75L151.933 1877.08C165.272 1876.77 178.611 1877.08 191.95 1876.71L189.258 1879.47L188.891 1811L191.95 1814.06L110.936 1813.69C83.9516 1813.69 56.906 1812.95 29.9216 1812.65L31.5737 1811C31.5737 1822.19 31.0842 1833.45 30.7783 1844.83L29.9216 1879.47ZM29.9216 1879.47L29.065 1845.87C28.7591 1834.49 28.3919 1822.93 28.2695 1811.3V1809.16H29.9216C56.906 1808.79 83.9516 1808.18 110.936 1808.12L191.95 1807.75H195.01V1810.81V1879.28V1882.04H192.256C178.611 1882.04 164.905 1882.04 151.321 1881.73L110.569 1881.06L29.9216 1879.47Z" fill="#EBEBEB"/>
<path d="M120.298 146.042L202.046 144.328L242.309 143.655C255.709 143.349 268.987 143.655 282.326 143.288L279.634 146.042L279.267 77.5097L282.326 80.5692L201.312 80.2021C174.328 80.2021 147.343 79.4678 120.298 79.1619L122.011 77.5097C122.011 88.7073 121.46 99.9661 121.154 111.408L120.298 146.042ZM120.298 146.042L119.625 112.143C119.625 100.762 118.951 89.1969 118.829 77.5709V75.9188H120.481C147.527 75.6129 174.511 74.9398 201.496 74.8786L282.51 74.5115H285.63V77.5097L284.835 146.042V148.795H282.082C268.436 148.795 254.73 148.795 241.146 148.428L200.394 147.755L120.298 146.042Z" fill="#EBEBEB"/>
<path d="M29.9216 232.379L191.95 232.379V163.909H29.9216V232.379Z" fill="#EBEBEB"/>
<path d="M2360.25 146.042L2441.93 144.328L2482.2 143.655C2495.6 143.349 2508.94 143.655 2522.27 143.288L2519.52 146.042V77.5709L2522.58 80.6304L2441.57 80.2633C2414.58 80.2633 2387.54 79.529 2360.55 79.223L2362.2 77.5709C2362.2 88.7685 2361.71 100.027 2361.41 111.47L2360.25 146.042ZM2360.25 146.042L2359.14 112.143C2358.84 100.762 2358.41 89.1969 2358.35 77.5709V75.9188H2360.06C2387.05 75.6129 2414.09 74.9398 2441.08 74.8786L2522.09 74.5115H2525.15V77.5097L2524.97 146.042V148.795H2522.27C2508.63 148.795 2494.92 148.795 2481.28 148.428L2440.53 147.755L2360.25 146.042Z" fill="#EBEBEB"/>
<path d="M782.119 2101.46H341.863V2588.95H782.119V2101.46Z" fill="#EBEBEB"/>
<path d="M114.607 2589.02H341.925L341.925 2101.46H114.607L114.607 2589.02Z" fill="#DBDBDB"/>
<path d="M130.21 2555.67C147.099 2520.99 163.783 2486.32 180.263 2451.65L229.765 2346.22L278.716 2240.91C295.033 2205.75 311.024 2170.46 326.689 2135.05C309.8 2169.73 293.116 2204.5 276.636 2239.38L227.317 2344.26L178.366 2449.57C162.09 2484.77 146.038 2520.14 130.21 2555.67Z" fill="#EBEBEB"/>
<path d="M130.21 2135.05C146.038 2170.5 162.029 2205.79 178.183 2240.91L227.134 2346.22L276.452 2451.1C292.973 2485.97 309.658 2520.65 326.505 2555.12C310.677 2519.71 294.687 2484.42 278.533 2449.26L229.582 2343.95L180.263 2239.08C163.742 2204.4 147.058 2169.73 130.21 2135.05Z" fill="#EBEBEB"/>
<path d="M782.119 1365.17H341.863V1819.07H782.119V1365.17Z" fill="#EBEBEB"/>
<path d="M114.607 1819.13H341.925L341.925 1365.17H114.607L114.607 1819.13Z" fill="#DBDBDB"/>
<path d="M524.635 1470.54H533.997H540.973L544.95 1462.4L550.579 1470.54L558.167 1453.84L565.387 1470.54H586.008H595.37L598.796 1459.4L601.978 1470.54H608.097V1365.17H524.635V1470.54Z" fill="#DBDBDB"/>
<path d="M130.21 1790.19C147.099 1757.97 163.783 1725.54 180.263 1692.9L229.582 1595L278.533 1497.1C294.85 1464.46 310.841 1431.6 326.505 1398.52C309.617 1430.83 292.933 1463.22 276.452 1495.69L227.134 1593.29L178.183 1691.19C162.029 1724.19 146.038 1757.19 130.21 1790.19Z" fill="#EBEBEB"/>
<path d="M130.21 1398.77C146.038 1431.68 162.029 1464.46 178.183 1497.1L227.134 1595L276.452 1692.9C292.973 1725.54 309.658 1757.92 326.505 1790.07C310.677 1757.11 294.687 1724.25 278.533 1691.49L229.582 1593.59L180.263 1495.99C163.742 1463.48 147.058 1431.07 130.21 1398.77Z" fill="#EBEBEB"/>
<path d="M370.867 1790.93H419.757V1742.04H370.867V1790.93Z" fill="white"/>
<path d="M752.809 1819.13H312.554V2101.46H752.809V1819.13Z" fill="#DBDBDB"/>
<path d="M85.2363 2101.46H312.554L312.554 1819.13H85.2363L85.2363 2101.46Z" fill="#C7C7C7"/>
<path d="M495.326 1924.5H504.626H511.663L515.64 1916.36L521.27 1924.5L528.857 1907.8L536.078 1924.5H556.637H566.06L569.426 1913.37L572.669 1924.5H578.788V1819.13H495.326V1924.5Z" fill="white"/>
<path d="M100.901 2084.51C117.748 2064.11 134.433 2043.53 150.954 2022.77L200.272 1960.73L249.223 1898.37C265.296 1877.57 281.266 1856.68 297.134 1835.72C280.328 1856.11 263.643 1876.69 247.082 1897.46L197.763 1959.56L148.812 2021.85C132.699 2042.78 116.728 2063.67 100.901 2084.51Z" fill="#DBDBDB"/>
<path d="M100.901 1835.9C116.769 1856.87 132.76 1877.75 148.873 1898.56L197.824 1960.91L247.143 2022.95C263.46 2043.6 280.103 2064.11 297.073 2084.51C281.286 2063.54 265.316 2042.66 249.162 2021.85L200.211 1959.56L150.892 1897.46C134.412 1876.98 117.748 1856.46 100.901 1835.9Z" fill="#DBDBDB"/>
<path d="M2466.96 2162.53H2026.7V2589.02H2466.96V2162.53Z" fill="#DBDBDB"/>
<path d="M1799.45 2589.02H2026.77V2162.53H1799.45V2589.02Z" fill="#C7C7C7"/>
<path d="M2209.48 2267.89H2218.78H2225.81L2229.79 2259.76L2235.42 2267.89L2243.01 2251.19L2250.23 2267.89H2270.79H2280.21L2283.64 2256.7L2286.82 2267.89H2292.94V2162.53H2209.48V2267.89Z" fill="white"/>
<path d="M1815.05 2563.62C1831.9 2532.66 1848.58 2501.58 1865.1 2470.37L1914.42 2376.63L1963.37 2282.52C1979.69 2251.07 1995.66 2219.54 2011.28 2187.92C1994.48 2218.88 1977.79 2249.97 1961.23 2281.17L1911.91 2374.85L1863.27 2469.02C1847.11 2500.47 1831.04 2532.01 1815.05 2563.62Z" fill="#DBDBDB"/>
<path d="M1815.05 2187.92C1830.92 2219.54 1846.91 2251.07 1863.02 2282.52L1911.67 2376.63L1960.99 2470.37C1977.51 2501.58 1994.19 2532.66 2011.04 2563.62C1995.25 2531.97 1979.28 2500.43 1963.13 2469.02L1914.18 2374.85L1864.86 2281.17C1848.5 2249.97 1831.9 2218.88 1815.05 2187.92Z" fill="#DBDBDB"/>
<path d="M1701.48 53.0342V1093.86H2417.76V53.0342H1701.48ZM2391.33 1067.12H1727.92V79.1619H2391.33V1067.12Z" fill="#EBEBEB"/>
<path d="M2391.33 79.1619H1727.92V1067.12H2391.33V79.1619Z" fill="white"/>
<path d="M1727.92 616.953L2391.33 616.953V590.519L1727.92 590.519V616.953Z" fill="#EBEBEB"/>
<path d="M1652.78 1169.37H2466.41V1093.49H1652.78V1169.37Z" fill="#DBDBDB"/>
<path d="M1674.38 1199.72L2444.87 1215.87V1169.37H1674.38V1199.72Z" fill="#EBEBEB"/>
<path d="M1727.92 79.1619H2391.33V757.932H1727.92V79.1619ZM2366.85 103.637H1752.39V733.456H2366.85V103.637Z" fill="#DBDBDB"/>
<path d="M2179.62 79.1619H2166.4V733.456H2179.62V79.1619Z" fill="#DBDBDB"/>
<path d="M1952.85 79.1619H1939.63V733.456H1952.85V79.1619Z" fill="#DBDBDB"/>
<path d="M134.433 53.0342V1093.86H850.712V53.0342H134.433ZM824.278 1067.12H160.866V79.1619H824.278V1067.12Z" fill="#EBEBEB"/>
<path d="M824.278 79.1619H160.866V1067.12H824.278V79.1619Z" fill="white"/>
<path d="M160.866 616.953L824.278 616.953V590.519L160.866 590.519V616.953Z" fill="#EBEBEB"/>
<path d="M85.7259 1169.37H899.357V1093.49H85.7259V1169.37Z" fill="#DBDBDB"/>
<path d="M107.326 1199.72L877.818 1215.87V1169.37H107.326V1199.72Z" fill="#EBEBEB"/>
<path d="M160.866 79.1619H824.278V757.932H160.866V79.1619ZM799.802 103.637H185.342V733.456H799.802V103.637Z" fill="#DBDBDB"/>
<path d="M612.564 79.1619H599.347V733.456H612.564V79.1619Z" fill="#DBDBDB"/>
<path d="M385.797 79.1619H372.581V733.456H385.797V79.1619Z" fill="#DBDBDB"/>
<path d="M1818.91 2084.82H1208.97V2588.77H1818.91V2084.82Z" fill="#CFD8DC"/>
<path opacity="0.1" d="M1818.91 2084.82H1208.97V2588.77H1818.91V2084.82Z" fill="black"/>
<path d="M2060.6 2084.88H1818.91V2588.83H2060.6V2084.88Z" fill="#CFD8DC"/>
<path opacity="0.2" d="M2060.6 2084.88H1818.91V2588.83H2060.6V2084.88Z" fill="black"/>
<path d="M2043.9 2554.08C2026.03 2518.26 2008.31 2482.32 1990.73 2446.26L1938.29 2337.83L1886.52 2228.98C1869.39 2192.63 1852.4 2156.16 1835.55 2119.57C1853.5 2155.43 1871.24 2191.37 1888.78 2227.39L1941.16 2335.81L1992.93 2444.67C2010.14 2481.02 2027.13 2517.49 2043.9 2554.08Z" fill="#CFD8DC"/>
<path d="M2043.9 2119.57C2027.09 2156.29 2010.1 2192.75 1992.93 2228.98L1941.16 2337.83L1888.78 2446.26C1871.2 2482.28 1853.46 2518.22 1835.55 2554.08C1852.4 2517.36 1869.39 2480.89 1886.52 2444.67L1938.29 2335.81L1990.73 2227.45C2008.31 2191.35 2026.03 2155.39 2043.9 2119.57Z" fill="#CFD8DC"/>
<path d="M1557.08 2193.73H1547.47H1540.19L1536.09 2185.35L1530.28 2193.73L1522.38 2176.48L1514.98 2193.73H1493.69H1483.96L1480.41 2182.23L1477.1 2193.73H1470.8V2084.88H1557.08V2193.73Z" fill="white"/>
<path d="M1855.68 1580.93H1400.62V2084.82H1855.68V1580.93Z" fill="#CFD8DC"/>
<path d="M2090.65 1580.93H1855.68V2084.88H2090.65V1580.93Z" fill="#CFD8DC"/>
<path opacity="0.1" d="M2090.65 1580.93H1855.68V2084.88H2090.65V1580.93Z" fill="black"/>
<g opacity="0.1">
<path d="M1822.33 2050.12C1788.92 2014.27 1755.8 1978.33 1722.96 1942.31L1624.88 1833.64L1528.26 1724.78C1496.19 1688.43 1464.46 1651.97 1433.05 1615.37C1466.5 1651.23 1499.62 1687.19 1532.42 1723.25L1630.32 1831.62L1726.94 1940.47C1759.12 1976.98 1790.92 2013.53 1822.33 2050.12Z" fill="black"/>
<path d="M1822.33 1615.62C1790.88 1652.33 1759.14 1688.8 1727.12 1725.03L1630.51 1833.64L1532.6 1942.06C1499.97 1978.08 1466.84 2014.02 1433.23 2049.88C1464.68 2013.16 1496.42 1976.7 1528.44 1940.47L1624.88 1831.86L1722.78 1723.5C1755.7 1687.39 1788.88 1651.44 1822.33 1615.62Z" fill="black"/>
</g>
<path d="M2057.6 1999.58H2016.42V2057.71H2057.6V1999.58Z" fill="white"/>
<path d="M0 2589.02L319.04 2587.49L638.08 2587L1276.1 2585.96L1914.12 2587L2233.16 2587.49L2552.2 2589.02L2233.16 2590.48L1914.12 2591.03L1276.1 2592.07L638.08 2591.03L319.04 2590.48L0 2589.02Z" fill="#263238"/>
<path d="M1519.14 853.387C1515.71 851.184 1512.29 849.043 1508.86 846.962L1511.25 842.985L1521.65 849.532L1519.14 853.387Z" fill="#263238"/>
<path d="M1369.72 1466.5H1365.31V1461.91C1373.48 1462.09 1381.65 1461.79 1389.79 1460.99L1390.28 1465.58C1383.61 1466.07 1376.63 1466.5 1369.72 1466.5ZM1415.12 1461.48L1414.14 1457.02C1422.1 1455.21 1429.91 1452.82 1437.51 1449.86L1439.17 1454.14C1431.34 1457.14 1423.3 1459.56 1415.12 1461.36V1461.48ZM1461.81 1443.13L1459.54 1439.15C1466.58 1435.04 1473.27 1430.38 1479.55 1425.2L1482.49 1428.69C1476.01 1434.09 1469.09 1438.94 1461.81 1443.19V1443.13ZM1500.54 1411.31L1497.17 1408.19C1502.66 1402.15 1507.72 1395.73 1512.29 1388.97L1516.08 1391.54C1511.39 1398.54 1506.2 1405.19 1500.54 1411.43V1411.31ZM1528.56 1369.76L1524.4 1367.8C1527.89 1360.43 1530.74 1352.78 1532.91 1344.92L1537.31 1346.14C1535.09 1354.28 1532.16 1362.2 1528.56 1369.82V1369.76ZM1541.78 1321.3L1537.19 1320.93C1537.19 1317.63 1537.62 1314.26 1537.62 1311.02C1537.6 1306.48 1537.34 1301.95 1536.82 1297.44C1532.06 1297.12 1527.32 1296.52 1522.63 1295.66L1523.42 1291.13C1530.9 1292.48 1538.47 1293.18 1546.06 1293.21H1547.66V1297.8H1546H1541.41C1541.9 1302.23 1542.15 1306.69 1542.15 1311.14C1542.21 1314.45 1542.03 1317.93 1541.78 1321.36V1321.3ZM1572.8 1294.74L1571.76 1290.28C1579.63 1288.41 1587.25 1285.62 1594.46 1281.96L1596.55 1286.06C1589.01 1289.9 1581.04 1292.84 1572.8 1294.81V1294.74ZM1498.28 1289.05C1490.36 1286.2 1482.69 1282.72 1475.33 1278.65L1477.59 1274.67C1484.72 1278.61 1492.14 1281.96 1499.81 1284.71L1498.28 1289.05ZM1531.2 1272.9C1528.51 1265.25 1524.98 1257.92 1520.67 1251.05L1524.53 1248.61C1529.06 1255.75 1532.75 1263.38 1535.54 1271.37L1531.2 1272.9ZM1617.59 1271.92L1614.66 1268.43C1620.86 1263.19 1626.54 1257.35 1631.61 1250.99L1635.16 1253.87C1629.93 1260.52 1624.04 1266.63 1617.59 1272.1V1271.92ZM1454.59 1264.58L1453.3 1263.35C1447.24 1258.03 1442.42 1251.46 1439.17 1244.08L1443.45 1242.37C1446.43 1249.12 1450.86 1255.13 1456.42 1259.99L1457.65 1261.09L1454.59 1264.58ZM1649.35 1233.31L1645.44 1230.92C1649.72 1223.83 1653.7 1216.54 1657.18 1209.39L1661.34 1211.4C1657.8 1218.69 1653.76 1226.09 1649.35 1233.31ZM1505.43 1232.39C1499.84 1226.98 1493.69 1222.18 1487.08 1218.07L1486.16 1217.46L1488.55 1213.55L1489.53 1214.16C1496.35 1218.46 1502.69 1223.49 1508.43 1229.15L1505.43 1232.39ZM1444.67 1220.58L1440.88 1218.01C1443.5 1214.33 1446.97 1211.34 1451 1209.29C1455.03 1207.25 1459.49 1206.21 1464.01 1206.26V1210.85C1460.25 1210.83 1456.53 1211.7 1453.17 1213.39C1449.81 1215.08 1446.9 1217.55 1444.67 1220.58ZM1671.07 1188.34L1666.79 1186.75C1669.62 1179.07 1672.05 1171.24 1674.07 1163.31L1678.48 1164.41C1676.5 1172.52 1674.05 1180.51 1671.13 1188.34H1671.07ZM1683.31 1139.81L1678.72 1139.2C1679.81 1131.08 1680.45 1122.91 1680.62 1114.73H1685.21C1685.04 1123.12 1684.41 1131.49 1683.31 1139.81ZM1679.76 1090.25C1679.03 1082.04 1677.86 1073.87 1676.27 1065.77L1680.8 1064.86C1682.4 1073.05 1683.58 1081.32 1684.35 1089.64L1679.76 1090.25ZM1670.28 1042.16C1667.95 1034.45 1665.2 1026.67 1662.02 1018.96L1666.3 1017.25C1669.48 1025.02 1672.42 1032.98 1674.68 1040.81L1670.28 1042.16ZM1651.92 996.57C1648.25 989.41 1644.15 982.19 1639.68 975.092L1643.6 972.706C1648.01 979.865 1652.17 987.208 1655.84 994.489L1651.92 996.57ZM1626.16 954.594C1621.45 947.985 1616.37 941.438 1611.11 935.075L1614.66 932.137C1619.98 938.562 1625.12 945.232 1629.89 951.902L1626.16 954.594ZM1594.83 916.534C1589.26 910.415 1583.39 904.725 1577.39 899.095L1580.51 895.73C1586.63 901.482 1592.75 907.417 1598.14 913.414L1594.83 916.534ZM1558.91 882.697C1552.79 877.496 1546.13 872.356 1539.58 867.461L1542.27 863.789C1548.94 868.684 1555.55 873.886 1561.85 879.209L1558.91 882.697Z" fill="#263238"/>
<path d="M1339.67 1464.3C1335.56 1463.79 1331.47 1463.05 1327.44 1462.1L1328.54 1457.63C1328.54 1457.63 1332.94 1458.73 1340.29 1459.77L1339.67 1464.3Z" fill="#263238"/>
<path d="M1277.93 1455.18C1275.06 1479.66 1325.05 1493.36 1328.84 1461.3C1332.64 1429.24 1280.81 1430.52 1277.93 1455.18Z" fill="#263238"/>
<path d="M1343.41 1495.69C1338.76 1504.93 1322.3 1506.21 1305.29 1494.34C1293.73 1485.52 1283.97 1474.58 1276.53 1462.1C1290.91 1460.6 1305.45 1461.86 1319.36 1465.83C1339.49 1472.62 1348.3 1486.33 1343.41 1495.69Z" fill="#EBEBEB"/>
<path d="M1276.71 1462.1C1286.38 1466.44 1295.86 1471.15 1305.35 1475.8C1314.83 1480.45 1324.19 1485.41 1333.43 1490.55C1323.76 1486.2 1314.28 1481.49 1304.8 1476.84C1295.31 1472.19 1285.95 1467.24 1276.71 1462.1Z" fill="#263238"/>
<path d="M1321.13 1495.51C1318.94 1492.96 1316.89 1490.28 1315.01 1487.49C1313.17 1484.72 1311.49 1481.84 1310 1478.86C1312.19 1481.41 1314.24 1484.09 1316.12 1486.88C1317.98 1489.64 1319.65 1492.52 1321.13 1495.51Z" fill="#263238"/>
<path d="M1300.57 1474.03C1303.94 1473.15 1307.35 1472.46 1310.79 1471.95C1314.26 1471.46 1317.75 1471.15 1321.26 1471.03C1314.48 1472.72 1307.55 1473.72 1300.57 1474.03Z" fill="#263238"/>
<path d="M1295.25 1478.07C1293.14 1475.45 1291.64 1472.4 1290.84 1469.13C1292.95 1471.75 1294.45 1474.8 1295.25 1478.07Z" fill="#263238"/>
<path d="M1351.48 1431.62C1349.1 1421.53 1333.43 1416.51 1314.16 1424.1C1300.86 1430.02 1288.81 1438.43 1278.67 1448.88C1292.42 1453.64 1306.96 1455.72 1321.5 1455C1342.12 1453.28 1353.93 1442.03 1351.48 1431.62Z" fill="#EBEBEB"/>
<path d="M1278.67 1448.88C1289.07 1446.92 1299.41 1444.47 1309.69 1442.09C1319.97 1439.7 1330.25 1437.13 1340.28 1434.26C1329.94 1436.21 1319.6 1438.66 1309.32 1441.05C1299.04 1443.43 1288.89 1446 1278.67 1448.88Z" fill="#263238"/>
<path d="M1329.64 1426.61C1326.98 1428.5 1324.42 1430.54 1321.99 1432.73C1319.56 1435.01 1317.25 1437.42 1315.08 1439.95C1317.77 1438.09 1320.32 1436.04 1322.72 1433.83C1325.17 1431.56 1327.48 1429.15 1329.64 1426.61Z" fill="#263238"/>
<path d="M1304.55 1442.76C1310.75 1445.99 1317.27 1448.55 1324.01 1450.41C1317.82 1447.16 1311.3 1444.59 1304.55 1442.76Z" fill="#263238"/>
<path d="M1300.57 1437.62C1299.24 1438.62 1298.03 1439.77 1296.96 1441.05C1295.91 1442.36 1294.98 1443.77 1294.21 1445.27C1295.54 1444.25 1296.76 1443.08 1297.82 1441.78C1298.93 1440.53 1299.86 1439.13 1300.57 1437.62Z" fill="#263238"/>
<path d="M1277.93 1455.18C1279.69 1455.39 1281.34 1456.1 1282.68 1457.25C1284.03 1458.39 1285.01 1459.9 1285.49 1461.6C1285.98 1463.3 1285.95 1465.1 1285.41 1466.78C1284.87 1468.46 1283.85 1469.94 1282.47 1471.04C1281.08 1472.14 1279.41 1472.81 1277.65 1472.96C1275.89 1473.11 1274.13 1472.73 1272.59 1471.88C1271.04 1471.03 1269.78 1469.73 1268.97 1468.17C1268.16 1466.6 1267.83 1464.83 1268.02 1463.08C1268.3 1460.72 1269.49 1458.57 1271.35 1457.09C1273.21 1455.61 1275.57 1454.92 1277.93 1455.18Z" fill="#455A64"/>
<path d="M1280.01 1437.38C1281.18 1437.51 1282.31 1437.88 1283.34 1438.45C1284.37 1439.02 1285.27 1439.8 1286 1440.72C1286.73 1441.64 1287.28 1442.7 1287.6 1443.83C1287.92 1444.97 1288.01 1446.15 1287.88 1447.32C1287.74 1448.49 1287.37 1449.62 1286.8 1450.65C1286.23 1451.67 1285.46 1452.58 1284.53 1453.31C1283.61 1454.04 1282.55 1454.58 1281.42 1454.9C1280.29 1455.22 1279.1 1455.32 1277.93 1455.18C1275.57 1454.91 1273.42 1453.7 1271.94 1451.84C1270.47 1449.97 1269.79 1447.6 1270.07 1445.24C1270.35 1442.88 1271.55 1440.72 1273.41 1439.25C1275.28 1437.77 1277.65 1437.1 1280.01 1437.38Z" fill="#455A64"/>
<path d="M725.396 2031.34C725.396 2031.34 594.941 2292.55 594.88 2292.55C584.11 2346.46 575.666 2394.01 573.525 2418.97C573.493 2419.11 573.493 2419.26 573.525 2419.4C572.395 2425.19 572.626 2431.16 574.198 2436.84C574.166 2436.98 574.166 2437.13 574.198 2437.27C588.088 2451.34 1016.78 2550.04 1033.12 2548.45C1049.45 2546.86 1045.97 2500.78 1032.38 2483.71C1018.8 2466.64 871.515 2355.21 871.515 2355.21L999.033 2093.57L725.396 2031.34Z" fill="#D3766A"/>
<path d="M1026.63 2548.69C1010.54 2550.28 588.272 2451.52 574.443 2437.51C574.423 2437.37 574.423 2437.22 574.443 2437.08C572.842 2431.41 572.59 2425.43 573.709 2419.64C573.657 2419.51 573.657 2419.35 573.709 2419.22C575.789 2394.25 584.294 2346.71 595.003 2292.74L626.209 2230.2L896.726 2304.36L871.761 2355.64C871.761 2355.64 1012.5 2466.82 1026.14 2484.14C1039.79 2501.45 1042.78 2547.16 1026.63 2548.69Z" fill="#EBEBEB"/>
<path d="M1032.5 2541.84C1016.17 2543.06 586.436 2433.53 572.73 2418.97C567.467 2413.52 579.766 2349.95 596.838 2273.59L597.389 2271.2L875.432 2338.81L874.147 2343.46C874.147 2343.46 1019.84 2458.99 1033.24 2476.61C1046.64 2494.23 1048.78 2540.68 1032.5 2541.84Z" fill="#263238"/>
<path d="M1031.83 2523.91C959.873 2503.72 667.634 2428.82 594.941 2414.26C594.329 2414.26 594.207 2414.56 594.941 2414.75C665.859 2436.35 958.71 2508.86 1031.71 2524.89C1033.12 2525.44 1033.36 2524.34 1031.83 2523.91Z" fill="white"/>
<path d="M897.215 2350.26C870.047 2337.65 834.068 2333.12 807.145 2347.93C806.105 2348.48 807.145 2349.95 807.879 2349.89C837.367 2348.04 866.967 2349.35 896.175 2353.8C896.604 2353.83 897.029 2353.71 897.38 2353.46C897.732 2353.22 897.989 2352.86 898.11 2352.44C898.231 2352.03 898.208 2351.59 898.045 2351.19C897.883 2350.8 897.59 2350.47 897.215 2350.26Z" fill="white"/>
<path d="M914.593 2367.88C887.486 2355.33 851.507 2350.81 824.522 2365.55C823.482 2366.1 824.522 2367.57 825.318 2367.57C854.805 2365.69 884.409 2367 913.613 2371.49C914.06 2371.53 914.507 2371.42 914.876 2371.16C915.244 2370.91 915.511 2370.53 915.628 2370.1C915.746 2369.66 915.706 2369.2 915.516 2368.8C915.327 2368.39 914.999 2368.07 914.593 2367.88Z" fill="white"/>
<path d="M932.032 2385.56C904.864 2372.96 868.884 2368.43 841.961 2383.17C840.921 2383.79 841.961 2385.26 842.757 2385.19C872.224 2383.35 901.804 2384.66 930.991 2389.11C931.42 2389.14 931.845 2389.02 932.196 2388.77C932.548 2388.52 932.805 2388.16 932.926 2387.75C933.047 2387.34 933.024 2386.9 932.862 2386.5C932.699 2386.1 932.406 2385.77 932.032 2385.56Z" fill="white"/>
<path d="M1042.97 2528.13C1049.88 2533.03 1041.62 2558.42 1035.56 2559.09C1029.51 2559.77 561.471 2438.25 554.067 2434.39C546.663 2430.54 556.82 2402.76 566.305 2403.8C575.789 2404.84 1042.97 2528.13 1042.97 2528.13Z" fill="#CFD8DC"/>
<path d="M656.069 2337.41C628.901 2313.91 592.31 2356.13 619.355 2379.69C646.401 2403.24 683.298 2360.96 656.069 2337.41Z" fill="white"/>
<path d="M627.004 2209.34L940.537 2288.39C940.537 2288.39 1232.78 1761 1226.23 1626.94C1217.23 1442.03 1000.13 873.457 1000.13 873.457H740.204C740.204 873.457 912.696 1488.1 915.082 1591.51C916.122 1645.6 627.004 2209.34 627.004 2209.34Z" fill="#455A64"/>
<path d="M953.937 2224.76C937.233 2218.09 787.992 2175.01 676.628 2151.33C676.506 2151.37 676.399 2151.45 676.324 2151.55C676.248 2151.66 676.208 2151.78 676.208 2151.91C676.208 2152.04 676.248 2152.17 676.324 2152.27C676.399 2152.37 676.506 2152.45 676.628 2152.49C711.69 2164.73 932.949 2223.04 953.692 2225.92C954.182 2226.1 954.671 2225.25 953.937 2224.76Z" fill="#263238"/>
<path d="M936.621 1459.46C915.939 1372.7 893.789 1286.18 870.537 1200.21C847.285 1114.24 822.381 1027.47 795.029 942.172C791.725 931.709 788.237 921.368 784.872 910.966C784.775 910.633 784.549 910.353 784.245 910.187C783.941 910.02 783.583 909.981 783.25 910.079C782.918 910.176 782.637 910.402 782.471 910.706C782.305 911.01 782.266 911.368 782.363 911.7C806.839 996.692 831.315 1081.5 854.505 1166.8C877.696 1252.1 899.785 1337.64 920.589 1423.79C925.79 1445.09 930.869 1466.32 935.825 1487.67C941.586 1509.56 946.04 1531.77 949.165 1554.19C951.737 1575.6 950.263 1597.31 944.82 1618.19C938.916 1638.7 931.196 1658.65 921.752 1677.79C884.263 1759.17 846.795 1840.57 809.348 1921.99C771.9 2003.62 765.842 2022.22 729.802 2104.52C725.335 2114.74 720.868 2124.96 716.585 2135.11C716.585 2135.79 717.258 2136.4 717.625 2135.67C758.622 2055.02 764.924 2035.62 803.29 1953.51C841.655 1871.39 879.776 1788.29 917.836 1705.63C934.969 1668.3 955.1 1630.24 957.67 1588.51C960.24 1544.95 946.534 1501.26 936.621 1459.46Z" fill="#263238"/>
<path d="M950.817 2134.62L960.852 2422.21C962.504 2477.28 964.89 2525.44 968.501 2550.22C968.471 2550.36 968.471 2550.51 968.501 2550.65C968.706 2556.53 970.255 2562.29 973.029 2567.48L973.396 2567.84C990.1 2578.43 1429.99 2578.18 1445.35 2572.98C1460.71 2567.78 1447.12 2523.73 1430.05 2510.08C1412.98 2496.44 1244.46 2421.23 1244.46 2421.23L1231.67 2133.95L950.817 2134.62Z" fill="#D3766A"/>
<path d="M958.771 2363.35C958.771 2363.35 960.852 2422.21 960.852 2422.4C962.504 2477.47 964.89 2525.62 968.501 2550.4C968.471 2550.55 968.471 2550.69 968.501 2550.83C969.337 2556.6 970.857 2562.25 973.029 2567.66L973.396 2568.03C990.1 2578.61 1429.99 2578.37 1445.35 2573.17C1460.71 2567.97 1447.12 2523.91 1430.05 2510.26C1412.98 2496.62 1244.46 2421.42 1244.46 2421.42L1243.18 2361.51L958.771 2363.35Z" fill="#EBEBEB"/>
<path d="M1445.59 2572.68C1430.05 2577.63 986.674 2570.78 969.908 2559.77C963.789 2555.67 960.729 2491.05 959.628 2412.91V2410.47L1245.75 2411.69V2416.58C1245.75 2416.58 1414.32 2495.09 1431.4 2509.1C1448.47 2523.11 1461.19 2567.9 1445.59 2572.68Z" fill="#263238"/>
<path d="M1440.88 2555.67C1366.17 2552.67 1064.51 2547.65 990.406 2550.4C989.794 2550.4 989.794 2550.83 990.406 2550.83C1064.38 2555.42 1366.11 2558.05 1440.88 2556.95C1442.41 2556.58 1442.47 2555.67 1440.88 2555.67Z" fill="white"/>
<path d="M1269.61 2417.69C1240.3 2411.57 1204.2 2415.67 1181.44 2436.04C1180.52 2436.84 1181.44 2438.06 1182.66 2437.82C1210.91 2429.2 1240 2423.6 1269.43 2421.11C1269.78 2421 1270.09 2420.78 1270.32 2420.49C1270.55 2420.19 1270.68 2419.83 1270.7 2419.46C1270.72 2419.09 1270.63 2418.72 1270.43 2418.4C1270.24 2418.09 1269.95 2417.84 1269.61 2417.69Z" fill="white"/>
<path d="M1290.66 2430.78C1261.29 2424.66 1225.25 2428.82 1202.49 2449.44C1201.57 2450.24 1202.49 2451.46 1203.65 2451.16C1231.92 2442.52 1261.02 2436.94 1290.48 2434.51C1290.92 2434.46 1291.33 2434.25 1291.63 2433.92C1291.94 2433.59 1292.12 2433.17 1292.14 2432.72C1292.16 2432.28 1292.02 2431.84 1291.75 2431.48C1291.48 2431.13 1291.1 2430.88 1290.66 2430.78Z" fill="white"/>
<path d="M1311.65 2443.94C1282.34 2437.82 1246.3 2441.92 1223.48 2462.29C1222.62 2463.09 1223.48 2464.31 1224.7 2464.07C1252.95 2455.45 1282.03 2449.85 1311.46 2447.36C1311.82 2447.25 1312.13 2447.03 1312.36 2446.74C1312.59 2446.44 1312.72 2446.08 1312.74 2445.71C1312.76 2445.34 1312.66 2444.97 1312.47 2444.65C1312.28 2444.34 1311.99 2444.09 1311.65 2443.94Z" fill="white"/>
<path d="M1452.63 2556.89C1460.52 2560.07 1458.38 2586.69 1452.63 2588.71C1446.88 2590.73 963.116 2581.12 955.222 2579.16C947.329 2577.21 950.511 2547.77 960.117 2546.37C969.724 2544.96 1452.63 2556.89 1452.63 2556.89Z" fill="#CFD8DC"/>
<path d="M1032.08 2461.13C1000.2 2444.55 974.374 2494.11 1006.32 2510.69C1038.26 2527.27 1064.02 2477.71 1032.08 2461.13Z" fill="white"/>
<path d="M996.892 872.968C995.729 878.291 930.93 1134.49 922.853 1139.26C913.675 1144.71 1158.31 1473.84 1187.31 1635.44C1205.67 1738.79 1248.5 2341.2 1248.5 2341.2H936.56C936.56 2341.2 905.965 1829.6 895.808 1661.02C891.83 1595.61 646.462 1293.21 623.149 1091.6C615.806 1028.08 661.454 872.723 661.454 872.723L996.892 872.968Z" fill="#455A64"/>
<path d="M928.666 2097.79C924.995 2013.04 921.63 1928.11 915.45 1843.49C911.962 1795.52 905.109 1749.07 900.336 1701.28C900.336 1698.78 898.072 1698.16 898.133 1700.73C900.336 1785.85 907.373 1870.04 911.901 1955.1C916.429 2040.15 920.773 2059.97 925.607 2144.78C928.299 2192.75 930.686 2240.73 934.418 2288.64C934.458 2288.76 934.536 2288.87 934.641 2288.94C934.745 2289.02 934.871 2289.06 935 2289.06C935.128 2289.06 935.254 2289.02 935.358 2288.94C935.463 2288.87 935.541 2288.76 935.581 2288.64C935.764 2203.46 932.399 2182.84 928.666 2097.79Z" fill="#263238"/>
<path d="M1187.62 1639.48C1184.95 1617.1 1180.61 1594.95 1174.65 1573.22C1168.22 1552.15 1159.76 1531.76 1149.38 1512.33C1128.14 1471.58 1103.97 1432.17 1080.66 1392.59C1057.35 1353 1033.05 1312.55 1008.46 1273.02C994.628 1250.83 980.738 1228.66 966.787 1206.51C952.591 1184.18 937.6 1162.27 922.976 1140.24C922.862 1140.05 922.679 1139.92 922.467 1139.87C922.254 1139.82 922.03 1139.85 921.844 1139.97C921.657 1140.08 921.523 1140.26 921.472 1140.48C921.42 1140.69 921.455 1140.91 921.568 1141.1C945.432 1181.12 969.051 1221.19 992.915 1261.21C1016.78 1301.23 1040.28 1341.37 1063.77 1381.51C1087.27 1421.65 1110.09 1460.57 1132.24 1500.71C1143.15 1519.76 1152.54 1539.65 1160.33 1560.18C1167.57 1581.46 1172.84 1603.35 1176.05 1625.59C1184.38 1677.42 1191.17 1729.61 1201.57 1780.95C1201.61 1781.07 1201.69 1781.18 1201.79 1781.26C1201.9 1781.33 1202.02 1781.37 1202.15 1781.37C1202.28 1781.37 1202.41 1781.33 1202.51 1781.26C1202.61 1781.18 1202.69 1781.07 1202.73 1780.95C1199.49 1733.71 1193.86 1686.42 1187.62 1639.48Z" fill="#263238"/>
<path d="M1221.03 2287.72C1203.22 2285.39 1067.32 2280.68 953.632 2285.58C952.897 2285.58 952.958 2286.68 953.632 2286.74C990.651 2289.98 1199.98 2291.45 1220.84 2289C1221.39 2288.94 1221.64 2287.84 1221.03 2287.72Z" fill="#263238"/>
<path d="M963.544 1121.76C931.761 1133.34 901.05 1147.67 871.76 1164.59C871.509 1164.71 871.313 1164.92 871.215 1165.18C871.118 1165.43 871.127 1165.72 871.24 1165.97C871.354 1166.22 871.563 1166.42 871.821 1166.52C872.079 1166.61 872.365 1166.61 872.617 1166.49C903.579 1153.15 935.213 1140.42 965.441 1125.43C965.928 1125.18 966.295 1124.75 966.461 1124.23C966.627 1123.7 966.58 1123.14 966.328 1122.65C966.076 1122.16 965.642 1121.8 965.12 1121.63C964.598 1121.46 964.031 1121.51 963.544 1121.76Z" fill="#263238"/>
<path d="M972.906 909.681C972.906 908.641 970.948 908.396 970.948 909.681C970.954 944.257 969.218 978.811 965.747 1013.21C964.278 1029.18 951.428 1117.23 923.771 1111.12C919.121 1110.01 916.795 1105.49 916.061 1098.45C916.138 1089.32 917.372 1080.23 919.732 1071.4C922.792 1053.05 925.239 1034.69 926.83 1015.78C930.074 981.042 929.705 946.059 925.729 911.394C925.677 911.199 925.562 911.025 925.402 910.902C925.241 910.778 925.044 910.711 924.842 910.711C924.639 910.711 924.442 910.778 924.282 910.902C924.121 911.025 924.006 911.199 923.954 911.394C924.756 959.551 921.933 1007.7 915.51 1055.43C912.023 1078.38 900.458 1112.95 924.505 1116.62C948.552 1120.29 964.768 1062.35 967.705 1046.5C975.359 1001.31 977.107 955.32 972.906 909.681Z" fill="#263238"/>
<path d="M924.505 1113.01C922.054 1118.99 920.01 1125.12 918.387 1131.37C916.625 1136.17 915.755 1141.25 915.817 1146.36C915.846 1146.57 915.939 1146.76 916.082 1146.92C916.225 1147.07 916.412 1147.18 916.617 1147.23C916.823 1147.28 917.038 1147.26 917.234 1147.18C917.43 1147.1 917.597 1146.96 917.713 1146.79C920.604 1142.28 922.772 1137.34 924.138 1132.16C926.28 1126.47 928.483 1120.91 930.257 1115.15C930.541 1114.39 930.511 1113.55 930.172 1112.81C929.834 1112.07 929.215 1111.49 928.452 1111.21C927.689 1110.92 926.845 1110.95 926.105 1111.29C925.365 1111.63 924.789 1112.25 924.505 1113.01Z" fill="#263238"/>
<path d="M937.538 1743.26C934.601 1699.69 934.785 1653.74 916.245 1613.36C906.397 1593.68 895.065 1574.77 882.346 1556.82C869.7 1537.48 857.218 1518.04 844.898 1498.5C795.947 1420.37 748.709 1340.64 705.693 1258.95C684.95 1219.6 665.859 1178.97 655.457 1135.53C645.313 1089.81 643.386 1042.66 649.766 996.264C651.235 984.699 652.826 973.195 654.723 961.692C654.729 961.536 654.681 961.383 654.587 961.258C654.492 961.134 654.358 961.046 654.206 961.01C654.054 960.974 653.895 960.992 653.755 961.06C653.614 961.129 653.502 961.244 653.438 961.386C643.37 1005.5 639.926 1050.87 643.219 1096C647.928 1139.15 660.08 1181.16 679.137 1220.15C698.106 1261.21 720.684 1300.74 742.957 1340.08C765.924 1380.88 789.563 1421.08 813.875 1460.69C838.351 1500.22 863.561 1538.95 888.832 1577.87C901.722 1596.22 911.768 1616.42 918.631 1637.77C924.195 1660.05 927.394 1682.86 928.177 1705.81C934.295 1802.12 958.771 2122.33 967.46 2218.15C968.5 2230.39 969.602 2242.62 970.764 2254.86C970.729 2254.99 970.724 2255.12 970.749 2255.25C970.774 2255.38 970.829 2255.5 970.909 2255.61C970.989 2255.71 971.092 2255.8 971.21 2255.86C971.328 2255.91 971.458 2255.95 971.59 2255.95C971.722 2255.95 971.852 2255.91 971.97 2255.86C972.088 2255.8 972.191 2255.71 972.271 2255.61C972.351 2255.5 972.406 2255.38 972.431 2255.25C972.456 2255.12 972.451 2254.99 972.416 2254.86C968.745 2158.67 943.841 1839.27 937.538 1743.26Z" fill="#263238"/>
<path d="M787.809 957.409C787.809 956.736 786.707 956.98 786.707 957.409C785.79 984.148 786.707 1011.81 776.244 1036.95C766.821 1060.15 747.852 1076.42 726.62 1088.6C714.272 1095.53 701.545 1101.76 688.499 1107.26C687.581 1107.69 687.948 1109.16 688.989 1108.85C713.464 1101.02 738.735 1092.51 759.234 1076.12C781.139 1058.49 790.746 1032.98 791.786 1005.44C792.161 989.335 790.828 973.234 787.809 957.409Z" fill="#263238"/>
<path d="M923.587 521.559C958.588 629.007 1053.12 812.023 1086.9 834.113C1116.82 853.632 1257.62 831.849 1319.42 816.98C1342.43 811.412 1290.66 636.044 1266.12 642.469C1236.69 650.178 1149.01 669.942 1142.64 665.047C1136.28 660.152 1047.86 551.236 985.205 487.11C928.177 429.041 910.371 480.929 923.587 521.559Z" fill="#D3766A"/>
<path d="M1305.9 818.326C1317.71 816.857 1417.63 812.207 1463.46 787.303C1487.93 774.025 1550.41 730.091 1544.17 714.305C1538.48 699.925 1518.41 707.757 1518.41 707.757C1518.41 707.757 1546 687.748 1537.93 667.801C1529.85 647.853 1496.5 662.845 1496.5 662.845C1496.5 662.845 1523.36 640.205 1513.88 620.93C1504.39 601.655 1473.43 622.276 1473.43 622.276C1473.43 622.276 1498.95 602.757 1484.45 590.152C1466.95 574.977 1423.93 616.341 1394.87 626.009C1388.26 628.211 1258.05 661.131 1258.05 661.131L1305.9 818.326Z" fill="#D3766A"/>
<path d="M1472.33 621.725C1440.64 652.014 1421.48 659.785 1379.14 668.351C1378.34 668.351 1378.41 669.82 1379.14 669.698C1421.36 665.108 1446.75 658.806 1473.74 623.194C1475.21 621.419 1473.8 620.257 1472.33 621.725Z" fill="#263238"/>
<path d="M1495.46 662.11C1459.79 690.747 1439.11 699.313 1395.42 711.551C1394.8 711.551 1395.05 712.836 1395.72 712.714C1439.53 704.27 1464.74 697.416 1496.62 664.129C1498.09 662.661 1497.11 660.825 1495.46 662.11Z" fill="#263238"/>
<path d="M1516.26 708.247C1479.55 733.456 1457.46 743.92 1413.53 750.345C1413.32 750.345 1413.12 750.428 1412.97 750.578C1412.82 750.727 1412.73 750.929 1412.73 751.14C1412.73 751.351 1412.82 751.553 1412.97 751.703C1413.12 751.852 1413.32 751.936 1413.53 751.936C1458.99 749.733 1486.96 736.944 1516.75 709.47C1518.96 707.757 1518.53 706.717 1516.26 708.247Z" fill="#263238"/>
<path d="M1223.9 666.761C1223.9 666.761 1260.31 625.58 1280.26 611.017C1300.21 596.454 1394.68 569.531 1401.66 589.601C1410.65 615.545 1359.19 641.795 1332.33 651.341C1332.33 651.341 1353.2 711.306 1320.09 738.107C1286.99 764.908 1223.9 666.761 1223.9 666.761Z" fill="#D3766A"/>
<path d="M1401.84 597.617C1392.97 627.171 1356.87 637.451 1331.47 648.649C1331.1 648.811 1330.77 649.058 1330.5 649.372C1330.24 649.685 1330.05 650.055 1329.96 650.453C1329.86 650.851 1329.86 651.266 1329.95 651.664C1330.05 652.063 1330.23 652.434 1330.49 652.748C1337.59 678.448 1340.04 716.752 1322.05 738.413C1321.56 739.025 1322.36 739.882 1322.97 739.331C1345.42 718.771 1346.04 680.895 1336.49 653.238C1362.74 642.163 1398.48 630.231 1402.09 597.739C1402.15 597.617 1401.9 597.617 1401.84 597.617Z" fill="#263238"/>
<path d="M1305.84 848.492L1259.7 638.369L1145.52 659.112C1100.49 607.529 1010.48 504.426 974.191 473.464C931.359 437.118 903.334 464.408 919.121 519.478C954.794 645.344 1059.12 830.135 1086.41 847.574C1126 872.968 1305.84 848.492 1305.84 848.492Z" fill="#CFD8DC"/>
<path opacity="0.1" d="M1142.83 723.054C1148.48 724.283 1154.24 724.96 1160.02 725.074C1172.26 726.726 1177.64 744.776 1166.51 751.63C1160.66 755.232 1154.05 757.413 1147.21 757.997C1140.36 758.582 1133.48 757.553 1127.1 754.995C1114.86 750.222 1104.52 738.352 1107.15 724.401C1107.61 721.8 1108.73 719.361 1110.41 717.322C1112.09 715.283 1114.26 713.713 1116.73 712.764C1119.19 711.815 1121.86 711.521 1124.47 711.908C1127.08 712.296 1129.55 713.354 1131.63 714.977C1135.02 718.114 1138.78 720.827 1142.83 723.054ZM1111.25 673.063C1106.85 693.867 1139.03 711.734 1155.49 700.659C1156.82 699.654 1157.9 698.363 1158.66 696.882C1159.42 695.401 1159.84 693.768 1159.88 692.104C1159.92 690.44 1159.59 688.788 1158.9 687.272C1158.22 685.755 1157.2 684.412 1155.92 683.343C1151.09 679.427 1147.05 678.815 1142.77 675.266C1141.27 674.096 1139.95 672.715 1138.85 671.166C1136.42 667.821 1133.32 665.026 1129.73 662.967C1127.87 662.17 1125.85 661.807 1123.82 661.905C1121.8 662.002 1119.82 662.558 1118.04 663.53C1116.26 664.502 1114.73 665.865 1113.55 667.516C1112.38 669.167 1111.59 671.064 1111.25 673.063ZM1059.92 674.164C1053.31 682.792 1058.26 695.764 1064.08 703.596C1066.69 707.497 1070.3 710.634 1074.52 712.687C1078.75 714.74 1083.44 715.636 1088.13 715.283C1089.83 715.043 1091.43 714.314 1092.73 713.185C1094.04 712.056 1094.98 710.574 1095.46 708.918C1095.94 707.262 1095.93 705.503 1095.43 703.853C1094.93 702.203 1093.97 700.733 1092.65 699.619C1088.97 696.82 1086.03 693.166 1084.09 688.972C1081.21 682.486 1079.31 674.103 1071.85 671.288C1069.81 670.45 1067.56 670.277 1065.42 670.793C1063.27 671.31 1061.35 672.489 1059.92 674.164ZM1195.45 810.249C1186.82 827.688 1213.07 847.513 1228.98 844.086C1234.31 842.924 1239.45 835.948 1234.73 830.931C1230.94 826.892 1226.41 823.71 1222.86 819.427C1218.52 814.226 1216.13 807.557 1209.34 804.925C1206.79 803.856 1203.92 803.812 1201.33 804.804C1198.74 805.795 1196.64 807.745 1195.45 810.249ZM948.981 596.393C947.476 593.528 945.392 591.007 942.862 588.989C946.289 597.76 949.899 606.55 953.693 615.362C953.896 608.726 952.266 602.162 948.981 596.393ZM983.063 578.036C981.865 562.921 975.959 548.562 966.175 536.978C958.833 527.494 946.105 512.503 932.644 515.746C931.213 516.193 929.964 517.089 929.082 518.301C928.201 519.514 927.733 520.978 927.749 522.477C926.892 532.818 938.763 543.893 943.903 552.153C950.021 562.556 954.855 574.059 961.464 584.4C962.845 586.526 964.877 588.148 967.256 589.024C969.636 589.9 972.235 589.983 974.665 589.26C977.095 588.537 979.226 587.047 980.74 585.013C982.254 582.98 983.069 580.51 983.063 577.975V578.036ZM979.086 643.815C981.477 643.691 983.766 642.804 985.616 641.285C987.466 639.765 988.78 637.692 989.366 635.37C990.317 630.62 990 625.703 988.448 621.113C987.533 616.743 985.414 612.716 982.329 609.487C981.225 608.465 979.874 607.748 978.408 607.405C976.943 607.062 975.414 607.105 973.971 607.531C972.527 607.957 971.219 608.75 970.175 609.833C969.13 610.916 968.384 612.252 968.011 613.71C967.521 617.283 967.521 620.906 968.011 624.479C968.011 626.009 968.011 627.538 968.011 629.129C967.979 631.435 968.226 633.736 968.745 635.982C969.404 638.218 970.765 640.181 972.628 641.581C974.491 642.981 976.756 643.743 979.086 643.753V643.815Z" fill="#030402"/>
<path d="M1265.88 830.135C1260.62 817.897 1247.52 763.562 1244.65 750.039C1241.77 736.516 1231.12 681.813 1228 667.923C1228 667.128 1228.86 666.699 1229.04 667.434C1232.35 681.14 1247.09 735.109 1250.34 748.57C1253.58 762.032 1265.76 816.307 1266.61 829.952C1266.63 830 1266.63 830.05 1266.62 830.099C1266.61 830.148 1266.6 830.196 1266.57 830.238C1266.52 830.324 1266.44 830.386 1266.34 830.411C1266.24 830.435 1266.14 830.42 1266.05 830.368C1265.97 830.316 1265.9 830.233 1265.88 830.135Z" fill="#263238"/>
<path opacity="0.1" d="M1159.84 859.017C1127.71 859.017 1099.51 855.957 1086.41 847.574C1058.94 829.83 954.61 645.65 918.692 519.54C909.636 487.966 915.082 465.449 929.4 458.901L1159.84 859.017Z" fill="black"/>
<path d="M642.057 901.788C642.852 902.95 1024.67 951.902 1028.77 948.353C1030.93 937.723 1032.46 926.976 1033.36 916.167C1033.36 916.167 998.361 500.449 980.249 476.034C964.401 454.741 916.306 439.321 883.57 453.211C814.855 482.337 650.317 853.754 652.092 869.296C651.97 869.113 641.078 900.319 642.057 901.788Z" fill="#CFD8DC"/>
<path opacity="0.1" d="M779.732 851.184C785.621 854.044 791.767 856.339 798.089 858.038C810.816 863.116 811.979 884.349 798.089 888.632C790.705 890.975 782.876 891.559 775.226 890.337C767.577 889.115 760.319 886.122 754.033 881.595C741.795 873.029 733.901 857.12 740.51 842.924C741.723 840.223 743.61 837.879 745.991 836.118C748.371 834.357 751.165 833.239 754.102 832.87C757.04 832.501 760.024 832.895 762.766 834.013C765.507 835.13 767.916 836.935 769.758 839.253C773.185 843.23 775.265 848.492 779.732 851.184ZM758.805 787.976C748.342 809.576 778.631 837.784 799.619 830.135C801.377 829.432 802.948 828.331 804.208 826.918C805.468 825.505 806.383 823.819 806.882 821.992C807.38 820.166 807.447 818.248 807.079 816.391C806.711 814.534 805.916 812.787 804.758 811.289C800.598 805.721 796.314 803.946 792.521 799.051C791.211 797.36 790.16 795.483 789.4 793.483C787.591 789.211 784.949 785.342 781.629 782.102C774.347 775.065 762.66 780.022 758.805 787.976ZM723.438 764.969C711.996 769.252 709.059 784.672 709.915 795.564C710.091 800.855 711.668 806.004 714.485 810.487C717.301 814.97 721.256 818.625 725.947 821.079C727.717 821.87 729.678 822.131 731.594 821.831C733.509 821.531 735.297 820.682 736.74 819.388C738.183 818.093 739.221 816.408 739.727 814.537C740.233 812.665 740.186 810.687 739.592 808.842C737.649 803.949 736.976 798.645 737.634 793.422C738.674 785.59 741.795 776.411 736.594 769.375C735.146 767.346 733.094 765.828 730.731 765.036C728.368 764.245 725.815 764.221 723.438 764.969ZM848.876 837.784C845.979 837.536 843.098 838.406 840.822 840.215C838.546 842.024 837.049 844.635 836.638 847.513C836.325 850.605 837.101 853.709 838.832 856.29C840.564 858.87 843.142 860.765 846.122 861.648C850.295 863.025 854.799 863.025 858.972 861.648C861.108 860.803 862.867 859.218 863.928 857.181C865.157 855.211 865.655 852.872 865.336 850.573C864.997 848.427 864.014 846.435 862.516 844.861C861.019 843.288 859.079 842.206 856.953 841.761C856.568 841.253 856.115 840.8 855.607 840.415C853.664 838.906 851.326 837.992 848.876 837.784ZM755.073 690.135C744.793 700.659 748.954 724.584 760.702 732.661C762.215 733.811 764.002 734.545 765.886 734.791C767.77 735.036 769.686 734.785 771.443 734.061C773.199 733.337 774.736 732.167 775.901 730.665C777.065 729.164 777.816 727.384 778.08 725.502C778.261 723.078 778.261 720.644 778.08 718.221C778.08 715.59 777.713 713.937 778.08 712.102C778.995 706.87 779.18 701.536 778.631 696.254C778.155 693.748 776.978 691.429 775.235 689.567C773.493 687.705 771.258 686.376 768.789 685.734C766.321 685.093 763.721 685.167 761.293 685.946C758.865 686.725 756.708 688.177 755.073 690.135ZM688.683 842.373C674.548 859.139 697.861 887.898 716.157 888.449C722.276 888.449 729.802 882.33 726.008 875.599C722.949 870.214 718.849 865.441 716.157 859.873C712.852 853.02 712.057 845.004 705.326 840.354C702.816 838.509 699.697 837.691 696.604 838.066C693.512 838.441 690.679 839.982 688.683 842.373ZM1026.26 837.05C1023.96 837.395 1021.81 838.417 1020.09 839.985C1018.37 841.554 1017.15 843.599 1016.59 845.861C1014.64 852.653 1014.39 858.711 1009.31 864.218C1003.82 868.542 998.883 873.537 994.628 879.087C993.918 880.473 993.58 882.019 993.647 883.575C993.714 885.13 994.183 886.642 995.01 887.962C995.836 889.282 996.991 890.364 998.361 891.104C999.732 891.844 1001.27 892.215 1002.83 892.181C1013.51 890.868 1023.29 885.528 1030.18 877.251C1028.96 865.625 1027.73 851.98 1026.32 836.805L1026.26 837.05ZM995.668 786.569C992.242 794.891 992.854 804.314 989.978 813.002C987.454 820.968 984.45 828.774 980.983 836.377C978.413 841.884 983.553 850.573 990.222 847.635C1001.07 843.471 1009.94 835.363 1015.07 824.934C1019.72 815.328 1024.86 799.174 1020.39 788.955C1015.92 778.737 1000.75 774.27 995.546 786.324L995.668 786.569ZM960.791 869.969C955.705 876.539 949.2 881.874 941.761 885.573C939.988 886.123 938.353 887.044 936.963 888.274C935.573 889.504 934.461 891.016 933.7 892.708C932.939 894.401 932.546 896.236 932.548 898.092C932.55 899.948 932.946 901.783 933.711 903.474C934.476 905.165 935.591 906.674 936.984 907.902C938.376 909.129 940.013 910.046 941.787 910.593C943.561 911.139 945.43 911.302 947.272 911.071C949.114 910.84 950.885 910.22 952.469 909.253C958.8 906.539 964.459 902.469 969.047 897.331C973.636 892.193 977.041 886.112 979.025 879.515C981.901 868.929 967.582 862.015 960.668 869.725L960.791 869.969ZM904.864 570.143C908.283 570.866 911.849 570.238 914.814 568.39C917.78 566.542 919.916 563.618 920.773 560.23C924.199 547.075 912.451 533.552 903.15 525.353C893.85 517.153 880.755 509.688 867.722 513.91C865.987 514.473 864.424 515.469 863.182 516.804C861.94 518.14 861.059 519.771 860.624 521.542C860.189 523.313 860.214 525.166 860.695 526.926C861.177 528.685 862.101 530.292 863.378 531.594C869.068 538.692 876.961 543.832 883.019 550.807C889.077 557.783 894.094 568.124 904.741 569.898L904.864 570.143ZM951.796 622.093C956.936 614.689 952.958 603.736 949.287 596.699C947.332 592.817 944.292 589.587 940.537 587.398C938.01 585.781 934.946 585.227 932.012 585.858C929.079 586.488 926.513 588.251 924.873 590.764C923.204 594.243 922.941 598.232 924.138 601.9C924.649 603.819 925.346 605.684 926.219 607.468V608.019V608.509C927.312 614.352 929.788 619.849 933.439 624.54C934.703 625.813 936.244 626.775 937.941 627.353C939.639 627.931 941.447 628.109 943.225 627.872C945.002 627.635 946.701 626.99 948.188 625.987C949.675 624.985 950.91 623.652 951.796 622.093ZM983.369 578.281C982.171 563.166 976.265 548.807 966.481 537.223C959.138 527.739 946.411 512.748 932.949 515.991C931.519 516.438 930.27 517.334 929.388 518.546C928.506 519.758 928.039 521.223 928.054 522.722C927.198 533.062 939.068 544.138 944.208 552.398C950.327 562.8 955.161 574.304 961.77 584.645C963.21 586.654 965.248 588.157 967.592 588.94C969.937 589.724 972.469 589.748 974.828 589.009C977.187 588.27 979.253 586.806 980.731 584.825C982.21 582.844 983.026 580.447 983.063 577.975L983.369 578.281ZM937.172 683.037C939.409 683.526 941.726 683.526 943.964 683.037C947.355 681.993 950.222 679.695 951.979 676.612C953.623 673.33 954.443 669.696 954.366 666.026C954.255 662.549 953.311 659.15 951.612 656.114L949.593 653.605L946.901 651.647C945.216 650.778 943.358 650.3 941.464 650.249C939.57 650.198 937.688 650.574 935.959 651.35C934.231 652.126 932.699 653.282 931.479 654.732C930.259 656.182 929.381 657.888 928.911 659.724C927.892 663.288 927.176 666.931 926.769 670.615L927.32 673.981C927.749 675.67 928.59 677.225 929.768 678.509C931.616 680.645 934.106 682.126 936.866 682.731L937.172 683.037ZM979.392 644.059C981.783 643.936 984.072 643.049 985.922 641.529C987.772 640.01 989.086 637.937 989.672 635.615C990.623 630.865 990.306 625.948 988.754 621.358C987.839 616.988 985.72 612.961 982.635 609.732C981.53 608.71 980.179 607.993 978.714 607.65C977.249 607.307 975.72 607.35 974.276 607.776C972.833 608.202 971.525 608.995 970.48 610.078C969.436 611.161 968.69 612.497 968.317 613.954C967.827 617.527 967.827 621.151 968.317 624.724C968.317 626.253 968.317 627.783 968.317 629.374C968.285 631.68 968.532 633.981 969.051 636.227C969.736 638.368 971.07 640.243 972.868 641.591C974.666 642.94 976.839 643.695 979.086 643.753L979.392 644.059Z" fill="#030402"/>
<path d="M957.914 541.2C934.601 539.059 904.741 489.251 899.051 457.616C898.683 455.413 907.984 436.996 918.203 414.111C924.322 400.221 930.93 384.556 935.825 369.871L1020.51 423.167C1009.08 439.791 999.734 457.751 992.67 476.646C992.037 478.641 991.587 480.689 991.324 482.765C991.345 483.111 991.345 483.459 991.324 483.805C989.182 496.043 980.493 543.281 957.914 541.2Z" fill="#D3766A"/>
<path d="M991.324 482.887C991.343 483.234 991.343 483.581 991.324 483.928C988.061 483.289 984.85 482.41 981.717 481.297C928.727 462.206 938.089 392.695 941.822 373.481L962.932 386.821L1020.76 423.534C1009.33 440.152 1000 458.113 992.976 477.013C992.247 478.917 991.695 480.883 991.324 482.887Z" fill="#263238"/>
<path d="M944.698 271.785C927.198 303.297 924.138 404.504 943.535 431.366C971.56 470.282 1027.85 485.457 1063.53 449.723C1098.1 414.723 1099.69 282.738 1077.17 257.283C1043.89 219.468 970.519 225.22 944.698 271.785Z" fill="#D3766A"/>
<path d="M1025.96 353.595C1025.96 353.595 1025.41 353.595 1025.41 354.207C1025.41 361.182 1024.18 369.137 1017.82 371.217V371.646C1025.59 370.789 1027.06 360.203 1025.96 353.595Z" fill="#263238"/>
<path d="M1020.02 346.13C1008.82 344.906 1007.17 367.301 1017.51 368.464C1027.85 369.627 1029.38 347.17 1020.02 346.13Z" fill="#263238"/>
<path d="M1066.1 355.981C1066.1 355.981 1066.59 356.348 1066.59 356.654C1065.79 363.569 1066.1 371.646 1072.15 374.399C1072.15 374.399 1072.15 374.889 1072.15 374.827C1064.51 373.114 1064.26 362.406 1066.1 355.981Z" fill="#263238"/>
<path d="M1072.89 349.25C1084.09 349.25 1083.17 371.707 1072.89 371.707C1062.61 371.707 1063.47 349.189 1072.89 349.25Z" fill="#263238"/>
<path d="M1029.08 341.602C1025.96 342.275 1022.96 342.336 1019.9 342.703C1016.73 343.532 1013.38 343.296 1010.35 342.03C1009.47 341.45 1008.81 340.596 1008.47 339.599C1008.12 338.603 1008.12 337.522 1008.46 336.523C1009.46 334.698 1010.93 333.171 1012.71 332.096C1014.5 331.022 1016.53 330.438 1018.61 330.404C1022.84 329.592 1027.22 330.423 1030.85 332.729C1031.61 333.298 1032.19 334.068 1032.53 334.952C1032.86 335.836 1032.94 336.797 1032.76 337.724C1032.57 338.651 1032.13 339.508 1031.48 340.194C1030.83 340.88 1029.99 341.368 1029.08 341.602Z" fill="#263238"/>
<path d="M1082.92 328.385C1079.95 327.551 1077.03 326.55 1074.17 325.387C1070.96 324.78 1068.03 323.123 1065.85 320.675C1065.31 319.778 1065.08 318.726 1065.2 317.684C1065.32 316.642 1065.79 315.67 1066.53 314.923C1068.2 313.646 1070.18 312.846 1072.27 312.609C1074.37 312.372 1076.48 312.707 1078.4 313.577C1082.53 314.709 1086.1 317.322 1088.43 320.92C1088.91 321.774 1089.14 322.749 1089.08 323.729C1089.02 324.708 1088.68 325.65 1088.1 326.439C1087.52 327.229 1086.72 327.833 1085.8 328.178C1084.88 328.524 1083.88 328.595 1082.92 328.385Z" fill="#263238"/>
<path d="M1020.88 408.787C1029.89 406.63 1039.28 406.63 1048.29 408.787C1049.09 408.787 1049.88 407.197 1050.07 406.462L1050.56 391.777C1052.45 392.878 1062 397.896 1062 395.203C1062.99 371.335 1061.54 347.428 1057.65 323.857C1057.61 323.72 1057.52 323.6 1057.41 323.515C1057.29 323.43 1057.15 323.385 1057.01 323.385C1056.87 323.385 1056.73 323.43 1056.61 323.515C1056.5 323.6 1056.41 323.72 1056.37 323.857C1055.39 345.946 1058.2 367.974 1057.53 390.186C1054.15 388.315 1050.53 386.934 1046.76 386.086C1045.97 386.086 1046.76 401.689 1046.76 404.015C1038.34 401.113 1029.12 401.618 1021.06 405.422C1017.88 407.441 1016.6 410.134 1020.88 408.787Z" fill="#263238"/>
<path d="M1002.77 423.35C1004.3 425.064 1005.83 427.389 1008.27 427.756C1010.85 427.879 1013.41 427.44 1015.8 426.471C1015.8 426.471 1016.23 426.471 1015.8 426.838C1014.75 428.137 1013.35 429.121 1011.78 429.682C1010.2 430.243 1008.5 430.36 1006.87 430.02C1005.53 429.592 1004.34 428.787 1003.45 427.702C1002.56 426.616 1002.01 425.296 1001.85 423.901C1001.97 423.228 1002.52 423.106 1002.77 423.35Z" fill="#263238"/>
<path opacity="0.2" d="M974.252 239.661C973.334 255.386 969.602 304.154 962.014 314.067C954.427 323.979 938.395 347.048 930.257 350.78C931.359 318.289 936.376 287.388 944.759 271.234C951.632 258.292 961.807 247.398 974.252 239.661Z" fill="#263238"/>
<path d="M1061.45 287.327C1057.17 291.682 1051.85 294.868 1045.99 296.582C1040.13 298.296 1033.93 298.48 1027.98 297.117C1021.89 295.762 1016.25 292.86 1011.61 288.691C1006.97 284.521 1003.48 279.225 1001.48 273.315C1001.48 272.948 1000.81 273.315 1000.93 273.315C1002.49 279.696 1005.76 285.529 1010.4 290.179C1015.04 294.829 1020.86 298.117 1027.24 299.687C1033.61 300.903 1040.18 300.41 1046.3 298.261C1052.41 296.111 1057.85 292.381 1062.06 287.449C1062.43 287.511 1061.94 286.96 1061.45 287.327Z" fill="#263238"/>
<path d="M1030.73 196.645C1021.33 196.009 1011.91 197.749 1003.36 201.706C994.804 205.662 987.383 211.707 981.778 219.285C977.003 226.997 974.976 236.097 976.027 245.107H976.822C976.938 237.201 979.189 229.474 983.336 222.742C987.482 216.01 993.371 210.524 1000.38 206.863C1008.04 202.575 1016.59 200.117 1025.36 199.682C1034.12 199.247 1042.87 200.846 1050.92 204.355C1058.84 207.618 1065.34 213.58 1069.28 221.182C1069.65 221.977 1071.24 221.61 1070.93 220.815C1065.91 207.475 1049.7 197.563 1030.73 196.645Z" fill="#263238"/>
<path d="M1147.6 250.002C1144.94 239.643 1138.7 230.56 1129.98 224.364C1117.74 215.614 1103.42 215.736 1089.1 216.226C1088.68 216.226 1088.74 216.837 1089.1 216.776C1101.28 215.505 1113.56 217.779 1124.47 223.324C1133.35 228.654 1140.12 236.89 1143.62 246.637C1146.96 256.634 1146.57 267.499 1142.54 277.234C1138.5 286.969 1131.09 294.921 1121.66 299.626C1116.17 302.206 1110.21 303.634 1104.15 303.824C1098.09 304.013 1092.05 302.96 1086.41 300.728C1085.98 300.728 1085.62 301.156 1086.04 301.401C1093.67 304.771 1102.09 305.941 1110.35 304.778C1118.61 303.615 1126.38 300.165 1132.79 294.819C1139.19 289.473 1143.97 282.443 1146.59 274.524C1149.2 266.604 1149.56 258.111 1147.6 250.002Z" fill="#263238"/>
<path d="M938.579 291.672C938.579 291.672 921.691 253.184 939.742 232.991C949.96 221.61 980.677 225.526 980.677 225.526C989.853 213.878 1003.28 206.351 1018 204.599C1044.25 200.5 1074.17 218.245 1074.17 218.245C1074.17 218.245 1099.75 206.007 1121.72 220.876C1152.31 241.619 1144.66 290.142 1111.25 303.359C1087.76 312.721 1058.51 290.325 1058.51 290.325C1055.57 290.325 1023.88 306.479 1003.01 277.72C1003.01 277.72 983.186 292.834 967.338 279.984C964.324 284.65 959.948 288.274 954.802 290.365C949.657 292.456 943.993 292.912 938.579 291.672Z" fill="#263238"/>
<path d="M948.553 355.614C948.553 355.614 932.521 319.696 916.673 325.019C900.825 330.343 908.535 379.172 924.2 388.717C926.109 390.045 928.265 390.976 930.54 391.455C932.816 391.934 935.164 391.951 937.447 391.506C939.729 391.061 941.899 390.163 943.828 388.864C945.756 387.565 947.405 385.892 948.675 383.945L948.553 355.614Z" fill="#D3766A"/>
<path d="M919.243 338.848V339.277C930.135 346.313 934.235 358.49 936.376 370.667C935.916 369.355 935.176 368.158 934.207 367.16C933.239 366.162 932.066 365.386 930.768 364.885C929.471 364.385 928.08 364.172 926.693 364.262C925.305 364.352 923.953 364.741 922.731 365.404C922.364 365.404 922.731 366.078 922.731 366.078C924.96 365.82 927.213 366.273 929.169 367.372C931.124 368.47 932.683 370.159 933.623 372.196C935.283 375.506 936.556 378.997 937.416 382.599C937.416 383.761 939.742 383.578 939.619 382.599C942.74 366.812 935.091 343.499 919.243 338.848Z" fill="#263238"/>
<path d="M1796.68 426.903L1137.9 628.689L1256.68 1016.47L1915.46 814.681L1796.68 426.903Z" fill="#CFD8DC"/>
<path opacity="0.2" d="M1796.68 426.903L1137.9 628.689L1256.68 1016.47L1915.46 814.681L1796.68 426.903Z" fill="black"/>
<path opacity="0.2" d="M1796.65 426.906L1575.26 494.717L1694.04 882.495L1915.43 814.683L1796.65 426.906Z" fill="black"/>
<path d="M1786.05 446.664C1778.58 481.011 1771.32 515.358 1764.26 549.706L1743.4 652.993L1723.21 756.709C1716.6 791.219 1710.15 825.791 1703.87 860.424C1711.34 826.117 1718.6 791.77 1725.65 757.382L1746.52 654.094L1766.71 550.624C1773.32 515.95 1779.77 481.297 1786.05 446.664Z" fill="#CFD8DC"/>
<path d="M1894.78 801.683C1870.3 776.554 1845.6 751.528 1820.68 726.604L1746.03 652.198L1670.89 578.342C1645.76 553.867 1620.51 529.391 1595.14 504.916C1619.61 530.085 1644.31 555.111 1669.24 579.994L1743.89 654.4L1819.03 728.256C1844.2 752.976 1869.45 777.452 1894.78 801.683Z" fill="#CFD8DC"/>
<path d="M1264.43 678.66L1268.06 677.549L1252.45 626.591L1248.82 627.702L1264.43 678.66Z" fill="#263238"/>
<path d="M1255.81 681.248L1259.44 680.137L1243.83 629.178L1240.21 630.29L1255.81 681.248Z" fill="#263238"/>
<path d="M1247.12 684.023L1250.75 682.912L1235.14 631.953L1231.51 633.064L1247.12 684.023Z" fill="#263238"/>
<path d="M1238.51 686.52L1242.14 685.409L1226.54 634.448L1222.91 635.558L1238.51 686.52Z" fill="#263238"/>
<path d="M1229.83 689.217L1233.45 688.106L1217.84 637.147L1214.22 638.258L1229.83 689.217Z" fill="#263238"/>
<path d="M1221.19 691.808L1224.82 690.697L1209.21 639.738L1205.58 640.849L1221.19 691.808Z" fill="#263238"/>
<path d="M1212.46 694.659L1216.08 693.548L1200.47 642.589L1196.85 643.7L1212.46 694.659Z" fill="#263238"/>
<path d="M1203.81 697.231L1207.44 696.119L1191.82 645.163L1188.19 646.275L1203.81 697.231Z" fill="#263238"/>
<path d="M1195.08 699.978L1198.71 698.867L1183.1 647.908L1179.48 649.019L1195.08 699.978Z" fill="#263238"/>
<path d="M1289.13 619.584L1274.08 619.951L1306.69 609.855L1293.97 618.054L1299.72 636.778C1310.06 635.003 1317.03 643.631 1322.3 660.764L1289.68 671.044C1284.42 653.972 1285.34 642.897 1294.88 638.552L1289.13 619.584Z" fill="#263238"/>
<path d="M1321.93 632.617L1330.43 629.986L1322.78 605.021L1344.57 598.351L1352.22 623.316L1360.78 620.685L1349.28 652.626L1321.93 632.617Z" fill="#263238"/>
<path opacity="0.1" d="M1137.93 628.701L1147.66 660.519L1603.03 585.379L1575.25 494.758L1137.93 628.701Z" fill="black"/>
<path d="M2000.82 858.649L1779.38 926.447L1694.02 882.513L1915.46 814.655L2000.82 858.649Z" fill="#CFD8DC"/>
<path opacity="0.2" d="M2000.82 858.649L1779.38 926.447L1694.02 882.513L1915.46 814.655L2000.82 858.649Z" fill="black"/>
<path d="M1210.56 1100.71L1432.01 1032.85L1478.08 948.658L1256.64 1016.46L1210.56 1100.71Z" fill="#CFD8DC"/>
<path opacity="0.1" d="M1210.56 1100.71L1432.01 1032.85L1478.08 948.658L1256.64 1016.46L1210.56 1100.71Z" fill="black"/>
<path d="M846.122 568.858C878.491 677.102 968.5 862.566 1001.91 885.206C1031.34 905.459 1172.63 887.041 1234.43 873.641C1257.56 868.685 1209.95 692.093 1185.48 697.906C1155.86 704.943 1067.69 722.382 1061.45 717.548C1055.21 712.714 969.663 601.288 908.474 535.938C852.914 476.463 833.884 527.923 846.122 568.858Z" fill="#D3766A"/>
<path d="M1172.75 712.285C1172.75 712.285 1219.56 659.54 1252.72 639.409C1287.73 619.372 1327.08 608.138 1367.39 606.673C1410.9 604.96 1517.31 630.781 1515.16 662.722C1513.27 691.665 1405.88 659.724 1405.88 659.724C1405.88 659.724 1520.73 674.226 1512.04 708.675C1503.35 743.125 1380.79 698.885 1380.79 698.885C1380.79 698.885 1498.46 716.385 1484.14 750.59C1473.13 776.35 1359.87 742.574 1359.87 742.574C1359.87 742.574 1460.95 758.361 1450.73 785.406C1439.47 815.205 1332.94 790.607 1332.94 790.607C1295.56 854.733 1251.44 870.153 1218.82 877.067C1210.69 878.475 1172.75 712.285 1172.75 712.285Z" fill="#D3766A"/>
<path d="M1366.47 652.136C1380 653.36 1393.76 654.523 1407.16 656.909C1420.57 659.295 1433.84 662.232 1447 665.904C1464.23 670.333 1480.9 676.718 1496.68 684.934C1467.62 672.39 1419.77 662.967 1406.37 660.458C1392.97 657.949 1379.69 654.951 1366.35 652.565C1365.98 652.687 1366.11 652.136 1366.47 652.136Z" fill="#263238"/>
<path d="M1356.87 700.414C1374.06 702.678 1391.32 704.331 1408.45 707.39C1425.58 710.449 1441.43 714.855 1458.26 719.077C1459.54 719.383 1458.93 719.995 1457.65 719.689C1440.64 716.14 1424.73 714.182 1407.72 710.878C1390.7 707.573 1373.82 703.535 1356.74 700.782C1356.5 700.782 1356.56 700.353 1356.87 700.414Z" fill="#263238"/>
<path d="M1341.14 740.31C1367.68 743.19 1393.84 748.809 1419.22 757.076C1420.5 757.443 1419.65 758.116 1418.3 757.81C1392.48 751.691 1372.23 746.796 1341.08 741.228C1340.59 741.166 1340.59 740.249 1341.14 740.31Z" fill="#263238"/>
<path d="M1220.42 904.97L1179.3 693.745L1064.69 711.734C1020.88 659.112 933.378 553.867 897.643 522.048C855.729 484.662 827.031 511.34 841.411 566.716C874.33 693.317 974.191 880.31 1001.24 898.667C1040.03 924.978 1220.42 904.97 1220.42 904.97Z" fill="#CFD8DC"/>
<path opacity="0.1" d="M1142.83 723.054C1148.48 724.283 1154.24 724.96 1160.02 725.074C1172.26 726.726 1177.64 744.777 1166.51 751.63C1160.66 755.232 1154.05 757.413 1147.21 757.997C1140.36 758.582 1133.48 757.553 1127.1 754.995C1114.86 750.222 1104.52 738.352 1107.15 724.401C1107.61 721.8 1108.73 719.361 1110.41 717.322C1112.09 715.283 1114.26 713.713 1116.73 712.764C1119.19 711.815 1121.86 711.521 1124.47 711.909C1127.08 712.296 1129.55 713.354 1131.63 714.977C1135.02 718.114 1138.78 720.827 1142.83 723.054ZM1130.59 701.394C1134.43 703.244 1138.66 704.144 1142.92 704.016C1147.18 703.888 1151.34 702.737 1155.07 700.659C1156.44 699.743 1157.54 698.475 1158.25 696.988L1130.59 701.394ZM1071.05 710.694C1075.92 714.253 1081.94 715.887 1087.94 715.283C1090.01 714.999 1091.92 713.999 1093.32 712.456C1094.73 710.914 1095.56 708.926 1095.65 706.839L1071.05 710.694ZM1200.77 804.987C1198.35 806.002 1196.39 807.876 1195.27 810.249C1190.13 820.59 1197.29 831.726 1207.5 838.396L1200.77 804.987ZM1016.47 845.616C1014.51 852.408 1014.27 858.466 1009.19 863.973C1003.72 868.38 998.83 873.458 994.628 879.087C993.918 880.472 993.58 882.019 993.647 883.575C993.714 885.13 994.183 886.642 995.01 887.962C995.836 889.282 996.991 890.364 998.362 891.104C999.732 891.843 1001.27 892.215 1002.83 892.181C1013.49 890.869 1023.27 885.6 1030.23 877.417C1037.19 869.235 1040.82 858.736 1040.4 848.002C1040.05 845.252 1038.79 842.7 1036.8 840.763C1034.82 838.827 1032.24 837.622 1029.48 837.345C1026.72 837.067 1023.95 837.735 1021.62 839.237C1019.29 840.74 1017.54 842.989 1016.66 845.616H1016.47ZM995.362 786.324C991.936 794.646 992.548 804.069 989.672 812.758C987.148 820.723 984.144 828.529 980.677 836.132C978.107 841.639 983.247 850.328 989.917 847.391C1000.76 843.227 1009.64 835.118 1014.76 824.689C1019.41 815.083 1024.55 798.929 1020.08 788.71C1015.62 778.492 1000.75 774.27 995.546 786.324H995.362ZM904.558 569.898C907.977 570.622 911.543 569.994 914.509 568.146C917.474 566.298 919.61 563.373 920.467 559.986C923.894 546.83 912.145 533.307 902.845 525.108C893.544 516.908 880.449 509.443 867.416 513.665C865.681 514.228 864.118 515.224 862.876 516.56C861.634 517.895 860.754 519.526 860.319 521.297C859.883 523.068 859.908 524.922 860.39 526.681C860.871 528.44 861.795 530.047 863.072 531.349C868.762 538.447 876.656 543.587 882.713 550.562C888.771 557.538 894.095 568.124 904.741 569.898H904.558ZM951.796 622.092C956.936 614.689 952.958 603.736 949.287 596.699C947.332 592.817 944.292 589.586 940.537 587.398C938.01 585.781 934.946 585.227 932.012 585.858C929.079 586.488 926.513 588.251 924.873 590.764C923.204 594.243 922.941 598.232 924.138 601.9C924.649 603.819 925.346 605.684 926.219 607.468V608.019V608.508C927.312 614.352 929.788 619.849 933.439 624.54C934.703 625.812 936.244 626.775 937.941 627.353C939.639 627.931 941.447 628.109 943.225 627.872C945.003 627.635 946.701 626.99 948.188 625.987C949.675 624.985 950.91 623.652 951.796 622.092ZM937.172 683.282C939.409 683.77 941.726 683.77 943.964 683.282C947.356 682.237 950.222 679.94 951.979 676.857C953.624 673.575 954.443 669.941 954.366 666.271C954.255 662.794 953.311 659.394 951.612 656.358L949.593 653.85L946.901 651.892C945.217 651.023 943.358 650.545 941.464 650.494C939.57 650.442 937.688 650.819 935.96 651.595C934.231 652.371 932.699 653.527 931.479 654.977C930.259 656.426 929.381 658.133 928.911 659.969C927.892 663.532 927.176 667.176 926.77 670.86L927.32 674.226C927.749 675.914 928.59 677.47 929.768 678.754C931.651 680.799 934.137 682.192 936.866 682.731L937.172 683.282ZM988.509 621.175L976.271 607.407C974.316 607.174 972.343 607.669 970.729 608.798C969.116 609.926 967.974 611.609 967.522 613.526C967.032 617.099 967.032 620.722 967.522 624.295C967.522 625.825 967.522 627.355 967.522 628.946C967.49 631.251 967.737 633.552 968.256 635.799C968.925 638.128 970.355 640.165 972.319 641.585C974.282 643.005 976.665 643.725 979.086 643.631C981.477 643.508 983.766 642.621 985.616 641.101C987.466 639.581 988.78 637.509 989.366 635.187C990.285 630.52 989.99 625.695 988.509 621.175Z" fill="#030402"/>
<path d="M1180.89 885.573C1175.93 873.029 1164.31 818.571 1161.55 804.925C1158.8 791.28 1149.68 736.455 1146.93 722.443C1146.93 721.708 1147.78 721.219 1147.97 722.014C1150.91 735.782 1164.43 790.056 1167.3 803.64C1170.18 817.224 1181.13 871.683 1181.62 885.389C1181.65 885.486 1181.63 885.589 1181.58 885.675C1181.53 885.762 1181.44 885.824 1181.35 885.848C1181.25 885.872 1181.15 885.857 1181.06 885.805C1180.97 885.754 1180.91 885.67 1180.89 885.573Z" fill="#263238"/>
<path d="M1143.07 910.905C1124.29 912.006 1105.5 912.435 1086.72 912.312C1067.86 912.395 1049.02 911.312 1030.3 909.069C1020.71 908.12 1011.33 905.641 1002.52 901.727C994.603 896.135 987.727 889.197 982.206 881.228C971.115 865.917 961.077 849.868 952.163 833.195C933.806 800.214 918.019 765.887 902.6 731.743C887.18 697.6 873.168 662.477 860.318 627.11C875.921 661.315 891.341 695.581 907.372 729.541C923.404 763.5 939.619 797.338 957.119 830.441C965.853 846.953 975.495 862.968 986 878.414C990.904 886.103 997.117 892.875 1004.36 898.422C1012.7 902.27 1021.6 904.769 1030.73 905.826C1068 910.341 1105.55 912.039 1143.07 910.905Z" fill="#263238"/>
<path d="M872.25 656.97C869.737 654.432 867.463 651.667 865.458 648.71C863.382 645.781 861.791 642.538 860.747 639.103C861.668 640.623 862.669 642.094 863.745 643.509L866.743 647.853C868.757 650.781 870.596 653.825 872.25 656.97Z" fill="#263238"/>
<path d="M968.867 600.248C984.348 615.79 998.238 632.862 1012.62 649.199C1027 665.537 1040.76 682.792 1055.45 699.068L1060.9 705.187C1061.87 706.105 1062.79 707.145 1063.71 708.002C1064.63 708.859 1064.63 708.797 1065.06 709.165C1065.06 709.165 1065.48 709.165 1065.73 709.165C1070.38 709.165 1076.25 708.124 1081.52 707.451L1114.07 702.617C1135.73 699.436 1157.45 696.131 1179.17 693.194L1180.03 698.579L1178.75 693.256H1179.05C1157.57 697.845 1136.22 701.944 1114.44 705.922C1103.61 707.88 1092.78 709.593 1081.88 711.245C1076.32 712.211 1070.7 712.865 1065.06 713.203C1064.61 713.261 1064.16 713.261 1063.71 713.203C1063.11 713.023 1062.55 712.733 1062.06 712.346C1061.44 711.867 1060.85 711.357 1060.28 710.817L1057.29 707.88C1055.33 705.86 1053.49 703.841 1051.66 701.761C1037.28 685.056 1023.33 668.168 1009.62 651.035L989.121 625.274C982.39 617.259 976.271 608.447 968.867 600.248Z" fill="#263238"/>
<path d="M976.883 602.084C979.188 604.915 981.235 607.946 983.002 611.14C984.727 614.295 985.945 617.702 986.612 621.236C985.878 619.584 984.96 618.115 984.104 616.524L981.595 611.813C979.85 608.657 978.278 605.409 976.883 602.084Z" fill="#263238"/>
<path d="M242.982 2202.12C240.717 2144.86 241.514 2087.53 245.368 2030.36C253.807 1912.53 271.794 1795.58 299.153 1680.66C314.145 1615.93 332.624 1552.17 351.898 1488.65C352.449 1486.76 355.509 1487.31 355.019 1489.26C295.482 1713.46 246.592 1944.88 249.957 2177.89C250.936 2243.11 258.463 2307.18 264.643 2371.98C264.643 2373.75 261.95 2374.42 261.583 2372.65C249.284 2317.03 245.307 2258.78 242.982 2202.12Z" fill="#CFD8DC"/>
<path d="M355.019 1488.96C355.019 1488.96 445.212 1717.93 425.019 1771.71C404.827 1825.5 363.157 1837 363.157 1837C363.157 1837 418.227 1915.81 379.801 1989.97C341.374 2064.14 255.587 2060.34 249.835 2144.17C249.835 2143.93 245.062 1793.56 355.019 1488.96Z" fill="#CFD8DC"/>
<path d="M259.686 1999.27C259.536 1998.88 259.536 1998.44 259.686 1998.05C271.581 1841.74 300.952 1687.25 347.248 1537.48C347.248 1537.05 348.105 1537.17 347.982 1537.48C330.115 1604.42 314.328 1671.73 300.622 1739.4C312.675 1727.96 327.399 1719.72 343.454 1715.42C343.454 1715.42 343.883 1715.42 343.454 1715.85C326.508 1722.12 311.286 1732.31 299.031 1745.58C296.42 1758.8 293.871 1772.08 291.382 1785.42C311.514 1762.9 339.477 1751.7 367.44 1741.06C367.807 1741.06 368.052 1741.55 367.44 1741.67C338.314 1753.54 309.25 1768.84 289.547 1793.92C282.612 1831.9 276.493 1870.02 271.19 1908.29C285.773 1893.09 304.459 1882.46 324.975 1877.69C325.587 1877.69 325.954 1878.49 324.975 1878.67C303.801 1884.79 284.86 1896.93 270.456 1913.61H270.089C268.294 1927.07 266.601 1940.55 265.01 1954.06C276.633 1944.46 289.761 1936.85 303.865 1931.54C304.232 1931.54 304.416 1931.97 303.865 1932.09C290.053 1938.21 277.404 1946.68 266.478 1957.12C266.478 1957.12 266.478 1957.12 265.989 1957.12C264.52 1969.9 262.991 1982.75 261.706 1995.6C282.027 1971.06 308.386 1952.23 338.192 1940.96C338.252 1940.94 338.317 1940.93 338.382 1940.93C338.446 1940.93 338.511 1940.94 338.57 1940.97C338.63 1940.99 338.684 1941.03 338.729 1941.08C338.775 1941.12 338.81 1941.18 338.834 1941.24C338.859 1941.3 338.871 1941.36 338.87 1941.43C338.869 1941.49 338.855 1941.56 338.83 1941.62C338.804 1941.67 338.767 1941.73 338.721 1941.77C338.674 1941.82 338.619 1941.86 338.559 1941.88C309.118 1954.85 283.254 1974.75 263.174 1999.89C262.968 2000.18 262.671 2000.4 262.328 2000.51C261.986 2000.62 261.617 2000.62 261.277 2000.5C259.319 2020.2 257.545 2039.97 256.137 2059.73H255.648C256.627 2039.72 258.034 2019.47 259.686 1999.27Z" fill="#263238"/>
<path d="M332.134 1692.9C348.463 1682.73 367.129 1676.91 386.348 1676.01C386.776 1676.01 386.837 1676.62 386.348 1676.69C367.784 1680.12 349.76 1686.01 332.746 1694.19C332.586 1694.22 332.42 1694.2 332.274 1694.12C332.128 1694.05 332.011 1693.93 331.94 1693.78C331.87 1693.63 331.851 1693.47 331.886 1693.31C331.921 1693.15 332.009 1693.01 332.134 1692.9Z" fill="#263238"/>
<path d="M321.181 1935.27C333.74 1928.1 347.55 1923.39 361.872 1921.38C362.361 1921.38 362.423 1922.05 361.872 1922.12C347.841 1924.94 334.27 1929.69 321.548 1936.25C321.12 1936.5 320.631 1935.58 321.181 1935.27Z" fill="#263238"/>
<path d="M5.87423 1775.45C44.0108 1801.83 79.0309 1832.46 110.263 1866.74C142.556 1902.97 167.495 1945.14 183.69 1990.89C217.914 2086.25 236.33 2186.55 238.209 2287.84C239.382 2343.94 233.981 2399.98 222.116 2454.83C222.012 2455.21 221.769 2455.54 221.434 2455.75C221.098 2455.97 220.696 2456.05 220.304 2455.98C219.913 2455.91 219.562 2455.7 219.32 2455.38C219.078 2455.07 218.962 2454.67 218.996 2454.28C233.775 2357.49 233.279 2258.98 217.527 2162.34C201.985 2067.62 177.693 1964.58 117.483 1887.6C84.3798 1845.87 43.5055 1812.77 3.36548 1778.57C0.979106 1776.85 3.67142 1773.92 5.87423 1775.45Z" fill="#CFD8DC"/>
<path d="M224.747 2219.68C203.054 2184.55 177.547 2151.92 148.689 2122.39C103.532 2077.29 65.5335 2045.23 59.6593 2015.37C53.7852 1985.51 104.878 1963.6 104.878 1963.6C104.878 1963.6 42.404 1974.8 25.3323 1948.55C8.26052 1922.3 0 1770.61 0 1770.61C0 1770.61 113.506 1851.99 166.557 1965.38C219.608 2078.76 224.747 2219.68 224.747 2219.68Z" fill="#CFD8DC"/>
<path d="M40.5685 1913.18C48.0453 1912.11 55.6167 1911.87 63.1472 1912.45C64.065 1912.45 64.0039 1914.04 63.1472 1914.04C55.6821 1914.04 48.2171 1913.67 40.6908 1914.04C40.0789 1913.92 40.0789 1913.18 40.5685 1913.18Z" fill="#263238"/>
<path d="M122.317 2060.04C134.328 2060.29 146.2 2062.67 157.378 2067.07C157.378 2067.07 157.378 2067.62 157.378 2067.56C145.813 2064.81 134.126 2063.65 122.439 2061.75C121.277 2061.75 121.338 2060.04 122.317 2060.04Z" fill="#263238"/>
<path d="M146.854 2009.31C151.842 2009.27 156.823 2009.72 161.723 2010.66C162.212 2010.66 162.151 2011.57 161.723 2011.57C156.754 2011.82 151.774 2011.57 146.854 2010.84C146.688 2010.79 146.541 2010.69 146.437 2010.55C146.333 2010.42 146.277 2010.25 146.277 2010.07C146.277 2009.9 146.333 2009.73 146.437 2009.6C146.541 2009.46 146.688 2009.36 146.854 2009.31Z" fill="#263238"/>
<path d="M557.738 1936.56C520.791 1949.08 485.381 1965.75 452.187 1986.24C417.816 2008.2 388.003 2036.58 364.381 2069.83C314.642 2139.1 276.551 2216.02 251.609 2297.57C237.73 2342.7 229.147 2389.3 226.032 2436.41C226.032 2436.77 226.174 2437.11 226.427 2437.36C226.679 2437.61 227.021 2437.76 227.378 2437.76C227.735 2437.76 228.078 2437.61 228.33 2437.36C228.583 2437.11 228.725 2436.77 228.725 2436.41C239.064 2354.78 262.127 2275.27 297.073 2200.77C331.522 2127.71 375.028 2049.94 441.54 2001.6C477.764 1975.23 518.455 1958.03 559.023 1939.8C561.409 1938.82 560.186 1935.82 557.738 1936.56Z" fill="#CFD8DC"/>
<path d="M277.982 2245.44C303.642 2222 331.818 2201.48 361.995 2184.25C408.988 2158.18 447.109 2140.99 458.796 2118.23C470.483 2095.46 434.32 2065.85 434.32 2065.85C434.32 2065.85 482.231 2089.35 502.118 2071.97C522.004 2054.59 563.735 1933.74 563.735 1933.74C563.735 1933.74 453.105 1973.15 383.961 2052.94C314.818 2132.73 277.982 2245.44 277.982 2245.44Z" fill="#CFD8DC"/>
<path d="M369.827 2134.32C380.687 2133.56 391.592 2134.89 401.951 2138.23C401.951 2138.23 401.951 2138.79 401.951 2138.72C391.364 2136.95 380.676 2135.85 369.949 2135.42C369.803 2135.44 369.657 2135.39 369.542 2135.3C369.427 2135.21 369.354 2135.08 369.337 2134.93C369.321 2134.78 369.364 2134.64 369.455 2134.52C369.547 2134.41 369.681 2134.34 369.827 2134.32Z" fill="#263238"/>
<path d="M466.383 2007.66C471.335 2007.3 476.313 2007.59 481.191 2008.51C481.284 2008.55 481.365 2008.61 481.422 2008.69C481.479 2008.78 481.51 2008.87 481.51 2008.97C481.51 2009.07 481.479 2009.17 481.422 2009.25C481.365 2009.34 481.284 2009.4 481.191 2009.43C476.357 2008.88 471.523 2009.07 466.628 2008.94C466.477 2008.94 466.333 2008.88 466.219 2008.78C466.106 2008.68 466.028 2008.54 466 2008.4C465.972 2008.25 465.994 2008.09 466.064 2007.96C466.133 2007.83 466.245 2007.72 466.383 2007.66Z" fill="#263238"/>
<path d="M135.228 2589.02H385.002L349.39 2328.04L340.273 2261.16H179.957L170.84 2328.04L135.228 2589.02Z" fill="#455A64"/>
<path d="M170.84 2328.04H349.39L340.272 2261.16H179.957L170.84 2328.04Z" fill="#263238"/>
<path d="M156.95 2294.57H363.218V2237.91H156.95V2294.57Z" fill="#455A64"/>
<path d="M1465.78 137.292C1465.78 162.473 1458.78 187.159 1445.57 208.594C1432.35 230.03 1413.44 247.373 1390.95 258.687C1368.45 270.002 1343.25 274.844 1318.17 272.673C1293.08 270.502 1269.09 261.403 1248.87 246.392L1182.23 263.402L1209.95 201.418C1200.2 183.192 1194.73 162.982 1193.95 142.325C1193.18 121.667 1197.13 101.105 1205.5 82.2034C1213.87 63.3016 1226.44 46.5572 1242.26 33.2435C1258.07 19.9299 1276.71 10.3976 1296.77 5.37143C1316.82 0.345287 1337.75 -0.0423145 1357.97 4.23809C1378.2 8.5185 1397.18 17.3542 1413.48 30.0733C1429.77 42.7924 1442.95 59.06 1452.02 77.6391C1461.08 96.2181 1465.79 116.619 1465.78 137.292Z" fill="white"/>
<path d="M1465.78 137.23C1465.78 162.443 1458.83 187.168 1445.71 208.699C1442.52 214.127 1439.01 219.358 1435.19 224.364C1431.13 229.157 1426.78 233.694 1422.16 237.948C1413.03 246.554 1402.73 253.826 1391.56 259.547C1380.36 265.264 1368.42 269.384 1356.07 271.785C1349.88 273.019 1343.6 273.796 1337.29 274.11C1331 274.631 1324.67 274.631 1318.38 274.11C1292.93 272.135 1268.53 263.133 1247.89 248.105L1249.73 248.472L1183.27 265.972L1177.89 267.38L1180.15 262.24L1207.63 200.133V202.703C1197.63 184.124 1192.05 163.494 1191.31 142.411C1190.56 121.328 1194.68 100.356 1203.34 81.1201C1212.02 61.9378 1224.92 44.9712 1241.1 31.4957C1257.25 18.219 1276.2 8.77295 1296.53 3.86636C1316.85 -1.04023 1338.03 -1.27996 1358.46 3.1652C1378.71 7.77105 1397.67 16.8443 1413.96 29.7213C1430.16 42.559 1443.24 58.9028 1452.22 77.5238C1461.19 96.1449 1465.83 116.559 1465.78 137.23ZM1465.78 137.23C1465.77 106.146 1455.01 76.0229 1435.31 51.9756C1415.61 27.9284 1388.2 11.439 1357.72 5.30683C1337.67 1.31573 1316.98 1.9435 1297.21 7.14249C1277.5 12.2321 1259.23 21.7781 1243.79 35.0447C1228.49 48.455 1216.3 65.0333 1208.06 83.6288C1199.92 102.172 1196.12 122.322 1196.92 142.554C1197.86 162.584 1203.21 182.161 1212.58 199.888L1213.26 201.173L1212.65 202.458L1184.68 264.381L1181.56 260.71L1248.32 244.189H1249.36L1250.15 244.801C1269.94 259.829 1293.52 269.046 1318.26 271.418C1324.37 271.868 1330.5 271.868 1336.61 271.418C1355.31 270.776 1373.66 266.122 1390.4 257.773C1401.57 252.335 1411.88 245.284 1420.99 236.846C1425.61 232.655 1429.97 228.18 1434.03 223.446C1437.92 218.577 1441.54 213.49 1444.86 208.21C1458.21 186.919 1465.45 162.362 1465.78 137.23Z" fill="#263238"/>
<path d="M1339.31 151.977V166.968C1339.35 168.466 1339.08 169.957 1338.53 171.35C1337.98 172.742 1337.14 174.007 1336.08 175.067C1335.02 176.127 1333.76 176.959 1332.37 177.513C1330.98 178.067 1329.48 178.331 1327.99 178.288C1326.5 178.288 1325.03 177.995 1323.66 177.426C1322.29 176.856 1321.05 176.021 1320 174.969C1318.96 173.917 1318.13 172.669 1317.57 171.296C1317 169.923 1316.72 168.452 1316.73 166.968V143.044C1316.73 143.044 1316.73 143.044 1316.73 142.554C1316.73 142.064 1316.73 142.554 1316.73 142.126C1316.8 139.158 1318.01 136.332 1320.11 134.227C1322.2 132.123 1325.02 130.898 1327.99 130.806C1331.48 130.976 1334.97 130.435 1338.25 129.216C1341.52 127.996 1344.52 126.124 1347.05 123.712C1349.58 121.301 1351.6 118.4 1352.98 115.186C1354.35 111.972 1355.06 108.511 1355.06 105.014C1355.06 101.518 1354.35 98.0574 1352.98 94.8433C1351.6 91.6292 1349.58 88.7284 1347.05 86.3167C1344.52 83.9051 1341.52 82.0328 1338.25 80.8135C1334.97 79.5941 1331.48 79.0531 1327.99 79.2233C1323.52 79.2092 1319.12 80.3724 1315.24 82.5959C1311.37 84.8193 1308.14 88.0246 1305.9 91.8894C1305.14 93.193 1304.14 94.335 1302.94 95.2499C1301.75 96.1649 1300.38 96.8348 1298.93 97.2214C1297.47 97.6079 1295.96 97.7034 1294.46 97.5025C1292.97 97.3015 1291.53 96.808 1290.23 96.0503C1288.96 95.294 1287.84 94.2928 1286.95 93.1042C1286.06 91.9155 1285.42 90.563 1285.06 89.1243C1284.69 87.6856 1284.62 86.1891 1284.83 84.7209C1285.05 83.2528 1285.55 81.8419 1286.32 80.5695C1290.34 73.6382 1296.02 67.815 1302.86 63.6227C1309.69 59.4304 1317.45 57.0002 1325.46 56.5504C1333.46 56.1006 1341.45 57.6452 1348.71 61.0455C1355.96 64.4458 1362.26 69.5954 1367.04 76.0319C1371.82 82.4684 1374.92 89.9904 1376.07 97.9224C1377.22 105.854 1376.39 113.948 1373.64 121.477C1370.89 129.006 1366.31 135.734 1360.32 141.058C1354.33 146.381 1347.11 150.133 1339.31 151.977ZM1339.31 202.458V206.619C1339.34 208.112 1339.07 209.596 1338.51 210.981C1337.95 212.367 1337.12 213.624 1336.06 214.677C1335 215.73 1333.74 216.557 1332.35 217.107C1330.96 217.657 1329.48 217.92 1327.99 217.878C1325 217.878 1322.14 216.692 1320.03 214.58C1317.91 212.469 1316.73 209.605 1316.73 206.619V202.458C1316.76 199.476 1317.95 196.624 1320.06 194.51C1322.16 192.396 1325 191.186 1327.99 191.138C1329.48 191.122 1330.96 191.403 1332.34 191.966C1333.72 192.529 1334.97 193.363 1336.03 194.417C1337.08 195.472 1337.91 196.726 1338.48 198.107C1339.04 199.488 1339.32 200.967 1339.31 202.458Z" fill="#CFD8DC"/>
</svg>
